<svg xmlns="http://www.w3.org/2000/svg" xmlns:xlink="http://www.w3.org/1999/xlink" viewBox="0 0 61.49 66.93">
  <defs>
    <style>
      .cls-1 {
        fill: url(#radial-gradient);
        mix-blend-mode: multiply;
        opacity: .8;
      }

      .cls-1,
      .cls-2,
      .cls-3 {
        stroke-width: 0px;
      }

      .cls-2 {
        fill: #000;
      }

      .cls-4 {
        isolation: isolate;
      }

      .cls-3 {
        fill: #fff;
      }
    </style>
    <radialGradient id="radial-gradient" cx="31.81" cy="37.24" fx="31.81" fy="37.24" r="29.68"
      gradientUnits="userSpaceOnUse">
      <stop offset="0" stop-color="#000057" />
      <stop offset=".39" stop-color="rgba(116,116,164,.54)" stop-opacity=".54" />
      <stop offset=".79" stop-color="rgba(216,216,229,.15)" stop-opacity=".15" />
      <stop offset="1" stop-color="#fff" stop-opacity="0" />
    </radialGradient>
  </defs>
  <g class="cls-4">
    <g id="Layer_2">
      <g id="ELEMENTS">
        <circle class="cls-1" cx="31.81" cy="37.24" r="29.68" />
        <circle class="cls-2" cx="23.83" cy="23.83" r="23.83" />
        <path class="cls-3"
          d="M30.4,15.86c-.8,0-1.45.65-1.45,1.45s.65,1.45,1.45,1.45,1.45-.65,1.45-1.45-.65-1.45-1.45-1.45Z" />
        <path class="cls-3"
          d="M23.93,17.72c-3.37,0-6.11,2.74-6.11,6.11s2.74,6.11,6.11,6.11,6.11-2.74,6.11-6.11-2.74-6.11-6.11-6.11ZM23.93,27.74c-2.16,0-3.91-1.76-3.91-3.91s1.76-3.91,3.91-3.91,3.91,1.76,3.91,3.91-1.76,3.91-3.91,3.91Z" />
        <path class="cls-3"
          d="M28.78,36.23h-9.9c-4.11,0-7.45-3.34-7.45-7.45v-9.9c0-4.11,3.34-7.45,7.45-7.45h9.9c4.11,0,7.45,3.34,7.45,7.45v9.9c0,4.11-3.34,7.45-7.45,7.45ZM18.88,13.76c-2.82,0-5.12,2.3-5.12,5.12v9.9c0,2.82,2.3,5.12,5.12,5.12h9.9c2.82,0,5.12-2.3,5.12-5.12v-9.9c0-2.82-2.3-5.12-5.12-5.12h-9.9Z" />
      </g>
    </g>
  </g>
</svg>