<svg xmlns="http://www.w3.org/2000/svg" viewBox="0 0 827.31 819.9">
    <defs>
        <style>
            fill {
                path: black;
            }

            @media (prefers-color-scheme: dark) {
                path {
                    fill: white;
                }
            }
        </style>
    </defs>
    <path
        d="M52.98,411.5l1.27,20.26-1.99.12c-.21-2.48-.8-4.12-1.76-4.92s-2.69-1.12-5.18-.96l-14.21.89,1.58,25.27,14.21-.89c2.68-.17,4.4-.75,5.15-1.76.75-1,1.09-2.65,1-4.95l1.99-.12,1.27,20.26-1.99.12c-.21-2.48-.8-4.12-1.76-4.92s-2.69-1.12-5.18-.96l-35.91,2.25c-2.69.17-4.42.76-5.18,1.76-.76,1-1.09,2.65-.97,4.95l-1.99.12-1.27-20.26,1.99-.12c.18,2.43.76,4.05,1.73,4.88.97.82,2.71,1.16,5.21,1l19.14-1.2-1.58-25.27-19.14,1.2c-4.26.27-6.31,2.5-6.15,6.71l-1.99.12-1.27-20.25,1.99-.12c.18,2.46.76,4.09,1.73,4.9.97.81,2.71,1.14,5.21.98l35.91-2.25c2.68-.17,4.4-.75,5.15-1.76.75-1,1.09-2.65,1-4.95l1.99-.12Z" />
    <path
        d="M39.47,482.53c5.47,5.33,8.81,10.74,10.02,16.23.56,2.57.4,4.55-.48,5.94-.89,1.38-2.68,2.36-5.39,2.93l-25.34,5.56c-1.22.27-1.7.95-1.46,2.05.24,1.07,1.89,2.7,4.98,4.87l-2.51.55c-4.93-3.22-7.68-6.13-8.25-8.73-.51-2.33.53-3.77,3.13-4.34l6-1.32c-4.2-2.62-7.34-4.93-9.42-6.92-2.08-1.99-3.35-4.03-3.81-6.11-.44-2.03-.03-3.93,1.23-5.71,1.27-1.78,3.04-2.92,5.31-3.42,5.86-1.29,13.84,4.84,23.92,18.38l4.86-1.07c1.49-.33,2.62-1.04,3.4-2.15.78-1.11.99-2.44.65-4.01-.59-2.68-2.41-4.77-5.46-6.28-3.05-1.51-6.55-2.05-10.51-1.6l-.6-2.72,9.73-2.13ZM34.2,503.66c-2.13-4.79-4.78-8.46-7.96-11.03-3.18-2.57-6.09-3.56-8.71-2.99-1.68.37-2.9,1.18-3.67,2.44-.77,1.26-.97,2.73-.6,4.41.68,3.12,2.9,5.39,6.66,6.82,3.76,1.43,8.52,1.55,14.29.34Z" />
    <path
        d="M23.23,546.68l-9.2,3.37c-2.3.84-3.73,1.9-4.29,3.17-.56,1.27-.46,2.98.31,5.15l-1.87.69-6.52-17.77,1.87-.69c.82,2.16,1.86,3.5,3.13,4.04,1.26.53,3.01.39,5.23-.42l37.29-13.67c1.95-.71,2.64-1.83,2.08-3.36-.2-.54-.98-1.62-2.33-3.23l1.95-.71,7.71,8.5.64,1.75-12.69,4.65c6.43,1.83,10.93,3.59,13.5,5.28,2.57,1.69,4.29,3.72,5.16,6.09,1.14,3.12.81,6.28-1,9.5-1.81,3.21-4.9,5.62-9.27,7.22-6.13,2.25-12.32,2.21-18.56-.11-6.25-2.32-10.3-6.02-12.15-11.08-.43-1.17-.72-2.45-.88-3.85-.16-1.4-.19-2.9-.1-4.49ZM28.21,544.85c-.81,2.36-1.29,4.48-1.44,6.36-.15,1.88.03,3.52.55,4.93,1.2,3.27,3.88,5.47,8.03,6.6,4.15,1.13,8.77.76,13.86-1.1,3.97-1.46,6.93-3.4,8.89-5.85,1.96-2.44,2.47-4.95,1.52-7.52-1.24-3.38-4.57-5.68-10-6.92-5.43-1.24-10.98-.81-16.66,1.27-1.22.45-2.8,1.19-4.75,2.23Z" />
    <path
        d="M45.63,599.4l-8.62,4.65c-2.16,1.16-3.42,2.41-3.8,3.74-.37,1.33-.03,3.02,1.04,5.05l-1.75.95-8.98-16.66,1.75-.94c1.12,2.02,2.34,3.2,3.67,3.55,1.33.35,3.03-.04,5.11-1.16l34.97-18.84c1.83-.98,2.36-2.19,1.59-3.62-.27-.51-1.2-1.46-2.77-2.86l1.83-.98,8.84,7.31.88,1.64-11.9,6.41c6.62.89,11.33,2,14.12,3.31,2.79,1.31,4.78,3.08,5.97,5.29,1.57,2.92,1.69,6.1.36,9.54-1.34,3.44-4.05,6.26-8.14,8.47-5.75,3.1-11.88,3.94-18.39,2.53-6.51-1.41-11.05-4.49-13.61-9.24-.59-1.1-1.06-2.33-1.42-3.69-.36-1.36-.6-2.84-.74-4.43ZM50.3,596.89c-.47,2.45-.64,4.62-.52,6.5.12,1.88.54,3.48,1.24,4.8,1.65,3.07,4.62,4.87,8.89,5.39,4.27.53,8.79-.49,13.56-3.06,3.72-2.01,6.38-4.36,7.97-7.05,1.59-2.7,1.74-5.25.44-7.66-1.71-3.17-5.33-4.98-10.88-5.43-5.55-.45-10.99.76-16.31,3.63-1.14.62-2.6,1.58-4.38,2.88Z" />
    <path
        d="M68.84,636.79c1.26,1.72,2.54,2.77,3.86,3.13,1.31.37,3.01-.16,5.08-1.59l18.67-12.91c1.43-.99,1.58-2.31.45-3.95-.41-.59-1.01-1.14-1.79-1.64-.41-.25-.7-.46-.87-.61l1.74-1.2,9.51,6.39,1.16,1.68-25.26,17.46c-2.03,1.4-3.12,2.78-3.27,4.13-.16,1.35.36,2.94,1.56,4.77l-1.64,1.13-10.83-15.67,1.64-1.13ZM118.99,613.58c.68.98.91,2,.69,3.08-.22,1.07-.77,1.92-1.66,2.53-.89.61-1.87.82-2.95.62-1.08-.2-1.93-.75-2.56-1.66-.61-.89-.83-1.87-.64-2.94.19-1.07.73-1.92,1.64-2.55.96-.66,1.97-.87,3.04-.64,1.07.23,1.88.75,2.43,1.55Z" />
    <path
        d="M112.69,642.54l10.39,5.21,1.14,1.31-10.31,9c6.63-.5,11.51-.41,14.63.28,3.12.69,5.44,1.9,6.95,3.63,3.07,3.52,2.35,7.26-2.17,11.21l-16.38,14.3c-1.86,1.62-2.79,3.1-2.8,4.46-.01,1.35.69,2.88,2.1,4.58l-1.5,1.31-9.5-10.88,1.5-1.31c.81.84,1.7.83,2.68-.02l19.3-16.85c1.08-.95,1.71-1.99,1.87-3.12.16-1.14-.14-2.15-.93-3.05-2.29-2.63-6.28-3.45-11.97-2.47-5.69.98-10.94,3.57-15.75,7.77-2.44,2.13-3.72,3.91-3.84,5.34-.13,1.43.63,3.12,2.26,5.08l-1.5,1.31-12.39-14.19,1.5-1.31c1.51,1.64,2.92,2.53,4.25,2.66,1.33.13,2.91-.6,4.75-2.2l15.98-13.95c2.06-1.8,2.5-3.38,1.31-4.75-.43-.5-1.47-1.16-3.11-1.99l1.56-1.37Z" />
    <path
        d="M158,722.89c-9.75,1.75-16.83.69-21.23-3.18-3.1-2.72-4.65-6.47-4.65-11.24,0-4.77,1.62-9.01,4.87-12.71,3.74-4.26,8.52-6.87,14.35-7.81,5.82-.95,10.64.26,14.47,3.62,3.08,2.7,4.56,5.94,4.45,9.71-.11,3.77-1.49,7.27-4.14,10.5l-20.11-17.67c-.75.77-1.29,1.35-1.62,1.72-3.23,3.68-4.95,7.61-5.16,11.79-.21,4.18,1.12,7.53,3.99,10.05,3.58,3.14,9.11,4.19,16.61,3.16l-1.81,2.06ZM162.36,705.72c1.9-2.67,2.8-5.26,2.67-7.76-.12-2.5-1.08-4.54-2.87-6.11-1.87-1.64-4.19-2.38-6.95-2.21-2.76.17-5.29,1.22-7.57,3.15l14.72,12.93Z" />
    <path
        d="M173.25,731.33c-1.88,3.07-2.64,5.95-2.27,8.64.37,2.69,1.6,4.77,3.71,6.24,1.75,1.22,3.55,1.69,5.4,1.4,1.86-.29,3.36-1.25,4.5-2.88,1.01-1.45,1.45-2.97,1.31-4.55-.18-1.58-.97-4.04-2.38-7.39-1-2.39-1.89-4.59-2.67-6.61-.78-2.02-1.1-3.73-.96-5.15.12-1.43.56-2.68,1.3-3.75,1.54-2.2,3.92-3.45,7.16-3.75,3.23-.3,6.53.72,9.88,3.07,2.06,1.44,3.97,3.45,5.71,6.02l-6.23,8.91-2.45-1.71c1.74-2.53,2.45-5.04,2.13-7.53-.32-2.49-1.38-4.36-3.17-5.61-1.27-.89-2.54-1.18-3.82-.88-1.28.31-2.3,1-3.06,2.09-.86,1.22-1.19,2.56-.99,4.02.16,1.46.92,3.78,2.27,6.96,2.3,5.49,3.6,9.14,3.9,10.93.28,1.82-.2,3.62-1.46,5.41-1.98,2.83-4.96,4.42-8.92,4.75-3.96.33-7.58-.64-10.84-2.93-2.43-1.7-4.75-4.34-6.97-7.92l6.59-9.42,2.31,1.62Z" />
    <path
        d="M206.53,753.28c-1.56,3.25-2.02,6.19-1.38,8.83.64,2.64,2.08,4.58,4.33,5.83,1.86,1.04,3.7,1.32,5.52.84,1.82-.48,3.21-1.58,4.18-3.32.86-1.55,1.14-3.1.84-4.66-.34-1.55-1.38-3.92-3.12-7.11-1.24-2.27-2.35-4.37-3.33-6.3-.98-1.93-1.48-3.6-1.47-5.03-.02-1.44.28-2.72.92-3.86,1.31-2.34,3.55-3.83,6.74-4.46,3.19-.63,6.57.05,10.15,2.04,2.2,1.23,4.3,3.03,6.3,5.41l-5.3,9.5-2.61-1.46c1.47-2.7,1.92-5.26,1.35-7.71-.57-2.44-1.81-4.19-3.72-5.26-1.35-.75-2.65-.92-3.89-.48-1.24.43-2.18,1.23-2.83,2.39-.73,1.3-.92,2.67-.57,4.1.31,1.44,1.3,3.67,2.97,6.69,2.85,5.23,4.51,8.72,4.99,10.48.46,1.78.17,3.62-.9,5.53-1.68,3.02-4.48,4.9-8.39,5.63-3.91.74-7.6.13-11.08-1.81-2.59-1.44-5.17-3.83-7.74-7.17l5.6-10.04,2.47,1.37Z" />
    <path
        d="M277.28,741.58l1.74.56c-.04,1.3.28,2.05.97,2.28l34.52,11.15c.89.29,1.53-.16,1.92-1.34l1.9.61-4.85,15.01-2.8-.91c2.36-7.58-.42-12.65-8.34-15.21l-2.13-.69-13.08,40.48c-1.31,4.06.02,6.79,3.99,8.18l-.61,1.9-19.31-6.24.61-1.9c2.38.74,4.12.8,5.22.19,1.1-.61,2.03-2.11,2.8-4.49l13.08-40.48-2.73-.88c-7.29-2.36-12.28.2-14.96,7.68l-2.76-.89,4.85-15.01Z" />
    <path
        d="M341.73,755.44l-.29,1.76c-1.19.25-1.91,1.15-2.16,2.67l-4.61,28.18c3.94-4.01,7.52-6.91,10.76-8.71,3.24-1.8,6.13-2.49,8.67-2.07,2.1.34,3.62,1.36,4.55,3.06.92,1.72,1.14,4.06.66,7.01l-3.5,21.38c-.38,2.35-.18,4.06.61,5.15.79,1.08,2.33,1.84,4.61,2.27l-.32,1.97-14.34-2.35.32-1.97c1.21.14,1.93-.5,2.16-1.92l4-24.45c.29-1.77.15-3.16-.43-4.17-.58-1-1.58-1.63-3.02-1.86-3.37-.55-6.91,1.41-10.62,5.9-3.71,4.48-6.04,9.67-7.01,15.57-.9,5.52.31,8.55,3.65,9.09l1.63.27-.32,1.97-18.64-3.05.32-1.97c2.11.29,3.74.08,4.9-.63,1.15-.71,1.93-2.29,2.33-4.75l6.62-40.43c.26-1.61-.51-2.57-2.33-2.86-1.02-.17-2.23-.1-3.63.2l.32-1.97,15.09-3.29Z" />
    <path
        d="M377.23,784.44l11.06-4.06,1.82.06-.47,13.48c3.02-4.77,5.68-8.13,7.99-10.08,2.31-1.95,4.64-2.89,6.99-2.81.91.03,2,.28,3.26.74l-.44,12.78-2.94-.1c.15-5.01-1.22-7.56-4.1-7.66-2.85-.1-5.47,2.14-7.85,6.73-2.39,4.58-3.68,9.82-3.89,15.71-.12,3.48.44,5.77,1.69,6.87,1.25,1.1,3.69,1.71,7.31,1.83l-.07,1.99-21.57-.75.07-1.99c2.27.02,3.92-.41,4.95-1.3,1.03-.89,1.58-2.54,1.67-4.95l.75-21.53c.08-2.43-.77-3.68-2.57-3.74-.75-.03-1.99.24-3.72.79l.07-1.99Z" />
    <path
        d="M438.85,779.26c5.21-.46,9.52.81,12.94,3.8,3.41,2.99,5.36,7.2,5.84,12.63.56,6.45-1.15,11.95-5.14,16.51s-8.6,7.07-13.84,7.52c-5.24.46-9.52-.84-12.84-3.9-3.32-3.06-5.22-7.24-5.68-12.56-.56-6.34,1.14-11.81,5.08-16.42,3.94-4.61,8.49-7.14,13.65-7.59ZM435.61,782.79c-3.75.33-6.5,1.92-8.25,4.76-1.75,2.85-2.45,6.28-2.1,10.31.43,4.96,2.39,9.26,5.86,12.88,3.47,3.63,7.29,5.26,11.45,4.89,3.09-.27,5.59-1.78,7.5-4.53,1.91-2.75,2.69-6.19,2.32-10.33-.34-3.83-1.49-7.2-3.47-10.09-1.98-2.9-4.13-4.98-6.46-6.27-2.33-1.28-4.62-1.82-6.85-1.63Z" />
    <path
        d="M466.45,778.89l13.3-5.67.36,1.58c-1.03.58-1.37,1.64-1.01,3.18l5.79,25.06c.38,1.65,1.04,2.86,1.99,3.63.95.78,2.02,1.03,3.23.75,3.09-.71,5.63-3.76,7.62-9.13,1.99-5.37,2.25-11.21.79-17.52-.56-2.43-1.29-4.16-2.2-5.2-.9-1.04-2.16-1.38-3.77-1-.51.12-1.25.4-2.22.85l-.45-1.94,13.46-5.71.37,1.58c-1.14.46-1.52,1.53-1.13,3.21l6.03,26.07c.58,2.51,1.8,3.55,3.66,3.12,1.1-.26,2.43-.99,3.96-2.2l.45,1.94-10.13,7.03-1.98.46-3.1-13.42c-2.9,6.75-5.4,11.18-7.51,13.3s-4.21,3.42-6.32,3.91c-4.45,1.03-7.4-1.61-8.86-7.92l-5.11-22.12c-.54-2.35-2.07-3.23-4.57-2.65-.54.12-1.28.38-2.21.77l-.45-1.94Z" />
    <path
        d="M545.5,778.79c-.29.17-.73.42-1.32.73-1.74,1.03-3.07,1.72-4,2.08-3.15,1.22-6.1,1.37-8.85.46-2.75-.91-4.66-2.73-5.72-5.46-1.38-3.56-.86-7.46,1.56-11.68,2.42-4.23,5.76-7.17,10.05-8.83,1.11-.43,2.09-.69,2.95-.78.85-.09,2.5-.12,4.95-.09,2.6.06,4.45.03,5.53-.09,1.08-.12,2.29-.44,3.63-.96l2.75-1.06.72,1.86-7.9,3.05c1.14,1.1,1.92,2.2,2.35,3.31.6,1.55.8,3.29.6,5.23-.2,1.94-1.35,4.87-3.45,8.8-2.04,3.84-2.86,6.3-2.44,7.38.33.85,1.18,1.4,2.55,1.64,1.35.28,3.59.34,6.7.17,4.48-.22,7.9-.04,10.26.53,2.36.57,3.95,1.93,4.78,4.08,1.5,3.88.3,8.13-3.6,12.78-3.9,4.64-8.96,8.17-15.18,10.57-4.59,1.78-8.72,2.45-12.39,2.01-3.67-.44-6.01-1.97-7.03-4.6-1.01-2.61-.2-5.6,2.42-8.97,2.63-3.38,6.62-6.75,11.99-10.14-1.19-.32-2.16-.74-2.92-1.27-.75-.53-1.28-1.18-1.58-1.96-.41-1.06-.43-2.19-.07-3.4.36-1.21,1.25-3.01,2.67-5.4ZM535.59,759.39c-2.61,1.01-4.27,2.72-5,5.14s-.59,4.92.41,7.5c1.01,2.61,2.59,4.55,4.74,5.82s4.42,1.45,6.79.53c2.3-.89,3.86-2.53,4.7-4.93s.73-4.96-.32-7.67c-1.06-2.74-2.67-4.69-4.83-5.88-2.16-1.18-4.33-1.35-6.5-.51ZM550.18,790.9c-4.77,3.39-8.16,6.45-10.16,9.17-2,2.72-2.61,5.09-1.83,7.11.7,1.81,2.42,3.03,5.17,3.64,2.75.62,6.3.08,10.66-1.6,5.03-1.95,8.62-4.44,10.77-7.47,2.15-3.03,2.75-5.78,1.8-8.24-.52-1.35-1.52-2.18-2.99-2.5-1.47-.32-4.26-.41-8.35-.25l-5.07.13Z" />
    <path
        d="M567.24,720.77l.87,1.56c-.77.94-.78,2.09-.02,3.44l13.95,24.91c.58-5.59,1.58-10.09,2.99-13.52,1.41-3.42,3.24-5.76,5.49-7.02,1.86-1.04,3.68-1.19,5.46-.44,1.8.77,3.42,2.46,4.88,5.07l10.59,18.9c1.16,2.08,2.39,3.29,3.68,3.65,1.29.35,2.97-.01,5.02-1.1l.97,1.74-12.67,7.1-.97-1.74c1.04-.64,1.2-1.59.5-2.85l-12.11-21.62c-.88-1.57-1.86-2.57-2.93-3-1.08-.43-2.25-.29-3.52.43-2.98,1.67-4.52,5.41-4.63,11.23-.11,5.82,1.3,11.33,4.22,16.55,2.73,4.88,5.57,6.49,8.52,4.83l1.44-.81.97,1.74-16.48,9.23-.97-1.74c1.83-1.09,2.98-2.27,3.44-3.54.46-1.27.08-3-1.13-5.17l-20.02-35.74c-.8-1.42-2-1.69-3.6-.79-.9.5-1.8,1.31-2.71,2.42l-.97-1.74,9.75-11.98Z" />
    <path
        d="M624.03,691.42l23.87-22.24c5.34-4.98,10.54-7.43,15.57-7.36,5.04.07,9.94,2.67,14.72,7.79,6.07,6.52,9.08,14.08,9.02,22.68-.06,8.6-3.75,16.32-11.08,23.14l-15.91,14.82-1.36-1.46c1.8-1.72,2.7-3.21,2.7-4.46s-.85-2.8-2.56-4.63l-24.53-26.33c-1.83-1.96-3.37-2.92-4.61-2.88-1.24.04-2.74.84-4.47,2.38l-1.36-1.46ZM637.72,685.59l28.24,30.31c4.99-1.14,9.03-3.14,12.1-6,4.33-4.04,6.31-8.92,5.93-14.64s-2.99-11.19-7.84-16.39c-4.86-5.22-10.02-8.43-15.46-9.62s-10.89.74-16.34,5.81c-3.54,3.3-5.75,6.81-6.63,10.54Z" />
    <path
        d="M688.67,655.56c.63-7.61,2.68-13.63,6.16-18.05,1.63-2.07,3.26-3.21,4.89-3.4,1.63-.2,3.53.57,5.69,2.3l20.4,16.02c.98.77,1.82.71,2.51-.18.68-.87.88-3.18.59-6.94l2.02,1.59c.64,5.85.15,9.83-1.49,11.91-1.47,1.87-3.25,1.99-5.34.35l-4.83-3.79c.65,4.91.87,8.8.65,11.67-.22,2.87-.98,5.15-2.3,6.82-1.28,1.63-3.01,2.53-5.19,2.68s-4.18-.49-6.01-1.92c-4.72-3.71-5.06-13.76-1.02-30.15l-3.92-3.08c-1.2-.94-2.47-1.36-3.82-1.26-1.35.1-2.52.79-3.51,2.05-1.69,2.15-2.15,4.89-1.38,8.21.77,3.32,2.59,6.36,5.44,9.13l-1.72,2.19-7.83-6.15ZM708.32,646.19c-2.34,4.69-3.49,9.07-3.45,13.16.04,4.09,1.12,6.96,3.23,8.62,1.35,1.06,2.76,1.49,4.22,1.28,1.46-.21,2.73-.99,3.79-2.34,1.97-2.51,2.31-5.67,1.03-9.48-1.28-3.81-4.22-7.56-8.82-11.24Z" />
    <path
        d="M713.17,620.32l1.63-11.5.88-1.5,11.81,6.91c-2.58-6.13-4.05-10.78-4.39-13.96-.34-3.18.07-5.76,1.23-7.74,2.36-4.04,6.13-4.54,11.32-1.51l18.78,10.98c2.13,1.24,3.83,1.66,5.12,1.24,1.29-.42,2.51-1.57,3.68-3.45l1.72,1.01-7.29,12.47-1.72-1.01c.54-1.03.25-1.87-.87-2.53l-22.11-12.93c-1.24-.73-2.43-.99-3.55-.78-1.13.21-1.99.82-2.59,1.85-1.76,3.01-1.27,7.06,1.48,12.14s6.87,9.23,12.38,12.45c2.79,1.63,4.89,2.28,6.28,1.94,1.4-.34,2.76-1.59,4.09-3.76l1.72,1-9.51,16.27-1.72-1c1.08-1.95,1.47-3.58,1.17-4.88-.3-1.3-1.5-2.57-3.6-3.8l-18.31-10.7c-2.37-1.38-4-1.29-4.92.28-.33.57-.63,1.76-.89,3.58l-1.79-1.05Z" />
    <path
        d="M774.93,552.29c4.65,8.5,5.88,15.36,3.71,20.6-1.4,3.37-4.17,6-8.32,7.89-4.14,1.89-8.86,1.73-14.15-.46-5.49-2.28-9.56-6.17-12.19-11.65-2.63-5.48-2.86-10.85-.68-16.08,1.33-3.19,3.61-6.3,6.85-9.33l10,4.16-1.16,2.8c-3.08-1.19-5.95-1.25-8.61-.19-2.66,1.07-4.56,3-5.72,5.78-1.47,3.53-1.11,6.92,1.06,10.17,2.18,3.26,5.22,5.7,9.14,7.33,4.25,1.77,8.28,2.16,12.09,1.16,3.81-.99,6.43-3.23,7.88-6.7.88-2.12,1.11-4.44.7-6.97-.42-2.53-1.51-5.73-3.28-9.61l2.68,1.12Z" />
    <path
        d="M737.92,515.94c.34-1.14,1-1.96,1.98-2.46s1.98-.6,3.01-.29,1.81.95,2.33,1.92c.52.97.62,1.98.3,3.04-.31,1.03-.94,1.81-1.9,2.33s-1.96.62-3.02.3c-1.11-.33-1.91-.99-2.39-1.98-.48-.98-.59-1.94-.31-2.87ZM787.34,540.67c.56-2.06.58-3.71.05-4.97-.53-1.26-2-2.25-4.41-2.98l-21.74-6.55c-1.67-.5-2.79.2-3.37,2.11-.21.69-.26,1.5-.17,2.42.06.48.08.83.07,1.06l-2.03-.61-.94-11.42.59-1.95,29.41,8.86c2.36.71,4.12.71,5.27-.02,1.16-.72,2.08-2.12,2.76-4.2l1.91.57-5.5,18.24-1.91-.57Z" />
    <path
        d="M764.5,502.81l-2.42-11.37.31-1.71,13.47,2.43c-4.53-4.87-7.5-8.74-8.91-11.61-1.41-2.87-1.91-5.43-1.51-7.7.83-4.6,4.2-6.37,10.11-5.3l21.4,3.87c2.42.44,4.17.24,5.23-.59,1.06-.83,1.82-2.33,2.27-4.5l1.96.35-2.57,14.21-1.96-.35c.15-1.15-.41-1.85-1.69-2.08l-25.21-4.55c-1.41-.25-2.62-.09-3.61.49-.99.58-1.59,1.46-1.8,2.63-.62,3.43,1.23,7.06,5.55,10.89s9.62,6.31,15.9,7.45c3.18.58,5.37.46,6.57-.33,1.2-.8,2.05-2.44,2.56-4.94l1.96.35-3.35,18.54-1.96-.35c.34-2.2.15-3.86-.58-4.99-.72-1.12-2.29-1.9-4.68-2.33l-20.87-3.77c-2.7-.49-4.21.16-4.53,1.95-.12.65.01,1.87.39,3.67l-2.04-.37Z" />
    <path
        d="M793.62,434.34c.04.33.08.83.14,1.5.24,2.01.33,3.51.28,4.5-.16,3.37-1.21,6.13-3.16,8.29s-4.38,3.16-7.31,3.02c-3.81-.18-7.17-2.23-10.05-6.15-2.89-3.92-4.22-8.17-4.01-12.76.06-1.19.22-2.19.48-3.01.26-.82.9-2.34,1.92-4.56,1.11-2.36,1.83-4.05,2.15-5.09.33-1.04.52-2.27.59-3.71l.14-2.94,1.99.09-.4,8.46c1.47-.6,2.79-.86,3.98-.81,1.66.08,3.33.6,5.03,1.57,1.7.97,3.91,3.21,6.65,6.71,2.68,3.42,4.61,5.16,5.77,5.22.91.04,1.76-.51,2.53-1.67.8-1.13,1.76-3.14,2.87-6.05,1.61-4.19,3.16-7.25,4.64-9.17,1.48-1.92,3.37-2.83,5.66-2.72,4.15.2,7.56,3.02,10.23,8.46,2.67,5.44,3.84,11.5,3.53,18.16-.23,4.92-1.29,8.97-3.18,12.15s-4.24,4.7-7.06,4.57c-2.79-.13-5.2-2.08-7.23-5.85-2.02-3.77-3.5-8.79-4.42-15.06-.77.96-1.55,1.68-2.34,2.15-.79.48-1.6.69-2.44.65-1.13-.05-2.18-.49-3.14-1.31-.96-.82-2.24-2.36-3.85-4.63ZM771.87,435.55c-.13,2.79.76,5.01,2.68,6.65,1.92,1.64,4.26,2.53,7.02,2.66,2.79.13,5.21-.53,7.24-1.98,2.04-1.45,3.11-3.45,3.23-6,.12-2.46-.75-4.56-2.61-6.29-1.86-1.74-4.24-2.67-7.14-2.81-2.93-.14-5.37.54-7.33,2.04-1.95,1.5-2.99,3.41-3.1,5.73ZM806.59,434.95c1.17,5.73,2.6,10.07,4.28,13,1.68,2.93,3.6,4.45,5.76,4.55,1.94.09,3.75-.99,5.42-3.25,1.68-2.26,2.63-5.73,2.85-10.4.26-5.39-.57-9.68-2.47-12.87-1.9-3.19-4.17-4.85-6.8-4.98-1.44-.07-2.61.51-3.5,1.72-.89,1.22-2.09,3.73-3.61,7.54l-1.93,4.69Z" />
    <path
        d="M348.02,643.16l15.78-2.03-.26,1.25c-.68.05-1.34.32-1.99.83s-1.06,1.22-1.26,2.14l-6.21,29.46c-.31,1.49-.24,2.65.22,3.48s1.43,1.41,2.92,1.72l1.47.31-.3,1.45-15.94-3.36.3-1.45,1.49.31c2.69.57,4.31-.43,4.84-2.98l5.66-26.84c.37-1.75-.21-2.79-1.74-3.11-.7-.15-2.47-.04-5.3.33l.32-1.5Z" />
    <path
        d="M396.53,661.88c-2.02,1.82-4.05,3.15-6.1,3.99-2.05.84-4.11,1.19-6.18,1.05-3.45-.24-6.02-1.39-7.71-3.48-1.69-2.08-2.45-4.44-2.27-7.07.23-3.32,1.9-6.16,5.02-8.5,3.12-2.34,6.48-3.39,10.09-3.14,4.04.28,7.27,2.06,9.68,5.36,2.41,3.3,3.43,7.71,3.06,13.23-.29,4.29-1.38,8.16-3.27,11.62-1.89,3.46-4.27,6.16-7.15,8.09-2.88,1.94-6,2.79-9.34,2.56-2.54-.17-4.94-.86-7.19-2.07l.72-10.5,2.22.15c-.15,3.13.33,5.69,1.45,7.68,1.12,1.99,2.66,3.05,4.61,3.18,3.22.22,5.98-1.48,8.28-5.12s3.64-8.2,4.01-13.71c.05-.7.07-1.81.07-3.34ZM388.51,646.18c-2.48-.17-4.46.64-5.92,2.43-1.46,1.79-2.28,3.98-2.46,6.59-.19,2.71.39,4.95,1.72,6.72,1.33,1.77,3.1,2.73,5.29,2.88,2.17.15,4-.62,5.49-2.3s2.32-3.83,2.5-6.46c.2-2.89-.4-5.23-1.79-7-1.39-1.78-3-2.72-4.83-2.85Z" />
    <path
        d="M414.96,669.88c1.58-2.13,3.31-3.76,5.17-4.89,1.86-1.13,3.86-1.77,5.99-1.92,3.06-.21,5.71.42,7.95,1.89s3.48,3.81,3.7,7.01c.23,3.32-.98,6.39-3.64,9.2-2.66,2.81-5.95,4.36-9.87,4.63-4.43.31-7.97-1.17-10.62-4.43s-4.14-7.31-4.48-12.15c-.42-6.05.92-11.62,4.02-16.7,3.1-5.08,7.34-7.81,12.71-8.18,2.32-.16,4.76.17,7.34,1.01l.74,10.59-2.28.16c-.26-3.18-1.1-5.66-2.51-7.46-1.41-1.8-3.13-2.63-5.17-2.49s-3.85,1.22-5.47,3.22c-1.61,2.01-2.75,4.63-3.41,7.86s-.9,6.15-.72,8.75c.06.88.24,2.18.55,3.89ZM424.12,665.62c-2.38.17-4.2,1.17-5.45,3.02-1.25,1.85-1.79,4.07-1.61,6.65.18,2.67,1.04,4.83,2.55,6.5,1.52,1.67,3.36,2.43,5.54,2.27,2.2-.15,3.93-1.16,5.22-3.04,1.28-1.87,1.83-4.15,1.64-6.84-.19-2.75-1.04-4.9-2.55-6.46s-3.29-2.26-5.34-2.12Z" />
    <path
        d="M443.25,646.97c2.11-2.03,4.22-3.65,6.33-4.87,2.11-1.22,4.2-2.06,6.3-2.5,2.76-.58,5.17-.38,7.24.62,2.07,1,3.35,2.65,3.84,4.94.44,2.05.25,4.18-.54,6.37s-2.73,5.59-5.79,10.17l-10.14,15.39,17.02-3.61c1.75-.37,2.93-1.03,3.53-1.96s.87-2.19.81-3.75l1.45-.31.09,11.11-1.42.3-.08-.35c-.15-.69-.58-.96-1.3-.8l-23.57,5-.31-1.45,6.56-12.49c1.01-1.89,2.44-4.85,4.3-8.87s2.96-7.03,3.32-9.04c.35-2.01.4-3.64.13-4.88-.32-1.49-1.08-2.69-2.3-3.61-1.22-.92-2.65-1.2-4.3-.85-2.42.51-4.33,2.15-5.72,4.92s-1.88,5.86-1.45,9.28l-2.05.44-1.94-9.17Z" />
    <path
        d="M387.51,372.58c-.42-.26-.41-.59-.46-1.02-.27-2.32-.26-8.62,0-10.95.08-.72.21-1.47,1.04-1.62,1.9-.35,5.26.09,7.4.01,15.5-.53,32.39-.58,47.87.27,18.46,1.02,26.97,5.71,40.03,18.18,30.16,28.8,33.35,80.04,12.24,115.08-15.24,25.29-48.27,35.4-75.93,26.03-1.2-.41-3.15-1.6-4.15-1.76-1.75-.27-4.06.12-5.9,0-4.26-.28-8.74-.43-12.99-.9-1.13-.12-5.95-.86-6.65-1.33-.95-.64,1.63-2.92,2.02-3.59.89-1.54,1.68-6.64,1.01-8.3-.34-.84-2.44-2.47-3.18-3.32-3.69-4.27-7.46-8.25-11.23-12.41-5.21-5.75-9.24-12.23-13.59-18.62-.7-.13-.35.32-.45.73-.89,3.97-.39,14.75.74,18.78,1.88,6.7,15.81,14.31,22.16,16.25,1.49.46,3,.88,4.59.88.07.61,0,1.11-.23,1.69-.31.81-2.29,3.86-2.9,4.79s-1.68,2.97-2.89,2.96c-5.16,0-12.47-4.44-17.48-6.2-3.31-1.16-7.01-2.1-10.44-2.86-9.57-2.11-19.82-3.49-29.62-3.18l-.25-.33c.67-1.53,0-2.95-.05-4.4-.15-4.22.43-8.13.73-12.29,2.53-.38,4.79-.69,7.16-1.7,2.78-1.18,4.65-2.37,5.09-5.55.76-5.45.58-11.82.92-17.4.12-2,.36-4.07.59-6.06-2.1.09-2.63,3.47-2.35,5.16.14.83,1.02,1.38.74,1.93-6.41,7.15-12.71-4.88-15.24-9.9-1.03-.63-3.44.22-4.55.14-1.22-.08-3.31-1.58-4.63-.72-.3.19-.14,1.06-1,.71-.28-.11-2.96-3.52-3.32-4.07-2.91-4.45-3.88-11.55-.53-15.97,1.77-2.33,4.24-3.49,6.79-4.76-.63-7.73,8.45-7.43,13.87-6.79,33.58,3.97,46.12,53.79,71.45,72.17,21.68,15.73,44.9,12.79,64.05-5.23,13.72-12.92,14.66-44.52,12.67-62.02-.69-6.03-1.63-14.25-3-20.05-.13-.55-.35-1.24-.66-1.7-1.71,1.97-5.71,8.55-8.54,8.27-1.08-.11-1.84-.97-1.65-2.07h-.44c-.3.32-.65.55-1.03.75-7.77,4.02-15.97,6.64-24.53,3.24-1.7-.67-5.95-2.39-5.27-4.66.32-1.09,9.43-6.69,11.15-8.07.88-.7,4.75-4,5-4.75.08-.23.06-.46.04-.69-2.77-1.03-7.13.04-8.52-3.17-.24-1.56,2.83-3.81,3.79-4.97,2.2-2.66,4.83-6.59,3.02-10.1-.52-1.02-1.7-2.02-2.86-2.16-1.97-.24-7.55.56-9.67.98-14.98,2.95-14.66,19.62-15.32,31.96-1.18,22.23-1.35,44.6-2.04,66.81-.19,6.22-1.28,14.38-.89,20.37.19,2.89,1.97,4.48-2.06,2.95-7.68-2.91-11.22-6.25-16.85-11.82-.89-.88-5.22-4.63-5.47-5.17-.57-1.26.07-3.31.14-4.58,1.13-22,4.03-42.25,5.2-65.31.44-8.66.4-19.43-.16-27.49-.25-3.54-1.23-6.4-4.01-8.7-.39-.32-3.33-2.37-3.54-2.37h-5.02ZM390.61,362.97c-.19,1.41.13,3.13,0,4.58,5.19-.15,10.81-1.55,14.63,2.95,4.26,5.02,2.91,13.76,2.51,19.95-.51,7.69-1.54,15.37-2.06,23.06-1.62,23.91-1.46,47.87-2.97,71.82.13,1.01,1.32,1.93,2.08,2.65,3.06,2.91,6.69,5.41,10.49,7.24,1.3-2.27.59-5.03.73-7.55,1.27-22.61,2.32-45.08,3.28-67.65.41-9.72-.31-28.19,3.58-36.61,4.55-9.87,23.52-16.43,30.81-7.26,4.4,5.53,1.15,9.19-2.99,12.89-.2.17-.57-.02-.38.67,2.22.68,12.09-2.91,9.4,1.87-.9,1.6-2.65,3.25-3.73,4.84-1.38,2.03-2.39,4.07-3.65,6.1-.52.83-3.93,4.77-3.2,5.52,4.37.87,11.56-.14,14.93-3.24,1.23-1.13,3.16-4.67,4.5-4.99,1.02-.24.75.86,1.48,1.44.13.1,1.65.82,1.76.83l.39-.08c2.04-2.7,3.69-6.75,4.1-10.11.12-.97-.03-1.95.04-2.92.03-.44-.23-.86.44-.73,1.07,1.4,1.82,2.95,2.57,4.53,12.67,26.91,16.11,62.48-.11,88.65-11.1,17.92-40.57,28.03-60.52,22.22-12.76-3.72-24.59-15.81-32.16-26.36-11.67-16.25-26.66-46.26-46.98-52.02-4.89-1.39-10.06-1.92-15.14-1.86-1.32,1.36,5.71,5.11,6.5,5.91-1.93.73-3.61-.15-5.47-.29-5.2-.38-10,1.41-11.52,6.79-.32,1.13-.84,5.76-.31,6.52s2.28.02,2.97.04c3.29.1,6.33,4.65,9.46,2.6.96-.63,5.44-6.65,5.18-2.23-.09,1.49-1.19,2.49-1.42,3.62-.79,3.8,1.52,5.04,4.25,6.85l2.18-2.79c13.06-11.51,24.23-.2,31.99,10.58,13.78,19.14,24.25,38.28,46.32,49.42,21.35,10.78,53.47,7.19,69.74-11.24,11.77-13.33,22.86-38.24,22.79-56.14-.12-28.73-11.94-56.18-35.69-72.79-16.87-11.8-42.75-9.05-62.58-8.61-5.9.13-11.81.2-17.71.27-.13.04-.46.91-.48,1.05ZM332.39,494.63c10.76-.24,21.02.37,31.02,4.59,1.99.84,3.88,2.07,5.72,2.85,5.31,2.25,10.73,4.28,16.09,6.4.82.56,3.03-2.15,3.02-2.46-.2-.34-.44-.33-.74-.43-8.21-2.64-11.71-2.42-18.46-8.73-9.04-8.45-7.49-10.49-7.37-22.16.04-3.82,0-7.66-.07-11.48-3.11-3.71-6.02-7.39-10.43-9.66.07,6.9-1.43,13.7-1.92,20.54-.41,5.75,1.27,9.37-3.69,13.75-4.08,3.61-8.16,2.76-13.17,2.79v4ZM406.56,512.66l-4.72-2.66c-1.2,2.67,1.07,2.83,3.09,2.97.34.02,1.64.21,1.63-.3Z" />
    <path
        d="M384.11,372.87c-3.7.24-11.36-.02-13.55,3.44-1.52,2.41-1.9,10.12-2.11,13.25-1.11,16.4-.95,32.97-2.07,49.34-.06.8-.35,1.7-.44,2.51-2.91-4.65-7.35-8.06-11.38-11.67-1.27-1.13-2.4-2.61-3.7-3.69-1.11-.92-5.74-3.51-5.99-4.35-.1-.96-.11-1.95-.07-2.91.48-12.88,3.04-27.16,2.08-39.88-.47-6.16-2.99-6.18-8.57-6.36.09-2.01-.11-4.06-.01-6.07.04-.88.21-3.78.37-4.36.15-.54,2.38-3.4,3.04-3.46,1.76.21,3.87.52,5.61.59,11.4.46,22.88.37,34.29.02.82-.03,1.85-.53,2.6-.27,1.01.34.2,2.26.18,3.05-.12,3.6-.07,7.21-.28,10.8ZM381.45,362.53c-12.88-1.63-25.95.4-38.84-.56-.71.17-.53,4.41-.76,5.29,4.77-.23,12.65,2,13.76,7.37.52,2.49-.09,5.08-.18,7.54-.53,14.23-2.75,28.31-3.23,42.56l.27.61,10.8,9.89c.65-6.03.45-12.13.73-18.19.29-6.37.84-12.82,1.21-19.18.51-8.96-1.19-27.43,10.26-29.93,1.73-.38,3.76-.1,5.24-.37.33-.06.55-.15.74-.44v-4.58Z" />
    <path
        d="M805.29,362.01v2.61l-1.62,2.78c-7.36,5.62-15.96,16.45-25.59,17.76-1.37.19-2.65-.73-3.97-.93-1.8-.28-5.01,1.01-6.85,1.52-12.02,3.29-23.69,7.86-35.53,11.73-3.67,1.2-6.34,2.4-10.33,1.32-1.13-.31-1.35-.96-1.19-2.08.12-.84.57-2.1.66-2.92.35-3.2-2.13-9.62-4.08-12.23-.68-.91-3.6-2.94-3.75-3.42-.11-.37.25-.62.52-.78.93-.16,1.99-.54,2.9-.69,8.53-1.41,18.02-.94,26.74-1.62,6.95-.54,14.24-1.45,21.17-2.29,5.19-.63,6.71-1.97,11.13-4.19,6.52-3.26,13.53-6.68,20.32-9.34,1.45-.57,2.91-1.07,4.41-1.47,1.45.45,3,1.02,3.91,2.3.42.59.53,1.53,1.14,1.95Z" />
    <path
        d="M639.9,506.73c.7-.22,2.02,2.47,2.11,3.08.18,1.3-.27,2.26-.34,3.26-.69,9.23-2.05,19.22-3.96,28.31-1.45,6.87-4.04,13.66-4.83,20.59-.21,1.84-.15,3.46-.33,5.21-.07.7-.57,1.88-.67,2.59-.04.31-.01.64.05.95.36.88,1.07,1.52,1.74,2.17s.92.31,1.41,1.52c.99,2.43.28,6.8-1.56,8.75-.97,1.03-2.72.8-3.92,1.62-.65.44-1.75,1.9-1.91,2.65-.26,1.17-.16,5.14-.05,6.48.04.42.4.71.35,1.3-.07.76-.68,2.81-1.05,3.54-2.18,4.29-7.9,3.86-11.84,5.44-2.06-.56-4.54-.5-6.48-1.03-2.97-.82-.73-2.97.6-4.2.91-.84,2.35-1.75,3.28-2.59.29-.26,1.37-1.29,1.43-1.5.15-.52.08-2.25.04-2.91-.54-7.78,1.81-16.02,2.93-23.78,2.3-15.91,1.35-32.83-.98-48.58-.24-1.64-.86-3.61-.99-5.2-.15-1.85-.53-3.75,1.81-3.44,2.13.28,5.19,2.04,7.48,2.29,2.72.31,5.87-.06,8.42-1.05,3.04-1.18,4.73-3.59,7.25-5.47Z" />
    <path
        d="M702.95,323.23c-.41.39,1.23,1.61,1.47,1.95.33.49.58,1.04.49,1.63-.38-.12-.65.25-.85.29-2.08.36-4.3-1.69-6.15-1.92-4.12-.52-7.88,1.91-11.9,2.29-.61.48.07.57.49.64,1.73.29,4.55.8,6.14,1.37s2.11,1.59,1.84,3.21c-1.46.36-2.81-.52-4.07-.66-2.07-.23-4.21.12-6.19.34-1.19.13-3.62-.32-4.74-.81-1.05-.46-1.94-1.55-3.14-1.75-.93-.16-1.95.01-2.89-.06-7.91,2.63-15.92,5.87-24.11,7.51-6.25,1.25-12.63,1.29-18.86,2.66-.69.15-1.46.5-2.17.6-.19,1.35,1.11,2.72,2.11,3.59,3.23,2.82,7.78,4.39,12.07,3.91.64-.07,1.62-.58,2.27-.66,2.46-.3,5.01,1.32,3.11,3.76-.62.38-1.66.78-2.31.33-.47-.32-.69-1.66-1.77-1.82-1.81-.26-2.5,1.15-3.97,1.6-1.28.39-2.83.32-4.14,0-2.23-.55-9.88-4.73-11.13-6.47-.81-1.13-.58-2.28-2.56-1.91l-10.85,3.49c-2.34.44-4.71-2.53-5.51-4.5-.42-1.04-.43-2.07-.81-3.1.05-2.15.78-4.34,2.13-6.03,1.77-2.24,4.8-3.41,7.49-3.91,3.62-.67,7.46-.04,11.09-.65,5.03-.85,9.97-4.49,14.65-4.9,2.93-.26,6.52.12,9.46.33,8.79.62,18.07.81,26.67-1.03,2.49-.53,5.02-1.52,7.55-1.91,6.04-.93,13.19-.24,19.23.34,1.33.13,2.74-.4,3.75.81-.96,1.28-2.35,1.6-3.91,1.47Z" />
    <path
        d="M714.84,381.89c-.65-.84-2.93-3.13-3.9-3.27-1.03-.14-1.52.24-2.28.34-6.03.83-12.36,2.61-18.25,3.26-.68.07-1.43-.06-2.12,0-.19-.94.16-1.63.33-2.44.06-.27-.05-.61.04-.94,1.16-3.84,3.92-.52,6.32-.85.83-.11,1.59-.86,2.08-1.5.5-1.71-.81-7.07-1.33-9.04-.58-2.19-1.48-5.02-2.37-7.08-1.05-2.42-2.7-2.83-5.23-2.6-.67.06-1.28.58-2.25.31-.51-.14-1.71-3.7-2.31-4.54-.81-1.14-2.27-2.23-3.63-2.56-.54-.13-1.96-.34-2.55-.39-2.81-.21-6.06.3-8.81.67-16.33,2.22-32.54,7.53-48.3,12.32-4.75,1.44-12.28,2.74-16.07,5.77-1.09.87-2.02,2.19-3.12,3.08-1.41-.61-3.94-1.5-4.35-3.13-.13-.52,1.03-3.34,1.22-4.25.12-.57-.11-1.19.38-1.58v-6.68c.8-.26,1.53.28,2.11.33,3.06.28,6.54-.87,8.82-2.93.66-.6,3.36-3.95,2.76-4.57-.8.16-1.19.44-2.07.28-3.34-.63-6.16-3.58-7.32-6.69-1.1-2.96-.8-4.64.63-7.39,2.79-5.36,8.52-8.85,14.45-9.34,1.53-.13,3.05.27,4.53-.36.69-.33,1.1-1.96,1.16-2.71-1.62-1.76-4.16-1.3-5.69-3.45-1.64-2.32-2.42-5.91-4.4-8.15.56-.45,4.35,1.17,5.37,1.31.62.08,1.35-.09,1.97-.01,3.86.51,7.34,4.68,10.79,6.48,3.23,1.68,7.1,2.36,10.72,2.01,1.53-.15,2.79-.91,4.57-.67.78.11,1.29.92,2.25.64.38-.11,2.33-2.66,2.43-3.11.25-1.06-.23-1.37-1.16-1.71-4.19-1.54-7.32,2.01-11.04,1.58-2.01-.23-5.92-2.25-7.77-3.31-.42-.24-2.48-1.5-2.49-1.75.36-.53.6-.45,1.14-.49,2.54-.2,5.01-.2,7.51-.64,3.85-.68,6.65-2.32,10.76-1.97,1.2.1.96.17,2.27,0,.51-.07,1.02.06,1.59-.04,1.51-.27,5.82-3.21,6.58-4.5.22-.38.27-1.04.5-1.48l-2.14-3.42c-1.55,1.51-2.06,3.38-4.29,4.19-2.05.75-4.4.14-6.47.37-3.33.37-7.16,2.13-11.08,2.61-2.31.28-3.84.64-6.18.33-.51-.07-1.05.08-1.59-.03-1.48-.31-3.41-2.89-4.6-3.88-1.63-1.36-4.44-2.86-6.52-3.26-1.99-.38-3.87-.17-5.88,0-.36.03-.64.35-.97.35-.4,0-.69-.45-1.13-.35-.29-.89.27-1.78.33-2.43.18-2.21-.24-4.72-1.05-6.79-.43-1.11-1.21-2.05-1.57-3.16-.28.01-.5-.17-.64.18-.33.78-.48,1.69-.81,2.44-1.94,4.44-4.93,7.92-8.49,11.07-.37.32-.54.78-1.14.65-.25-.23,2.48-3.5,2.77-3.91,4.03-5.85,7.28-12.61,8.32-19.71.53-3.62.32-6.86-1.13-10.28-.55-1.29-1.34-2.7-2.46-3.57h-1.63l-3.58,2.12c-1.72,1.91-3.82,3.36-5.72,5.04-1.28,1.13-3.93,4.36-5.52,4.58-1.39.19-3.17-.2-4.58-.02-2.32.3-8.95,4.97-10.42,6.85-1.13,1.44-1.28,2.72-1.95,4.25-.91,2.1-2.87,3.65-4.96,4.49-1.48.6-3.09.17-2.66,2.46.23,1.24.9,1.27.12,2.82-.36.72-1.18.97-.34,1.96.51.6,1.71.33,1.48,1.29-.98.04-2.03.32-2.6,1.16-.1.36.52.92.6,1.32.59,2.7-1.86,4.43-1.55,7.09.25.52.47.98.94,1.34,1.55,1.2,4.56,2.11,6.19,3.26.3.22,1.64,1.51,1.8,1.78.26.42.22,2.17.16,2.79-.16,1.75-.91,3.82-1.26,5.59-.52,2.66-.85,5.36-1.68,7.93-1.37.04-.8-1.09-.97-1.8-.68-2.89-3.76-7.91-6.52-9.13-.44-.19-2.45-.82-2.78-.82-.79,0-2.87.9-3.91,1-1.97.19-4-.08-5.87-.67-1.35.16-2.8.82-3.59,1.97-.89,1.31-.72,2.92-1.15,4.4-.09.3.23.67-.47.48-1.63-.43-4.92-3.13-6.57-4.18-7.32-4.65-14.45-9.39-21.63-14.22-4.29-2.88-8.11-4.36-12.5-6.73-2.84-1.53-5.42-3.56-8.24-5.13-10.05-5.6-19.1-7.85-30.59-6.56-2.11.24-6.82-.47-9.13-.66-.8-.07-1.65.06-2.45,0,.96,1.73,2.79,2.15,4.56,2.61.09.89-.03.51-.49.65-.96.28-1.48.73-2.12,1.47l.84.78c3.87.34,8.23-.35,12.04.02.32.03.61.26.97.33.68.14,1.07-.02,1.8.48.45.31.17.57-.05.94-.74,1.25-3.28,3.52-2.87,4.91.05.16.98,1.1,1.14,1.14,1.24.36,1.61-.86,2.42-1.44,2.4-1.71,4.13-1.18,6.69-1.46,2.05-.23,3.89-1.76,6.14-1.27.85.18,3.98,2.03,4.89,2.61,5.32,3.39,9.78,8.87,14.88,12.5,2.01,1.43,3.46,1.69,5.55,2.6,3.64,1.58,5.87,5.66,8.45,8.49,3.9,4.26,8.64,7.81,13.38,11.07,2.79,1.93,10.57,6.07,12.01,8.52,1.13,1.91,1.01,5.48,2.97,6.8.48.32,1.85.75,2.44.82,1.13.14,3.05-1.09,4.08.16l-1.96,7.48c-.36,3.87,2.37,6.48,4.2,9.5,1.44,2.38,2.79,4.84,4.13,7.28l8.63,20.87c-.9.27-1.76-.26-2.44-.33-4.94-.49-11.34,3.44-15.48,6.04-3.15,1.98-6.22,4.2-9.11,6.53l2.25,13.35c2.8,13.94,1.33,28.44-1.29,42.37-.22,1.16-2.06,7.91-1.64,8.3.37-.01.72-.01,1.08.06,2.99.59,6.44.7,9.5.93,1.01.08,2.08-.07,3.1,0l-.48,4.57c-.65,1.3-5.71,1.06-7.19.97-2.12-.12-4.37-.7-6.5-.99-1.74-.24-1.25.77-1.8,1.96l5.7.98,11.25.33,1.31,4.39c-.25.32-.39.45-.81.51-1,.14-2.85.05-3.93,0-4.35-.22-8.74-1.11-13.03-1.64-.56-.07-1.21.05-1.79.01l-.66,2.6c.37.04.79-.07,1.15,0,3.8.68,7.21,1.38,11.08,1.63.36.02.64.35.97.35s.62-.33.97-.35c2.32-.15,4.32-.2,6.48-1.34.28-.15.88-.68,1.03-.92.47-.76-.09-1.19-.18-1.8-.37-2.63,1.86-3.36,4.09-3.11.55.06,1.42.5,2,.6,3.49.65,9.42,2.34,12.66,2.02,10.25-1.02,20.43-2.19,30.58-4.62,1.03-.25,6.22-2.11,6.73-1.57l.99,5.04c.64,4.74.28,10.24,2.65,14.63.44.82,2.41,2.91,2.53,3.33.14.49-.06,1.1.02,1.61.25,1.58.78,2.89,2.28,3.59,6.14,2.85,12.45,3.06,17.93-1.32.74-.59,3.39-3.21,3.55-3.95.41-1.9-.46-5.45-1-7.39-.52-1.89-1.43-3.72-1.84-5.65-.29-1.36-.83-4.59-.72-5.82.34-3.68,1.82-7.12,2.3-10.74.22-1.64-.22-2.46.69-4.2,1.19-2.26,3.59-2.67,5.62-3.84,4.32-2.47,11.01-8.08,14.06-12.02,2.61-3.38,3.59-8.36,7.98-10.27,2.76-1.21,4.9-1.78,7.63-3.45,4.9-3.01,11.25-7.28,11.95-13.48.29-2.57-.36-4.47-.66-6.84-.13-1.05.29-1.6.34-2.28.12-1.6-.24-2.86.67-4.38.65-.05,1.13-.6,1.76-.69,1.41-.19,2.76.42,4.08-.48,1.52-1.03,1.08-2.75,1.3-4.24.05-.35.29-.62.34-.96.12-.89.03-1.84.33-2.76,2.17-.64,4.44-1.04,6.61-1.7,4.6-1.41,8.93-3.4,13.74-4.18.59-.1,1.28.1,1.92-.04.99-.21,1.59-1.21,1.79-2.13.96-4.6-.44-10.99-3.38-14.78ZM685.68,359.57c.21-.74,2.99-1,3.71-.79,1.15.33,2.7,3.91,3.07,5.08.98,3.13,2.02,7.83,2.33,11.03.05.48.09.71.34,1.13-1.23.42-2.21-1.43-2.8-1.6-1.03-.3-2.35.51-3.06-.87-.07-.26.39-.7.33-1.27-.23-2.5-1.17-5.61-2.13-8-.44-1.08-2.08-3.71-1.8-4.71ZM683.54,362.34c1.63,2.7,1.8,5.65,2.12,8.63.06.59.66,1.02.18,1.8-.72,1.16-2.62,1.21-3.9,1.27-1.27-.95-.67-2.45-.83-3.73-.31-2.53-1.04-5.52-2.33-7.77-.32-.55-.82-1.2-1.26-1.67,0-.17.94-.72,1.18-.77,2.16-.46,3.76.45,4.84,2.25ZM682.42,407.14c.07.6.16,2.25-.51,2.44l-5.83-.67c-1.64-1.04-.52-1.71-.24-2.78,2.19-8.14-6.17-18.23-2.84-27.93.41-1.21,1.79-3.48,3.09-3.76.72-.16,3.5,0,3.71.78-.36,1.02-.94,1.94-1.24,2.99-3.17,11.05,2.72,18.84,3.86,28.94ZM678.63,351.61c.19.06,1.47,1.34,1.66,1.6.38.53,1.95,3.87,2.08,4.44.11.46.03.95.04,1.42-1.16.35-1.91.07-3.07-.02l-.36-.29c-.7-2.01-2.28-4.27-2.93-6.19-.48-1.4,1.71-.96,2.58-.95ZM671.5,351.9c1.04.14,1.56,1.02,2.07,1.85.45.74,2.1,4.17,2.28,4.89.09.36.03.74.04,1.1l-3.92.17c-.73-.37-1.08-2.58-1.44-3.44-.53-1.25-1.28-2.41-1.97-3.57-.59-1.29,2.16-1.1,2.94-.99ZM612.34,305.3c2.36-.11,4.13-.12,6.18,1.15.52.32,1.41.72,1.31,1.46-2.5.18-4.84-.89-7.07-1.91-.41-.19-.55.08-.43-.7ZM588.89,320.64c1.52-.84,2.91.64,4.43.91.76.13,2.16.33,2.88.39.58.05.87-.31,1.3-.35,1.23-.13,1.82.05,3.11-.47,3.74-1.51,4.82-5.27,7-8.32,1.58,1.01,3.04,2.17,4.03,3.79.38.62,1.5,2.98,1.34,3.54-.03.1-.39.44-.51.48l-4.88.67c-2.91.83-5.89,1.47-8.64,2.77-3.32,1.57-6.19,3.99-8.95,6.37-.37.11-.62-.25-.78-.52-1.39-2.28-1.33-6.8-.34-9.23ZM554.52,470.58c.55-.11,1.09.04,1.59-.04,7.68-1.11,12.86,2.31,19.87,2.93,6.94.61,19.88-3.53,27-5.61,13.59-3.96,32.01-10.54,40.47-22.43,1.59-2.23,2.85-4.63,4.57-6.84,1.83-2.35,4.36-5.52,7.22-6.47,1.13-.38,2.6-.43,3.8-.76,3.65-1.01,6.47-2.63,8.33-6.01,2.23-4.05,2.07-10.09,2.97-14.63.12-.61.61-2.6,1.16-2.75.87,0,3.51,1.36,3.72,2.14-.31,1.18-1.04,2.69-.98,3.89.1,1.91.86,4.27,1,6.18.48,6.45-1.88,11.26-7.82,14.03-5.99,2.8-11.67,1.53-15.49,8.31-.84,1.49-1.31,3.18-2.17,4.67-6.28,10.89-19.09,14.75-29.95,19.26-7.18,2.98-13.84,6.14-21.4,8.26-9.82,2.76-19.72,4.97-29.87,2.94-6.39-1.28-8.9-2.19-15.69-1.57-.69.06-1.43-.05-2.12,0,.64-1.62,1.92-5.11,3.79-5.5ZM679.96,434.04c-4.12,4.92-11.24,6.83-16.88,9.19-3.24,1.36-3.46,3.57-5.16,6.25-6.54,10.35-18.1,17.82-29.28,22.54-6.22,2.63-13.7,5.51-20.12,7.59-3.21,1.04-5.88,1.42-9.07,2.01-12.52,2.3-28.31,5.59-40.58.83-1.87-.72-2.59-1.63-5-1.11-1.06.23-1.89,1.6-3.14,1.26-.3-1.49.43-2.6,1.63-3.42.82-.56,3.74-1.38,4.72-1.47,4.79-.47,7.67,1.25,12.06,1.97,12.09,1.98,21.74-.86,33.31-3.86,3.7-.96,5.46-1.78,8.9-3.16,10.35-4.15,22.66-8.04,31.62-14.66,2.72-2.01,5.86-5.11,7.65-7.99,1.22-1.95,1.93-4.45,3.27-6.18,5.87-7.57,19.19-6.37,22.82-15.64,1.06-2.7.92-6.08.81-8.98-.01-.34-.32-.62-.34-.97-.09-1.89-.29-4.5.82-6.03,1.19-1.63,4.2-2.41,5.68-.8.02.32.06.65.03.97-.09.75-.73,2.26-.68,2.93.03.35.32.62.35.97.6,6.64,1.13,12.31-3.43,17.77ZM690.55,407.14c-.11.89-.17,4.12-1.15,4.4l-4.69-.99s-.31-.79-.32-.84c-.06-.3.3-.59.31-.93.19-5.78-1.06-7.92-2.55-13.1-1.91-6.59-2.81-12.62.96-18.8.82-1.34,1.44-1.6,2.72-2.43l2.44,1.1-1.3,4.54c-.1,4.3-.02,8.52,1.04,12.67,1.56,6.16,3.4,7.34,2.55,14.39Z" />
    <path
        d="M40.69,363.1c.15.14-.56,1.64-.62,2.14-.39,3.22,1.61,6.83,4.38,8.28.76.94-3.19.71-4.06.15-.13-.08-1.73-2.03-1.92-2.31-1.28-1.92-1.4-3.43-.44-5.54.25-.56,1.93-3.38,2.66-2.71Z" />
    <path
        d="M213.37,335.66c-.68-10.4-13.43-9.81-20.39-11.91-6.63-2-11.59-6.84-18.82-7.58-7.2-.74-14.28,1.83-21.5,1.29-5.93-.44-10.64-2.8-16.14-4.07-3.47-.8-5.73-.46-8.96-.82-2.47-.27-5.78-1.3-8.15-1.32-1.23-.01-9.68,2.47-10.58,3.13-2.61,1.94,2.2,1.72,3.57,1.45.27-.05.75-.56,1.3-.32,0,.38-.4.49-.65.65-1.24.81-3.17,1.03-3.26,2.93,2.43,1.38,4.43-.49,6.89-1.08,4.96-1.19,9.09.74,13.96,1.42-.31.56-1.68,1.01-2.26,1.15-1.62.4-11.38.75-9.17,4.16.16.24.39.34.65.41,3.53-.31,7.09-.18,10.63-.2,4.86-.03,4.11-.4,8.3-1.77,2.92-.96,7.18.62,10.09,1.64,9.5,3.34,16.62,6.83,26.94,8.59,3.62.62,7.8.04,10.88.85,4.55,1.2,9.38,4.3,13.94,5.94,1.69.61,8.24,2.79,9.53,2.2,1.93-.89,3.33-4.69,3.19-6.74Z" />
    <path
        d="M190.31,581.3c-.14-5.08-.24-10.12-.98-15.15-1.91-.35-1.93.73-2.81,1.26-4.96,3.03-8.6,2.14-12.83-1.59-.27.99-1.15,2.16-1.95,2.78-.78.6-1.75.73-2.26,1.33-1.78,2.16-1.43,7.85-.18,10.21,1.73,3.25,4.14,2.82,6.35,5.06,3.76,3.81,1.2,12.87,1.7,17.86,2.19,5.98,9.54,2.25,11.26-2.28,2.14-5.66,1.87-13.53,1.71-19.48ZM182.32,604.26c-.55,0-1.9-.88-2.23-1.37-1.15-1.68-.03-6.16-.22-8.55-.3-3.92-1.14-8.46-3.91-11.41-3-3.2-5.91-2.42-5.49-8.11.05-.73.9-4.83,1.28-5.08,1.51-.97,1.03,1.54,1.1,1.95.63,3.88,3.79,8.73,5.46,12.14,1.41,2.88,2.78,7.5,4.98,9.69,2.13,2.14,2.21.76,4.41-.34.73,2.45-2.88,11.08-5.38,11.06Z" />
    <path
        d="M41.35,359.99c.22-.93-5.1-4.93-6.09-5.63-5.96-4.22-16.39-9.47-23.74-9.83-1.65-.08-3.04,0-4.25,1.28-.57.6-2.24,3.55-2.5,4.35-.42,1.3-.11,1.73.59,2.82,2.88,4.49,8.24,9.07,12.56,12.21,5.83,4.23,12.83,8.14,20.17,8.34-4.61-5.43-1.69-9.98,3.26-13.53ZM28.21,352.61c-3.63-.83-5.21-2.8-8.51.75-2.95,3.17-2.98,6.15.13,9.09.4.38,1.12.67,1.3,1.3-.82.23-1.22-.71-1.63-.97-2.47-1.58-10.1-7.65-11.35-9.99-1.3-2.44.22-6.15,3.07-6.28,2.23-.1,6.86,1.77,9.25,2.44,2.51.71,4.7.8,7.28,2.18.76.41,2.08,1.86.47,1.49Z" />
    <path d="M238.22,273.47c-.51.55-2.11.54-2.61,0h2.61Z" />
    <path
        d="M366.95,293.6c-8.54.01-16.78-.6-25.14-1.85-1.86.37-3.66.97-5.4,1.78-10.97,4.84-22.17,10.19-32.65,16.13-8.8,7.25-18.69,12.66-28.88,17.84-1.23-5.35-3.13-8.05-8.76-4.8-3.49-2.87-5.74-.66-6.62,3.1l-.78.15c-2.36-1.64-4.06,1.1-4.52,3.23,1,2.78-2.06,3.99-2.14.41-.07-3.79-.48-7.56-1.05-11.34-.91-4.19,1.36-5.56,4.78-6.97,4.17-2.13,3.03-6.05,1.41-9.53,1.61-1.35,1.35-2.61-.6-3.45,1.62-1.3,1.02-2.63.17-4.13,1.28-1.3,2.7-3.07.62-4.34l-4.74-2.39c-.94-.42-1.62-1.11-2.03-2.05-.86-3.62-2.61-5.7-5.75-7.58-1.1-3.25-3.22-3.92-6.33-4.35h-.33c-.84.28-1.77.28-2.61,0h-1.3c-1.6.45-3.31.6-4.89,0h-.98c-1.74,1.38-4.21,1.04-6.28,1.7-8.69,2.78-14.05,14.04-11.74,22.68.41,1.54,1.92,4.38,2.01,5.84.03.6-1.02.75-1.37,1.77-.8,2.36.31,4.37,1.36,6.36,1.34,2.55,2.4,3.94,4.94,5.32.33.18.84.6.98.65,2.44.97,6.08,1.02,8.44-.2,1.06-.55,2.58-2.57,3.45-2.42.27.05.82,2.33.83,2.79.06,2.09-1.37,5.14-2.97,6.48-3.67,3.08-2.9-1.19-5.2-2.57-.93-.56-2.43-.47-2.93-.99-.66-.69-.08-1.88-1.62-2.78-.34-.2-1.18-.49-1.63-.65-1.96-.72-.9-.44-2.11-1.31-1.16-.84-4.26-2.72-5.58-2.9-3.14-.42-3.94,1.03-6.24,1.53-1.3.28-3.14-.15-4.32.9-1.42,1.26-.18,2.98-.34,4.2-.08.65-.87,1.26-.84,1.99.08,2.42,2.49,1.61,3.94,1.8,6.28.82,12.7,4.16,13.78,10.99.43,2.73-.91,7.37-3.39,8.84-2.25,1.33-6.58-.29-4.85,3.97.78,1.91,4.08,1.51,4.41,1.95.08.11-.42,1.69-.25,2.69.15.92,1.24,2.81,2.17,3.01.71.15,2.61-.64,3.15.15.07,1.58,1.03,3.05,1.38,4.49.18.73-.03,1.49.1,2.18.33,1.79,1.37,2.67.25,4.54-1.78,2.99-2.24.88-3.46-.12-7.48-6.1-20.82-7.88-30.23-8.79-18.49-1.79-37.23-1.78-55.75-1.62-3.34.03-6.69.17-10.11.3-.49.02-3.23.38-3.42.49-.55.34.56,2.07.85,2.43.78.93,2.47,1.5,2.61,2.94.12,1.27-3.46,1.22-3.41,3.78.04,2.18,2.43.66,3.02,2.84.48,1.8-2.6,3.53-.12,5.46-4.79.29-8.46-3.28-12.46-4.65-4.53-1.55-12.72-1.88-17.68-2.2-11.78-.77-27.32-.89-38.64-3.73-3.23-.81-7.03-4.07-7.47,1.34-.3,3.74,1.78,5.85,4.22,8.09,2.42,2.22,2.06,1.4,4.78,2.72,10.08,4.89,23.5,11.15,34.26,13.98,7.17,1.89,13.82,1.35,20.85,3.27,3.93,1.07,11.69,4.84,15.23,4.67.43-.02.75-.2,1.14-.34.12.83-.26,2.22.17,2.93.58.95,4.05,2.14,4.35,3.17.22.73-.44,3.44-.28,4.82.43,3.74,3.42,3.02,3.99,5.14.46,1.73-1.05,4.14-.16,6.34.39.97,2.17,2.07,2.83,3.04.6.89.74,1.82,1.21,2.7.25.48,1.15,1.05,1.17,1.35.07.8-1.94,2.41-.72,4.73.6,1.14,5.4,1.26,5.96,3.17.51,1.74-.48,5.48.7,7.13,1.01,1.41,6.35.82,7.76,4.62.58,1.56.6,5.14,1.48,6.18.99,1.17,4.42.82,5.56,1.7.2.16,1.09,2.64,1.85,3.45,1.2,1.29,3.05,1.35,3.74,2.13.47.53.64,1.77,1.08,2.51,2.04,3.39,5.28,1.48,7.86,3.88l2.27,12.39c.71,6.78-3.84,12.69-5.35,19.01-1.9,7.91-4.27,21.39-1.61,29.02,3.78,10.84,9.41,21.23,8.67,33.37.89,2.11-.73,4.46,1.37,5.81,2.27,1.46,5.14,1.54,7.62.65.8-.29,1.61-.97,2.39-1.22.6-.19,2.65.09,2.88-.67.38-1.29-1.36-8.33-1.58-10.4-1.21-11.53-1.11-24.28-.34-35.86.2-3.06,1.05-11.28,2.13-13.84.59-1.38,2.47-2.55,3.42-3.76,3.05-3.91,4.1-11.14,5.87-15.97.33-.89,2.02-5.41,2.42-5.73,1.47-1.17,2.17.98,3.12,1.83,1.15,1.03,3.19,1.8,4.73,1.81,2.02,0,3.53-1.53,5.39.12,2.11,1.88,3,3.23,6.33,3.45,1.43.1,3.57-.68,4.2-.58.96.16,3.19,2.73,5.34,3.09,2.95.5,4.3-.91,6.11-.92,1.33,0,4,1.89,6.21,1.98,1.64.07,4.2-.82,5.5-.66.79.1,2.5,1.77,3.65,2.24,1.94.79,4.54,1,6.58.47,1.61-.42,2.67-2.28,4.16-2.37,1.85-.12,3.65,2.01,6.75,1.21,1.35-.35,2.22-2.29,2.74-2.48,1.25-.44,4.13.79,5.77.23.84-.29.37-1.99,1.68-2.24,2.56-.49,3.58,1.69,6.66-.51.8-.57,1.16-1.47,1.99-1.99-1.29-5.88-2.8-11.7-3.82-17.64-1.82-10.64-2.93-21.39-1.96-32.12.12-1.27.82-3.15.88-4.61.03-.7.07-1.38-.25-2.03-7.74-9.11-15.92-18.84-25.92-25.58-2.82-1.9-5.77-4.21-9.36-3.19-.15-.56.23-.65.49-.98,3.43-4.45,6.88-8.88,9.63-13.84,2.41-4.36,4.01-9.48,6.45-13.75,2.08-3.65,5.83-6.47,5.61-11.03-.09-1.97-1.03-3.57-1.64-5.37,1.08-.16,3.6.42,4.27-.46.48-.62.14-1.5.45-2.16.42-.88,3.14-1.3,1.96-3.59-.34-.67-2.07-.56-1.47-1.29.37-.45,5.66-1.97,6.83-2.46,6.58-2.75,13.47-7.78,18.92-12.37,4.65-3.91,9.92-10.32,15.41-12.62,1.61-.67,3.36-.97,5.07-1.77,6.83-3.18,9.84-8.85,15.19-13.49.49-.43,2.75-2.29,3.12-2.44,1.04-.42,3.84,1.7,5.05,2.11,5.3,1.79,7.92-.27,13.08,3.88,2.47,1.98,3.85-2.16.87-4.14-1.4-.93-4.02-1.06-4.02-3.31,4.06-.3,8.09-2.62,12.18-.61,1.75.86,2.38,2.72,4.77,1.58-.29-1.24-.87-2.25-1.63-3.25,2.02.06,4.02,1.74,5.87.32v-.65c-.86-2.26-4.57-2.97-6.86-3.34ZM52.52,370.85c-.17.56-1.51,3.43-1.79,3.59-1.41.8-1.8-.8-2.07-.87-.35-.08-1.17.48-1.44.28-1.02-.73.72-2.87,1.03-3.68.72-1.95.64-3.71.59-5.76,3.33.4.61,3.56,1.31,5.86,1.41-.86.89-3.89,1.79-4.89.57-.63,1.29,0,1.41.55.14.66-.56,4.04-.83,4.91ZM167.82,358.54c.74-.07,2.12-.2,2.61.33,2.06-.04,4.57-.25,6.52.33,6.98-.06,17.28,1.4,23.79,3.59.48.16.96.21,1.3.33.42.14.88.19,1.3.33.51.16,1.88.42,1.3.98-.4.38-1.64-.57-1.95-.65-.38-.1-.94-.25-1.3-.33-.53-.11-1.1-.22-1.63-.33-6.89-1.37-14.52-2.44-21.51-3.26-.11,0-.22-.02-.34-.02-.79,0-1.78.26-2.27-.31-.43-.04-.87.03-1.3,0-1.36-.08-2.98,0-4.24-.65-.91.01-1.92.4-3.14.35-.63-.03-.88-.31-1.1-.35-.39-.07-.89.05-1.3,0v-.32s3.26,0,3.26,0ZM123.81,400.12c-1.56-.41-.71-2.44-.32-3.62l17.52-6.6c14-2.65,27.71-6.96,41.75-9.75,5.76-1.15,14.57-2.9,20.27-2.71.2-.04.36-.05.51-.04l3.4-.28c-.44.97-2.13.52-2.93.65-13.4,2.06-27.37,5.27-40.42,8.96-13.48,3.82-26.45,9.11-39.77,13.4ZM207.25,394.06c.48.47-.84,1.03-1.3,1.3-.52.31-.96.45-1.3.65-.54,1.05-.41.59-1.3,1.3-.43.35-.87.65-1.3.98-.24.18-.52.23-.65.33-.91.66-1.55,1.28-2.61,1.96-.2.13-.45.2-.65.33-.36.21-1.27,1.32-1.63.98-.55-.53,1.04-1.11,1.3-1.3.24-.17.53-.24.65-.33.91-.69,1.62-1.3,2.61-1.96.2-.13.45-.2.65-.33.36-.23.74-.63,1.3-.98.56-.35,1.06-.65,1.63-.98.61-1.18.43-.54.98-.98.25-.2,1.19-1.4,1.63-.98ZM142.04,433.67c-1.03.36-2.07-1.27-3.24-1.15-.13-.65.31-.76.75-1.04,1.35-.88,3.95-1.53,5.56-2.26,8.87-4.03,16.87-8.85,25.41-13.37,6.29-3.33,12.66-6,18.8-9.72.5-.3,1.04-.49,1.3-.65.1-.06.32-.43.65-.65.33-.22.64-.43.98-.65.17-.11.86-.79.97-.65.82.96-.91.6-.97.65-.05.04,0,.49-.65.98-.31.23-.67.42-.98.65-.35.26-.69.44-.98.65-2.79,2.07-5.51,4.24-8.58,5.92l-39.03,21.3ZM187.7,561.58c-1.97.62-4.17-.3-5.92-.14-.86.08-1.69.71-2.33.7-1.64,0-6.06-1.71-2.42-2.92,1.23-.4,8.22.17,9.17.76.3.19.38.65.62.85.34.29,1.11-.28.87.74ZM187.05,558.65l-11.08-.49c2.27-1.72,4.81-1.03,7.33-.88,1.12.06,3.9-.84,3.75,1.37ZM208.38,404.8c-14.33,15.05-26.86,25.57-44.7,36.45-3.42,2.09-10.22,4.97-12.39,7.8-1.21,1.58-.99-2.2-1.29-3.03,18.97-11.07,36.99-23.79,53.83-37.96,1.45-1.22,2.8-2.68,4.25-3.89.31-.26,2.21-1.87,2.43-1.64.52.54-1.81,1.93-2.13,2.27ZM211.49,368.31c-.1.13-1.08-.81-1.3-.98-.29-.22-.55-.59-.65-.65-.44-.29-1.4-.68-1.96-.98-.64-.35-1.29-.55-1.96-.82,0-1.26,1.72.37,1.96.49.75.37,1.12.43,1.96.98.36.23.6.33.98.65.44.38,1.15.58.97,1.3ZM280.59,431.87l-1.3-1.3c.65-.08,1.37.6,1.3,1.3ZM279.62,485.32c-.1.13-1.62.23-1.96.49-.53.4-.12,1.59-.97,1.8-.16-2.65-.58-5.29-1.08-7.89-3.66-19.22-11.71-38.99-20.49-56.43-3.77-7.5-7.26-11.41-12.18-17.81-.25-.33-.63-.41-.49-.98,1.24-1.09,5.01,3.42,5.86,4.41,4.06,4.71,7.99,11.45,11.15,16.88,10.49,18.06,17.16,36.57,19.53,57.39.06.52.76,1.96.63,2.14ZM256.95,407.44c6.99,5.36,12.82,11.2,18.43,17.91.65.78,2.11,1.68,2.28,2.93-1.07-.59-1.78-1.81-2.6-2.61-7.58-7.32-14.77-15.02-23.82-20.67-1.81-1.13-4.63-1.68-6.17-3.45,4.45.42,8.41,3.21,11.88,5.88Z" />
    <path
        d="M520.56,364.65c-46.35-88.1-160.44-94.04-213.09-8.59-37.75,61.26-32.54,143.43,21.52,193.2,57.46,52.9,135.51,41.4,181.44-19.52,35.11-46.57,36.95-114.11,10.13-165.09ZM526.05,445.08c-4.47-3.65-2.34-11.62,3.25-12.63,4.41-.79,8.65,1.96,8.98,6.53.51,7.01-6.88,10.46-12.23,6.1ZM538.06,429.7v5.03c-2.86-1.85-1.68-5.9-.95-8.64l.95,3.6ZM530.99,430.29c-10.98,1.58-11.11-13.62-2.15-14.66,9.01-1.05,11.74,13.28,2.15,14.66ZM535.43,410.73c.58,2.52.7,5.15,1.19,7.69-3.83-2.47-1.96-5.35-1.91-9.12.72-.12.59.9.72,1.43ZM531.51,412.58c-10.67,7.24-17.47-12.18-5.06-13.23,7.29-.62,11.07,9.15,5.06,13.23ZM437.37,560.36c-47.88,14.33-95.28-11.71-119.16-52.89-28.2-48.64-21.78-117.91,16.31-159.38,37.35-40.66,105.16-45.66,146.73-8.22,68.7,61.85,47.87,193.03-43.89,220.5ZM509.75,497.13l3.35-6.71c.59,3.29.46,6.09-3.35,6.71ZM506.38,504.82l-.19,4.83-3.16.93c-.27-.27,2.54-5.39,3.35-5.76ZM499.09,521.95l1.54,2.06c-2.45-.32-4.21-1.37-6.72-.48l3.85-5.75,1.34,4.17ZM490.07,536.97c-2.45-.84-4.47-1.86-7.2-1.44,1.47-1.79,3.13-3.4,4.66-5.14.29-.32-.03-.92,1.1-.61-.95,2.79.11,4.78,1.44,7.19ZM477.59,548.01c-2.23-.92-4.17-2.39-6.72-2.4l6-5.27c-.02,2.68-.83,5.16.72,7.67ZM364.79,554.26l8.16,3.36-6.23,3.35c.29-2.46-.79-4.64-1.92-6.72ZM352.31,546.58l6.72,4.8c-2.51-.51-4.04.79-6.24,1.44.83-2.32-.23-3.98-.48-6.24ZM340.31,537.46l6.24,5.28c-2.49-.18-4.44-.02-6.72.96.65-2.03.5-4.13.48-6.24ZM329.75,526.42c1.09,1.04,2.7,2.45,3.67,3.53.73.82,1.36,1.87,2.09,2.71l-5.69-.54c-1-1.8.29-3.72-.07-5.69ZM320.15,512.98l4.79,7.2c-.54.44-4.84-1.88-5.24-2.45-.14-.2,1.4-3.58.45-4.75ZM316.79,507.21c-5.14-1.35-4.6-5.36-4.79-9.6l4.79,9.6ZM311.02,495.22l-4.76-3.68,1.64-4.48,3.11,8.16ZM299.51,440.73c.11,2.98.07,5.92.48,8.88l-3.36-4.05c.59-2.26,2.31-4.11,2.41-6.5.84-.11.45,1.09.47,1.67ZM297.64,430.73l2.35-3.19-.48,6.23-1.87-3.05ZM300.95,456.82l.96,8.64c-1.42-.96-1.89-3.13-3.83-3.37,1.03-1.36,1.23-3.14,1.87-4.59.26-.58-.22-.87,1-.67ZM305.26,479.37l-3.86-2.72.99-8.32,2.87,11.03ZM533.27,400.65c-1.66-.27-2.37-2.2-4.32-1.92l1.68-6.23,2.64,8.16ZM526.24,397.22c-10.49,6.17-16.21-12.58-5.07-13.74,7.67-.8,11.63,9.88,5.07,13.74ZM525.11,378.1c1.8,1.71,1.95,4.53,2.87,6.72-1.06-.68-1.97-1.56-3.36-1.44l.49-5.28ZM518.39,363.7l1.94,3.1.45,1.7-2.88-.97.49-3.83ZM522.36,371.01c5.1,6.82-2.27,15.25-9.59,11.03-4.99-2.88-4.27-12.2,1.65-13.43,2.8-.58,6.15,0,7.94,2.4ZM508.31,347.38l3.83,5.75-4.32-.48c.83-1.64.39-3.5.48-5.27ZM509.87,353.72c9.17,1.34,8.3,16.38-2.16,14.66-7.86-1.29-8.02-13.5.01-14.66.82-.12,1.33-.12,2.15,0ZM500.4,354.8c-10.17.39-10.44-14.82-.41-14.93,8.52-.09,10.54,14.54.41,14.93ZM502.07,339.21l-5.76.48c.39-2,1.7-3.7.48-5.75.76-.63,5.67,4.98,5.28,5.27ZM484.31,322.42c1.77.94,3.1,2.26,4.5,3.66.4.4,1.19.5,1.26,1.14-2.25-.23-4.31.31-6.24,1.44l.48-6.24ZM492.77,329.32c4.25,2.74,5.14,9.01.63,12.02-2.84,1.89-3.74,1.28-6.66.55-.46-.11-1.07.29-1.35.11-.33-.21-1.62-2.23-2.53-2.54-3.86-6.83,2.91-14.66,9.91-10.15ZM483.3,323.18c.67,4.64-1.31,7.99-6.07,8.72-10.65,1.63-11.11-14.69-1.23-14.6,2.62.03,6.91,3.16,7.3,5.88ZM475.67,315.71c.73.84-.15.8-.7.96-1.7.5-3.15.58-4.57,1.91.22-2.45-.17-4.61-1.44-6.72l6.72,3.84ZM467.35,311.06c.85.85,1.97,3.18,2.1,4.39,1.13,10.79-15.86,11.37-14.42-.49.71-5.85,8.31-7.91,12.33-3.9ZM461.75,307.54l-4.18,1.81-2.53,2.02c.39-2.97-.44-5.05-2.4-7.2l9.12,3.36ZM450.18,316.85c-10.18,4.98-15.36-12.39-4.39-14.01,7.91-1.16,12.39,10.09,4.39,14.01ZM446.39,301.3l-4.29,2.19-2.91,3.08c.36-3.16-1.33-5.52-3.36-7.67l10.56,2.4ZM436.33,311.16c-7.47,7.02-17.59-4.01-10.42-10.66,6.63-6.14,17.26,4.22,10.42,10.66ZM429.11,297.46c-.05.8-1.33.56-2.09,1.02-1.18.72-3,3-3.81,3.19-1.55.38-2.61-2.24-3.94-3.25-1.03-.79-2.47-.98-3.11-1.92l12.96.96ZM415.31,312.22c-9.45,1.51-11.28-12.48-3.13-14.17,10.07-2.1,12.58,12.67,3.13,14.17ZM401.99,296.5h10.79s-4.34,2.13-4.34,2.13l-1.9,3.62c-3.49-.34-4.39-4.42-8.15-4.81l3.6-.95ZM398.1,312.78c-10.51,1.25-11.33-13.7-2.23-14.75,9.03-1.05,11.88,13.6,2.23,14.75ZM381.33,299.84c3.92-1.15,8.29-1.32,12.26-2.38-1.02,1.29-2.62,1.99-3.58,3.37-.53.76-.57,2.17-1.08,2.39-3.4,1.44-4.51-3.25-8.3-2.41-.13-1.24,0-.77.7-.97ZM381.71,316.06c-10.48,1.7-11.94-13.26-3.13-14.65,9.74-1.54,12.55,13.12,3.13,14.65ZM374.87,302.26c-2.18,2.13-3.07,4.58-2.88,7.67-1.62-.44-2.3-1.75-3.99-2.49-1.19-.52-2.36-.94-3.69-.88l10.56-4.31ZM362.74,307.65c8.03-1.67,13.04,8.99,5.87,13.55-4.63,2.94-10.7-.1-11.31-5.49-.37-3.32,2.13-7.37,5.44-8.06ZM356.63,310.42l-2.4,5.75-4.79-1.44,7.2-4.31ZM343.73,318.4c.56-.64,3.34-2.42,4.11-2.6,8.3-1.92,12.97,10.1,5.13,13.77-7.68,3.58-13.87-5.9-9.24-11.16ZM341.26,320.02l-.96,5.76-4.79-1.2,5.75-4.56ZM329.38,331.41c.45-2.47,3.55-5.13,6-5.52,7.22-1.14,11.45,7.8,6.38,12.62-5.36,5.1-13.68.1-12.38-7.1ZM326.15,333.46l1.19,3.83c-1.61.06-3.31-.3-4.79.48-.51-.52,2.89-4.01,3.6-4.32ZM319.39,340.86c6.24-7.91,17.78,2.66,11.32,9.63-6.33,6.82-17.41-1.91-11.32-9.63ZM315.11,346.9l1.68,3.83-4.32.48,2.64-4.32ZM313.3,351.81c11.89-2.47,12.46,15.91,1.38,14.73-8.61-.92-8.33-13.29-1.38-14.73ZM305.16,361.92c.29-.42-.08-.89,1.07-.62l.48,4.31-3.84.96c-.31-.38,1.85-4.02,2.28-4.65ZM313.17,369.48c1.48,2.36.4,7.06-.86,9.42-1.94,3.61-8.93,2.6-11.09-.82-5.59-8.85,7.14-16.32,11.96-8.6ZM297.83,376.67l1.68,3.82-3.83,1.45,2.16-5.27ZM294.14,385.45c4.34-9.95,18.86.07,12.42,7.86-5.21,6.3-16.14.66-12.42-7.86ZM291.36,392.5l2.39,3.35-3.83,1.93,1.44-5.28ZM295.08,396.43c5.73-.69,10.58,6.14,7.31,11.19-1.52,2.34-4.52,4.01-7.33,3.49-8.79-1.63-8.04-13.7.02-14.67ZM287.04,409.06c.17-.73-.34-.84.95-.72l1.41,3.54-3.32,2.7c.51-1.78.54-3.73.96-5.52ZM291.22,412.77c9-1.53,12.64,10.25,5.04,13.68-10.75,4.85-15.16-11.96-5.04-13.68ZM284.87,425.62l1.63,4.09c-.03.33-.93.56-1.22.88-.38.42-.49,1.2-1.13,1.27.26-1.97-.71-4.62.72-6.24ZM295.17,430.2c9.41,5.97-1.95,19.39-9.41,11.09-5.34-5.93,1.85-15.89,9.41-11.09ZM284.15,442.42c2.21,2.16,2.87,3.75.95,6.24l-.95-.24v-6ZM292.7,445.41c7.16.07,9.75,11.3,2.01,14.04-10.84,3.83-14.44-14.17-2.01-14.04ZM286.07,465.94l-.48-6.72c3.37,2.11,3.37,4.09.48,6.72ZM298.04,462.85c9.67,6.43-1.77,18.7-8.92,11.57-6.2-6.18,1.5-16.5,8.92-11.57ZM288.65,476.29c.8.64,2.9,2.58,3.1,3.43.26,1.07-1.37,3.79-1,5.53l-2.65-8.64.55-.33ZM296.5,477.57c11.51-2.37,13.16,13.46,3.25,14.29-9.23.78-10.86-12.72-3.25-14.29ZM296.14,500.02c-.47.7-3.81-7.68-3.35-8.64l2.5,5.2,1.34.08-.49,3.36ZM299.34,494.33c7.36-6.41,17.37,6.08,9.12,11.75-7.72,5.31-15.98-5.78-9.12-11.75ZM306.94,508.65c6.93-6.17,16.95,4.15,10.66,10.9-6.77,7.26-18.01-4.35-10.66-10.9ZM314.52,530.37c-1.32-3.57.55-8.78,4.54-9.6,5.38-1.11,10.36,2.72,9.69,8.24-.85,7.02-11.62,8.43-14.23,1.36ZM332.47,532.84c4.42.04,8.31,5.11,7.13,9.44-.62,2.26-3.86,5.13-6.26,5.3-10.35.7-11.68-14.83-.87-14.73ZM346.27,558.05c-11.18,1.51-11.61-14.46-1.8-14.66,9.35-.19,10.55,13.48,1.8,14.66ZM357.33,566.76c-7.83-.67-8.49-12.83-1.31-14.31,12.1-2.49,13.33,15.34,1.31,14.31ZM375,573.83c-9.89,2-12.1-12.91-3.62-14.66,10.34-2.14,12.85,12.79,3.62,14.66ZM379.19,560.5c.37-.28,8.12,1.71,8.64,2.87-2.99-.3-4.21,1.79-6.24,3.36.05-2.33-1.11-4.41-2.4-6.23ZM396.44,572.71c-.87,5.76-9.04,7.19-12.77,3.47-1.04-1.04-2.08-3.84-2.04-5.31.27-9.93,16.54-9.6,14.8,1.84ZM396.71,567.7c-.54-1.37-1.74-2.29-2.64-3.35l8.16.96-3.76,4.15-1.03,3.52c.08-1.75-.08-3.64-.72-5.28ZM401.78,579.42c-9.44-6.3,2.33-19.48,9.88-11.08,5.59,6.21-2.47,16.02-9.88,11.08ZM411.61,567.19c-.72-.85-2.43-.85-1.46-1.89l9.36-.47c-2.22,1.99-4.69,3.86-4.81,7.19-1.34-1.41-1.75-3.25-3.09-4.83ZM423.42,580.39c-10.09.64-10.79-14.45-1.15-14.97,9.26-.51,11.13,14.34,1.15,14.97ZM423.83,564.81l11.52-2.87c-2.21,2.27-3.46,4.9-3.36,8.16-3-1.44-4.01-5.96-8.15-5.28ZM445.74,574.25c-3.11,3.43-9.68,2.75-11.93-1.42-4.85-9,8.48-15.63,12.98-7.22,1.37,2.57.91,6.47-1.05,8.64ZM446.38,563.14c-1.58-1.65-4-2.22-6.23-2.17.06-.69.71-.75,1.18-.97,2.77-1.28,6.47-2.19,9.37-3.34.07.73-.66.33-1.11,1.07-1.52,2.53-1.99,5.17-1.3,8.04-.92-.42-1.15-1.82-1.92-2.63ZM455.26,570.11c-7.86-.88-8.59-12.79-1.32-14.3,12.6-2.61,12.9,15.6,1.32,14.3ZM463.43,558.09c-.22-.01-2.17-2.29-3.41-2.82-1.29-.56-2.7-.63-4.03-1.01l8.16-4.31c-.94,1.74-1.13,3.53-.93,5.49.05.47,1.44,2.72.21,2.66ZM472.5,561.42c-10.2,1.29-11.61-13.36-2.23-14.74,9.97-1.46,11.34,13.59,2.23,14.74ZM490.85,548.33c-1.72,2.76-7.12,3.81-9.93,1.88-7.36-5.06-2.25-15.55,5.8-13.48,5.18,1.33,6.85,7.24,4.13,11.6ZM502.39,536.33c-7.57,7.92-18.21-2.99-10.88-10.16,6.81-6.67,16.8,3.97,10.88,10.16ZM513.34,521.13c-1.68,4.69-8.62,6.09-12.07,2.72-3.6-3.51-2.45-10.62,2.37-12.42,6.55-2.45,11.97,3.36,9.7,9.7ZM514.31,511.58c-9.13-.24-9.07-13.24-1.33-14.81,10.76-2.19,12.28,15.1,1.33,14.81ZM527.93,492.51c-1.97,4.18-8.51,5.29-11.77,2.06-3.16-3.12-2.82-9,.83-11.57,6.41-4.49,14.34,2.29,10.94,9.5ZM528.58,479.72c-10.36,3.58-13.87-12.5-4.07-14.15,9.64-1.62,12.2,11.34,4.07,14.15ZM534.71,470.73c-1.26.23-.74-.19-1-.69-1.85-3.55-1.09-6.6,2.44-8.43l-1.44,9.12ZM529.62,463.97c-9.41.22-9.85-13.41-1.76-14.72,10.98-1.78,11.83,14.49,1.76,14.72ZM537.54,451.25c-.05.46-.21,1.8-.91,1.72l-1.85-3.03c.27-.39,2.13-6.33,3.28-5.13-.92,2.01-.3,4.28-.52,6.43Z" />
    <path
        d="M281.38,174.06l1.26-.71,5.79,10.26-1.96,1.11c-1.55-2.67-3.42-4.18-5.6-4.53-2.18-.35-4.81.34-7.89,2.08l-2.04,1.15c.9,2.06,1.79,3.87,2.66,5.41,1.73,3.06,3.6,4.98,5.61,5.76,2.01.78,4.34.42,6.99-1.07l2.63-1.49,1.06,1.88-9.74,5.85,8.71,15.45,2.85-1.61c6.02-3.39,7.85-8.21,5.5-14.43l1.91-1.08,4.04,12.31-1.34.76c-.46-.78-1.03-.98-1.69-.61l-19.59,11.05-.73-1.29c1.6-.93,2.52-1.84,2.74-2.74.22-.9-.13-2.17-1.05-3.81l-13.12-23.26c-.99-1.76-1.94-2.73-2.86-2.91-.92-.18-2.13.13-3.64.93l-.73-1.29,19.18-10.82c1.16-.66,1.51-1.44,1.04-2.36Z" />
    <path
        d="M303.89,198.24c1.21,2.39,2.73,4,4.57,4.82,1.84.82,3.64.85,5.4.09,1.45-.63,2.45-1.58,3-2.87.54-1.29.52-2.61-.06-3.97-.52-1.21-1.31-2.08-2.37-2.61-1.07-.5-2.93-.96-5.6-1.38-1.9-.3-3.64-.6-5.22-.89-1.58-.29-2.79-.76-3.63-1.41-.86-.64-1.48-1.4-1.86-2.29-.79-1.83-.65-3.83.43-5.99,1.07-2.16,3.01-3.85,5.8-5.05,1.72-.74,3.73-1.16,6.04-1.26l3.2,7.42-2.04.88c-.92-2.09-2.23-3.52-3.93-4.29-1.7-.77-3.29-.83-4.78-.19-1.06.46-1.74,1.15-2.05,2.07-.31.93-.26,1.84.13,2.75.44,1.02,1.16,1.75,2.15,2.2.99.47,2.75.9,5.29,1.28,4.37.69,7.19,1.3,8.44,1.81,1.26.53,2.21,1.55,2.85,3.04,1.02,2.36.85,4.86-.48,7.5-1.34,2.64-3.37,4.54-6.09,5.71-2.02.87-4.6,1.31-7.73,1.31l-3.38-7.85,1.93-.83Z" />
    <path
        d="M322.59,160.48l.51,1.52c-1.13.7-1.28,2.29-.45,4.77.56,1.68,1.09,2.8,1.6,3.37.5.57,1.18.95,2.04,1.14.86.19,1.88.09,3.07-.31l2.43-.81.44,1.32-7.17,2.4,6.29,18.78c.2.6.48,1.02.83,1.25.35.23.77.26,1.25.1.96-.32,2.12-1.58,3.49-3.77.16-.25.28-.43.37-.55l.57,1.7c-2.33,4.1-4.48,6.48-6.45,7.14-.92.31-1.73.18-2.43-.38-.7-.56-1.28-1.54-1.75-2.94l-6.64-19.83-4.48,1.5-.44-1.32c1.72-.57,2.82-1.32,3.31-2.25.49-.92.45-2.24-.12-3.96l-1.48-4.42,5.21-4.44Z" />
    <path
        d="M337.82,169.89c3.92-4.11,7.91-6.63,11.99-7.57,1.91-.44,3.38-.33,4.42.31,1.04.65,1.78,1.98,2.22,3.98l4.32,18.79c.21.9.72,1.26,1.54,1.07.8-.18,1.99-1.43,3.58-3.74l.43,1.86c-2.36,3.69-4.5,5.75-6.42,6.19-1.72.4-2.81-.37-3.25-2.29l-1.02-4.45c-1.92,3.14-3.61,5.49-5.07,7.05-1.47,1.56-2.97,2.52-4.51,2.87-1.5.35-2.92.06-4.25-.87-1.33-.93-2.19-2.23-2.58-3.92-1-4.35,3.49-10.32,13.48-17.92l-.83-3.61c-.25-1.1-.79-1.94-1.62-2.51-.83-.57-1.82-.72-2.98-.45-1.98.46-3.53,1.82-4.63,4.1-1.1,2.28-1.47,4.89-1.11,7.82l-2.01.46-1.66-7.21ZM353.56,173.64c-3.54,1.62-6.25,3.62-8.14,6-1.88,2.39-2.6,4.55-2.15,6.49.29,1.24.9,2.15,1.85,2.71.94.56,2.04.7,3.28.42,2.31-.53,3.98-2.2,5.02-5,1.04-2.8,1.08-6.34.14-10.62Z" />
    <path
        d="M370.88,144.1l.13,1.26c-.54.39-.77.96-.69,1.72l2.16,21.04c3.39-4.81,5.82-7.78,7.29-8.91,1.47-1.13,3.03-1.78,4.66-1.95,2.61-.27,4.81.55,6.59,2.47,1.78,1.91,2.83,4.48,3.16,7.68.28,2.7-.03,5.38-.91,8.04-.88,2.66-2.15,4.9-3.8,6.71-1.65,1.81-3.26,3.02-4.83,3.62-1.57.6-3.55,1.03-5.94,1.27l-2.82.29c-2.15.22-3.55.51-4.2.88-.65.37-1.12.92-1.4,1.65l-2.06.21c.43-1.02.73-2.32.89-3.91s.2-2.77.12-3.55l-3.1-30.25c-.18-1.8-.96-2.63-2.33-2.49-.63.07-1.48.39-2.54.97l-.15-1.47,9.78-5.28ZM373.97,182.71c2.64,1.28,5.37,1.77,8.19,1.48,2.04-.21,3.67-.92,4.9-2.13s2.06-2.77,2.5-4.67c.44-1.9.54-4.03.3-6.38-.31-3.04-1.15-5.41-2.52-7.11-1.37-1.7-3.09-2.44-5.17-2.23-2.67.27-4.95,2.06-6.85,5.35-1.9,3.29-2.63,7.06-2.19,11.31.13,1.31.42,2.76.85,4.37Z" />
    <path
        d="M407.46,143.12c-.88.45-1.31,1.2-1.29,2.27l.55,33.87c.03,1.81.42,3.05,1.19,3.71s1.96,1.01,3.61,1.02l.02,1.48-14.19.23-.02-1.48c1.69-.07,2.89-.46,3.62-1.17s1.08-1.95,1.05-3.72l-.48-29.33c-.03-1.89-.83-2.83-2.39-2.8-.66.01-1.46.19-2.4.53l-.02-1.48,10.73-4.4.02,1.26Z" />
    <path
        d="M413.01,184.15c1.58.06,2.79-.21,3.61-.81.82-.6,1.29-1.83,1.41-3.7l1.06-16.84c.08-1.29-.62-1.99-2.09-2.08-.53-.03-1.13.06-1.78.29-.34.12-.59.2-.76.23l.1-1.57,8.1-2.61,1.51.1-1.43,22.78c-.12,1.83.19,3.1.9,3.81.72.71,1.89,1.14,3.5,1.29l-.09,1.48-14.13-.89.09-1.48ZM422.55,144.2c.88.06,1.59.39,2.12,1.01.53.62.77,1.33.72,2.13-.05.8-.38,1.47-.99,2.01-.61.54-1.33.78-2.15.73-.8-.05-1.47-.38-2.01-.98s-.78-1.31-.73-2.13c.05-.86.4-1.55,1.03-2.07.63-.52,1.3-.75,2.02-.71Z" />
    <path
        d="M432.56,177.56c-.22,2.67.24,4.83,1.39,6.5,1.14,1.66,2.66,2.63,4.55,2.9,1.57.23,2.92-.07,4.05-.88s1.81-1.95,2.02-3.42c.19-1.3-.03-2.46-.66-3.46-.65-.99-2-2.35-4.05-4.1-1.46-1.25-2.79-2.41-3.99-3.49-1.2-1.08-1.98-2.11-2.36-3.1-.4-.99-.53-1.97-.39-2.92.28-1.97,1.45-3.6,3.49-4.89,2.04-1.28,4.57-1.71,7.58-1.28,1.85.27,3.79.96,5.81,2.08l-1.15,8-2.2-.32c.3-2.26-.07-4.17-1.11-5.71-1.05-1.54-2.37-2.43-3.98-2.66-1.14-.16-2.08.07-2.83.7-.75.63-1.19,1.43-1.33,2.41-.16,1.1.07,2.1.69,3,.6.92,1.88,2.2,3.84,3.86,3.37,2.87,5.45,4.86,6.25,5.95.8,1.11,1.08,2.47.85,4.08-.37,2.54-1.81,4.59-4.33,6.14-2.52,1.55-5.24,2.11-8.17,1.69-2.18-.31-4.6-1.29-7.28-2.92l1.22-8.46,2.08.3Z" />
    <path
        d="M470.27,149.7l-.34,1.28c-.9.1-1.5.71-1.79,1.82l-5.44,20.51c3.2-2.68,6.06-4.57,8.59-5.67,2.52-1.1,4.71-1.4,6.56-.91,1.53.41,2.58,1.27,3.14,2.59.56,1.34.55,3.08-.02,5.23l-4.13,15.56c-.45,1.71-.43,2.99.08,3.85.51.86,1.59,1.53,3.25,2.01l-.38,1.43-10.44-2.77.38-1.43c.89.19,1.46-.23,1.74-1.26l4.72-17.8c.34-1.29.34-2.33-.02-3.12-.35-.78-1.05-1.32-2.1-1.59-2.45-.65-5.21.55-8.28,3.6-3.07,3.05-5.17,6.72-6.31,11.02-1.07,4.02-.38,6.34,2.05,6.99l1.18.31-.38,1.43-13.57-3.6.38-1.43c1.54.37,2.76.33,3.67-.11s1.59-1.56,2.07-3.35l7.81-29.43c.31-1.17-.19-1.93-1.51-2.28-.74-.2-1.64-.23-2.7-.11l.38-1.43,11.4-1.35Z" />
    <path
        d="M506.01,199.94c-6.42,3.61-11.64,4.6-15.68,2.96-2.84-1.15-4.84-3.4-6.02-6.75-1.17-3.35-1.07-6.72.31-10.11,1.58-3.91,4.3-6.9,8.16-8.99,3.85-2.09,7.53-2.42,11.04-1,2.82,1.14,4.65,3.05,5.5,5.73.85,2.67.73,5.47-.34,8.38l-18.44-7.48c-.34.73-.58,1.26-.72,1.61-1.37,3.37-1.62,6.55-.74,9.54.88,2.98,2.63,5.01,5.26,6.08,3.28,1.33,7.42.71,12.43-1.85l-.76,1.89ZM504.87,186.83c.68-2.34.68-4.38-.02-6.1-.7-1.73-1.87-2.92-3.5-3.59-1.72-.7-3.52-.65-5.42.15-1.9.79-3.41,2.15-4.55,4.06l13.49,5.47Z" />
    <path
        d="M537.38,180.84l11.33,1.64-.61,1.11c-.94-.12-1.67.27-2.18,1.19l-16.77,30.2c-.82,1.47-.59,2.57.7,3.28.58.32,1.4.52,2.47.6l-.76,1.38-8.42-1.15-1.28-.71,4.85-8.74c-5.29,2.24-8.92,3.42-10.88,3.55-1.97.13-3.65-.19-5.05-.97-2.36-1.31-3.66-3.43-3.92-6.36-.25-2.93.38-5.77,1.91-8.52,2.1-3.78,5.47-6.57,10.12-8.37,4.65-1.81,8.66-1.77,12.04.11.75.42,1.53,1,2.31,1.74s1.58,1.66,2.39,2.74l4.03-7.25c.85-1.53.69-2.62-.48-3.27-.61-.34-1.49-.58-2.63-.72l.82-1.48ZM533.62,197.13c-.68-1.74-1.48-3.2-2.4-4.38-.92-1.18-1.96-2.09-3.11-2.73-2.28-1.27-4.78-1.11-7.48.48-2.71,1.59-4.9,3.9-6.59,6.94-1.41,2.53-2.01,5.02-1.81,7.45s1.17,4.12,2.89,5.08c2.44,1.36,5.45.93,9-1.28,3.56-2.21,6.22-4.92,8-8.12.68-1.22,1.17-2.37,1.49-3.44Z" />
    <path
        d="M17.72,286.21c-.71,2.53-.74,4.36-.1,5.5.64,1.14,2.23,2.1,4.77,2.87l36.26,11.05c4.27,1.3,7.12-.15,8.54-4.34l2.01.61-6.23,20.45-2.01-.61c.74-2.52.77-4.35.11-5.5-.66-1.15-2.26-2.1-4.78-2.87l-36.26-11.05c-2.7-.82-4.61-.89-5.72-.19-1.11.7-2.05,2.21-2.82,4.53l-2.01-.61,6.23-20.45,2.01.61Z" />
    <path
        d="M36.8,282.05l.22-12.24.72-1.68,13.24,5.7c-3.49-6.07-5.62-10.75-6.39-14.03s-.67-6.03.28-8.25c1.95-4.52,5.82-5.54,11.63-3.04l21.04,9.05c2.38,1.02,4.22,1.24,5.51.63,1.29-.6,2.42-1.96,3.4-4.08l1.93.83-6.01,13.97-1.93-.83c.43-1.15.02-1.99-1.24-2.53l-24.78-10.66c-1.39-.6-2.66-.72-3.82-.36-1.15.36-1.98,1.12-2.47,2.27-1.45,3.37-.42,7.54,3.11,12.5,3.52,4.96,8.37,8.77,14.55,11.42,3.13,1.35,5.4,1.75,6.82,1.22,1.42-.53,2.68-2.02,3.8-4.46l1.93.83-7.84,18.23-1.93-.83c.87-2.18,1.07-3.93.59-5.25-.48-1.32-1.89-2.49-4.25-3.51l-20.52-8.83c-2.65-1.14-4.35-.83-5.11.92-.27.64-.43,1.93-.47,3.86l-2.01-.86Z" />
    <path
        d="M51.69,211.35l1.98,1.12c-.52,1.81.82,3.63,4.04,5.45,2.18,1.23,3.81,1.91,4.88,2.03,1.07.12,2.15-.12,3.23-.73,1.08-.61,2.06-1.69,2.94-3.24l1.79-3.16,1.71.97-5.28,9.32,24.42,13.83c.79.45,1.47.62,2.06.54.59-.09,1.06-.45,1.42-1.08.7-1.24.74-3.67.1-7.28-.07-.41-.11-.72-.13-.93l2.21,1.25c1.43,6.52,1.42,11.06-.03,13.63-.68,1.2-1.65,1.83-2.91,1.9-1.26.07-2.81-.41-4.63-1.44l-25.79-14.6-3.29,5.82-1.71-.97c1.26-2.23,1.72-4.07,1.36-5.51-.36-1.44-1.65-2.79-3.88-4.06l-5.74-3.25,1.28-9.62Z" />
    <path
        d="M115.49,192.33c2.97,10,2.68,17.53-.85,22.6-2.49,3.56-6.23,5.62-11.22,6.18-5,.56-9.62-.64-13.87-3.61-4.9-3.42-8.18-8.12-9.85-14.1-1.67-5.98-.97-11.17,2.1-15.57,2.47-3.54,5.68-5.47,9.65-5.79s7.79.71,11.48,3.11l-16.14,23.12c.9.7,1.56,1.2,1.99,1.5,4.23,2.95,8.54,4.3,12.94,4.03s7.75-2.05,10.05-5.35c2.87-4.11,3.33-10.03,1.37-17.76l2.37,1.65ZM97.01,189.78c-3.02-1.68-5.83-2.31-8.44-1.89-2.6.42-4.62,1.66-6.06,3.71-1.5,2.15-2,4.66-1.5,7.53.5,2.87,1.89,5.39,4.18,7.56l11.81-16.92Z" />
    <path
        d="M99.86,170.99l4.02-11.74,1.26-1.45,10.72,9.33c-1.9-5.63-2.88-10.04-2.94-13.23s.71-5.71,2.34-7.58c.63-.73,1.55-1.45,2.76-2.17l10.15,8.84-2.04,2.34c-4-3.44-6.99-4.02-8.98-1.73-1.97,2.26-1.88,5.89.29,10.89,2.16,4.99,5.59,9.53,10.27,13.6,2.77,2.41,5.02,3.47,6.74,3.17,1.73-.29,3.84-1.88,6.35-4.76l1.58,1.38-14.93,17.14-1.58-1.38c1.53-1.84,2.26-3.48,2.22-4.91-.05-1.43-1.03-2.98-2.94-4.65l-17.11-14.9c-1.93-1.68-3.52-1.81-4.77-.38-.52.59-1.13,1.78-1.83,3.57l-1.58-1.38Z" />
    <path
        d="M127.32,139.67l5.34-11.01,1.36-1.22,9.62,10.73c-.62-6.98-.59-12.11.09-15.41.68-3.3,1.92-5.76,3.72-7.37,3.67-3.29,7.61-2.58,11.83,2.13l15.29,17.05c1.73,1.93,3.31,2.89,4.73,2.89,1.42,0,3.02-.76,4.8-2.28l1.4,1.56-11.33,10.16-1.4-1.56c.87-.86.85-1.8-.06-2.82l-18.01-20.09c-1.01-1.13-2.11-1.77-3.31-1.93-1.2-.16-2.26.18-3.2,1.02-2.73,2.45-3.54,6.67-2.43,12.65,1.11,5.98,3.92,11.47,8.41,16.48,2.27,2.54,4.17,3.86,5.67,3.97,1.51.11,3.28-.7,5.32-2.45l1.4,1.56-14.77,13.25-1.4-1.56c1.71-1.61,2.62-3.11,2.75-4.52.12-1.4-.67-3.06-2.38-4.97l-14.91-16.63c-1.93-2.15-3.6-2.58-5.02-1.31-.52.46-1.2,1.57-2.05,3.31l-1.46-1.63Z" />
    <path
        d="M173.34,103.08c3.03-7.45,6.98-12.85,11.87-16.21,2.29-1.57,4.28-2.2,5.98-1.88,1.7.32,3.37,1.68,4.99,4.1l15.46,22.52c.74,1.08,1.6,1.29,2.58.61.96-.66,1.88-2.92,2.78-6.78l1.53,2.23c-1.19,6.09-2.94,9.92-5.25,11.51-2.07,1.42-3.89.97-5.47-1.33l-3.66-5.33c-.89,5.14-1.9,9.12-3.02,11.94-1.12,2.82-2.61,4.87-4.46,6.14-1.8,1.24-3.82,1.59-6.06,1.06-2.24-.53-4.05-1.81-5.44-3.82-3.58-5.21-.76-15.42,8.46-30.62l-2.97-4.32c-.91-1.32-2.05-2.14-3.44-2.46-1.39-.32-2.78,0-4.17.95-2.38,1.63-3.7,4.24-3.97,7.81s.6,7.21,2.6,10.89l-2.41,1.66-5.94-8.65ZM196.04,99.84c-3.83,3.97-6.37,8.02-7.61,12.14-1.24,4.12-1.06,7.35.54,9.68,1.02,1.49,2.3,2.36,3.84,2.61,1.54.25,3.05-.13,4.55-1.16,2.77-1.9,4.11-4.97,4.02-9.2-.09-4.23-1.87-8.93-5.33-14.08Z" />
    <path
        d="M212.08,56.1l1.1,1.99c-1.4,1.27-1.2,3.52.58,6.77,1.21,2.2,2.24,3.63,3.09,4.29.85.66,1.89,1.02,3.13,1.07,1.24.05,2.64-.36,4.2-1.21l3.18-1.75.95,1.72-9.38,5.17,13.54,24.58c.44.79.93,1.3,1.47,1.54.54.23,1.14.17,1.77-.18,1.25-.69,2.55-2.74,3.9-6.14.15-.38.28-.67.38-.86l1.22,2.22c-2.2,6.3-4.59,10.17-7.18,11.59-1.2.66-2.36.69-3.48.09-1.11-.6-2.18-1.82-3.19-3.66l-14.3-25.96-5.86,3.23-.95-1.72c2.25-1.24,3.6-2.56,4.05-3.98.45-1.41.06-3.24-1.18-5.49l-3.18-5.78,6.14-7.52Z" />
    <path
        d="M233.44,39.24c1.14-.52,2.25-.57,3.32-.15,1.07.42,1.85,1.15,2.32,2.18.47,1.03.51,2.09.1,3.17-.4,1.08-1.13,1.86-2.19,2.35-1.03.47-2.09.51-3.16.12-1.08-.39-1.86-1.11-2.34-2.17-.51-1.11-.54-2.2-.1-3.27.44-1.07,1.13-1.81,2.05-2.24ZM248.26,95.53c2.02-.99,3.34-2.13,3.96-3.42.63-1.3.39-3.15-.72-5.56l-9.94-21.75c-.76-1.67-2.1-2.07-4.01-1.2-.69.32-1.37.83-2.03,1.55-.34.38-.6.64-.79.79l-.93-2.03,8.38-8.68,1.95-.89,13.45,29.42c1.08,2.36,2.3,3.75,3.68,4.16,1.37.41,3.12.17,5.24-.74l.87,1.91-18.25,8.34-.87-1.91Z" />
    <path
        d="M278.52,41.03c5.21-1.78,9.94-1.58,14.19.62,4.25,2.2,7.3,6.01,9.16,11.44,2.21,6.45,1.85,12.51-1.08,18.18-2.93,5.67-7.01,9.4-12.25,11.19-5.24,1.79-9.94,1.55-14.11-.74-4.17-2.28-7.17-6.09-8.99-11.41-2.17-6.34-1.82-12.37,1.05-18.08,2.87-5.71,6.88-9.45,12.04-11.21ZM276.11,45.46c-3.75,1.28-6.16,3.6-7.23,6.96-1.07,3.35-.92,7.04.46,11.07,1.7,4.96,4.78,8.86,9.24,11.69,4.46,2.83,8.78,3.53,12.94,2.11,3.09-1.06,5.26-3.23,6.52-6.53,1.26-3.3,1.18-7.01-.23-11.15-1.31-3.83-3.34-6.98-6.1-9.44-2.75-2.46-5.48-4.05-8.19-4.77-2.71-.72-5.18-.7-7.42.07Z" />
    <path
        d="M306.33,36.78l10.21-6.75,1.79-.36,2.81,14.14c3.02-6.32,5.67-10.72,7.94-13.21,2.27-2.49,4.59-3.97,6.96-4.44,4.83-.96,7.86,1.66,9.1,7.86l4.47,22.47c.51,2.54,1.37,4.18,2.6,4.9,1.23.72,2.99.88,5.29.49l.41,2.06-14.92,2.97-.41-2.06c1.19-.3,1.65-1.11,1.38-2.46l-5.26-26.46c-.3-1.48-.92-2.6-1.87-3.35-.95-.75-2.04-1-3.27-.75-3.6.72-6.45,3.93-8.53,9.64-2.09,5.71-2.48,11.87-1.17,18.46.66,3.34,1.62,5.44,2.86,6.31,1.24.87,3.18,1.07,5.82.6l.41,2.06-19.47,3.87-.41-2.06c2.29-.51,3.84-1.34,4.66-2.49s.98-2.97.48-5.49l-4.36-21.91c-.56-2.83-1.78-4.06-3.65-3.69-.68.14-1.83.74-3.45,1.8l-.43-2.14Z" />
    <path
        d="M364.62,28.76c6.41-4.86,12.56-7.49,18.48-7.89,2.77-.18,4.8.29,6.11,1.43,1.3,1.14,2.04,3.17,2.2,6.07l1.81,27.26c.09,1.31.72,1.92,1.91,1.84,1.16-.08,3.11-1.55,5.85-4.42l.18,2.7c-4.13,4.63-7.59,7.03-10.39,7.22-2.5.17-3.84-1.15-4.03-3.94l-.43-6.46c-3.39,3.96-6.28,6.87-8.69,8.73-2.4,1.85-4.72,2.85-6.96,3-2.18.15-4.1-.58-5.75-2.18-1.65-1.6-2.56-3.62-2.73-6.06-.42-6.31,7.21-13.65,22.9-22.03l-.35-5.23c-.11-1.6-.67-2.89-1.7-3.87-1.03-.98-2.39-1.42-4.07-1.31-2.88.19-5.35,1.76-7.4,4.7-2.05,2.94-3.16,6.5-3.32,10.69l-2.92.19-.7-10.47ZM385.79,37.56c-5.32,1.46-9.57,3.65-12.74,6.56-3.17,2.91-4.67,5.78-4.48,8.6.12,1.8.78,3.21,1.97,4.21,1.19,1,2.69,1.44,4.5,1.32,3.35-.22,6.07-2.18,8.15-5.86s2.95-8.63,2.59-14.83Z" />
    <path
        d="M422.47,1.79c-1.27.58-1.93,1.62-1.97,3.14l-1.34,47.98c-.07,2.56.41,4.34,1.45,5.33s2.72,1.55,5.05,1.67l-.06,2.1-20.1-.56.06-2.1c2.39,0,4.12-.47,5.2-1.43,1.08-.96,1.65-2.69,1.72-5.2l1.16-41.56c.08-2.68-.99-4.05-3.21-4.11-.93-.03-2.08.18-3.43.6l.06-2.1,15.46-5.56-.05,1.79Z" />
    <path
        d="M466.26,9.19l33.54,7.47c7.51,1.67,12.73,4.72,15.68,9.14,2.94,4.42,3.61,10.23,2.01,17.42-2.04,9.16-6.81,16.28-14.32,21.35s-16.41,6.47-26.7,4.17l-22.36-4.98.46-2.05c2.57.54,4.4.44,5.49-.31,1.09-.75,1.93-2.41,2.5-4.98l8.24-36.99c.62-2.76.53-4.67-.25-5.72-.78-1.05-2.36-1.88-4.74-2.47l.46-2.05ZM479.48,17.6l-9.49,42.59c3.96,3.66,8.1,5.97,12.43,6.93,6.09,1.36,11.5.16,16.25-3.58,4.75-3.75,7.93-9.27,9.56-16.57,1.63-7.33,1.35-13.72-.86-19.16-2.21-5.44-7.13-9.02-14.79-10.72-4.98-1.11-9.35-.93-13.1.53Z" />
    <path
        d="M532.01,47.92c7.86-1.71,14.55-1.49,20.08.65,2.59,1,4.23,2.29,4.93,3.88.7,1.58.51,3.73-.57,6.44l-9.86,25.48c-.47,1.22-.16,2.05.95,2.48,1.08.42,3.47-.09,7.17-1.54l-.98,2.53c-5.7,2.45-9.85,3.17-12.46,2.16-2.34-.9-3-2.66-1.99-5.27l2.33-6.03c-4.74,2.16-8.6,3.58-11.56,4.25-2.96.67-5.49.59-7.58-.22-2.04-.79-3.47-2.26-4.3-4.4-.83-2.15-.8-4.36.09-6.65,2.28-5.9,12.3-9.33,30.05-10.31l1.89-4.89c.58-1.49.61-2.91.09-4.23-.52-1.33-1.57-2.29-3.14-2.9-2.69-1.04-5.59-.66-8.69,1.14-3.1,1.8-5.61,4.56-7.52,8.29l-2.73-1.06,3.79-9.78ZM547.49,64.83c-5.44-.92-10.21-.73-14.32.58-4.11,1.3-6.67,3.27-7.69,5.91-.65,1.69-.65,3.23.01,4.65.66,1.41,1.83,2.44,3.52,3.1,3.13,1.21,6.42.59,9.87-1.88,3.44-2.46,6.31-6.58,8.61-12.35Z" />
    <path
        d="M572.39,61.77l12.16,1.36,1.61.88-6.91,12.65c6.37-2.91,11.22-4.59,14.56-5.05s6.07-.11,8.19,1.05c4.32,2.36,4.97,6.32,1.94,11.87l-10.98,20.1c-1.24,2.28-1.62,4.09-1.15,5.43s1.73,2.6,3.75,3.76l-1,1.84-13.35-7.29,1.01-1.84c1.1.54,1.98.2,2.64-1l12.93-23.68c.73-1.33.96-2.58.71-3.77-.25-1.18-.93-2.07-2.03-2.67-3.22-1.76-7.47-1.12-12.73,1.93-5.27,3.04-9.51,7.52-12.73,13.42-1.63,2.99-2.25,5.21-1.85,6.67.4,1.46,1.76,2.86,4.08,4.2l-1.01,1.84-17.42-9.51,1.01-1.84c2.09,1.07,3.81,1.43,5.17,1.08,1.36-.35,2.66-1.65,3.89-3.9l10.71-19.61c1.38-2.53,1.24-4.26-.44-5.17-.61-.33-1.88-.61-3.8-.83l1.05-1.92Z" />
    <path
        d="M632.45,130c-9.84,2.7-17.17,2.29-22.01-1.21-3.12-2.26-5.14-5.74-6.06-10.44-.93-4.7.38-9.5,3.92-14.38,3.68-5.07,8.65-8.29,14.91-9.66s11.81-.29,16.65,3.21c2.95,2.14,5.58,5.23,7.9,9.29l-6.7,9.24-2.58-1.87c1.97-2.87,2.73-5.8,2.28-8.78-.45-2.98-1.96-5.4-4.53-7.27-3.26-2.36-6.82-2.82-10.69-1.38s-7.11,3.97-9.74,7.58c-2.85,3.93-4.22,7.96-4.13,12.11.09,4.14,1.74,7.38,4.95,9.7,1.96,1.42,4.28,2.22,6.97,2.41s6.24-.16,10.65-1.03l-1.8,2.48Z" />
    <path
        d="M664.35,158.11c-10.3,1.64-17.73.38-22.29-3.79-3.21-2.93-4.76-6.91-4.67-11.93s1.89-9.46,5.39-13.29c4.03-4.41,9.12-7.06,15.27-7.93,6.15-.88,11.2.49,15.16,4.11,3.18,2.91,4.68,6.35,4.49,10.32-.19,3.97-1.72,7.63-4.58,10.98l-20.82-19.01c-.81.8-1.39,1.39-1.75,1.78-3.48,3.81-5.37,7.91-5.68,12.31s1.03,7.95,4,10.66c3.7,3.38,9.51,4.6,17.43,3.67l-1.95,2.13ZM669.29,140.13c2.06-2.77,3.05-5.48,2.97-8.12-.08-2.64-1.04-4.8-2.89-6.49-1.94-1.77-4.36-2.59-7.27-2.47-2.91.12-5.59,1.18-8.04,3.16l15.24,13.91Z" />
    <path
        d="M646.51,184.02l1.83-1.7c3.05.89,6.23,1.09,9.54.6,3.31-.48,5.93-1.62,7.85-3.41,1.09-1.01,1.89-2.33,2.41-3.96-.85.12-1.63.05-2.34-.2-.71-.25-1.35-.68-1.93-1.3-.89-.96-1.3-2.02-1.23-3.19.07-1.17.55-2.18,1.45-3.02,1.11-1.04,2.46-1.44,4.03-1.21,1.57.23,3.03,1.06,4.37,2.51,1.64,1.77,2.41,3.66,2.3,5.69-.11,2.03-1.04,3.85-2.79,5.48-2.8,2.6-6.47,4.25-11,4.96-4.53.7-9.36.28-14.5-1.25Z" />
    <path
        d="M736.41,173.52l11.86,17.79-1.75,1.16c-1.51-2.16-2.9-3.36-4.17-3.59-1.27-.23-3.02.4-5.27,1.89l-37.29,24.85,3.16,4.74c4.91,7.36,11.68,9.17,20.31,5.41l1.75,2.62-17.11,6.88-1.12-1.67c1.12-.78,1.34-1.69.67-2.71l-17.57-26.37,1.75-1.16c1.46,2.14,2.85,3.33,4.17,3.55s3.07-.39,5.26-1.85l31.54-21.02c2.34-1.56,3.59-2.99,3.77-4.3.17-1.31-.39-2.99-1.7-5.06l1.75-1.16Z" />
    <path
        d="M763.03,214.86l9.64,19.08-1.87.95c-1.24-2.33-2.48-3.68-3.71-4.06-1.23-.38-3.05.03-5.45,1.25l-39.99,20.21,2.57,5.08c3.99,7.9,10.5,10.5,19.52,7.8l1.42,2.81-17.81,4.79-.91-1.79c1.21-.64,1.54-1.51.99-2.61l-14.29-28.28,1.87-.95c1.2,2.3,2.43,3.64,3.71,4.03,1.28.38,3.1-.02,5.45-1.21l33.83-17.1c2.51-1.27,3.92-2.54,4.25-3.81.33-1.28-.03-3.02-1.09-5.23l1.87-.95Z" />
    <path
        d="M758.46,321.48c-10.51-6.16-17-12.83-19.46-20.02-2.01-5.87-1.57-11.9,1.31-18.11,2.88-6.2,8.25-10.65,16.11-13.34,5.49-1.88,10.81-2.34,15.97-1.4,5.16.94,9.97,3.14,14.45,6.58,4.47,3.44,7.78,8.29,9.92,14.54,1.87,5.45,2.77,10.9,2.72,16.33l-12.49,4.27-1-2.94c3.79-1.7,6.26-4.46,7.4-8.3,1.14-3.83.98-7.89-.49-12.16-2.04-5.98-5.84-9.92-11.4-11.84s-11.51-1.78-17.88.4c-6.89,2.36-11.95,6.26-15.17,11.7-3.22,5.44-3.79,11.2-1.71,17.29,2.08,6.09,6.83,11.46,14.25,16.13l-2.52.86Z" />
    <path
        d="M759.42,335.48c.34,1.51.12,2.88-.66,4.11-.78,1.23-1.86,2-3.22,2.3-1.39.31-2.7.08-3.92-.71s-2-1.9-2.32-3.32c-.32-1.4-.09-2.72.67-3.96.77-1.24,1.85-2.01,3.24-2.33,1.45-.33,2.78-.08,3.98.74,1.2.82,1.95,1.88,2.24,3.16Z" />
</svg>