<svg xmlns="http://www.w3.org/2000/svg" viewBox="0 0 2980.05 618.9" fill="#FFFFFF">
  <g>
    <path d="M2980.05,363.12c-.3.87-.71,1.72-.88,2.61-.28,1.38.06,2.91-1.28,4.37-1.38.62-3.16.32-4.88.32-20.48.02-40.95.02-61.43.02-15.52,0-31.03,0-46.55,0-1.73,0-3.46.11-5.28.17-.84,2.02-1.32,3.85-1.57,5.74-1.03,7.79-1.46,15.61-1.06,23.46.65,12.83,4.9,24.38,12.69,34.59,8.46,11.08,19.8,16.88,33.61,17.97,16.98,1.34,31.44-4.26,43.6-16.02,5.9-5.7,10.75-12.25,14.99-19.26,1.06-1.76,2.15-3.5,3.38-5.49,1.22.58,2.27.92,3.12,1.52,2.27,1.6,2.45,2.18,1.41,4.83-9.64,24.47-25.15,44-48.21,57.15-11.11,6.34-23.03,9.47-35.82,8.9-10.7-.48-20.82-3.25-30.17-8.58-9.44-5.38-16.52-13.07-21.45-22.7-6.81-13.28-9.48-27.48-8.47-42.29,1.09-15.89,4.49-31.32,10.22-46.2,6.88-17.87,17.81-32.83,32.65-44.88,18.66-15.15,40.17-21.34,63.98-19.5,10.23.79,19.66,4.36,27.93,10.52,10.83,8.06,16.9,18.94,18.58,32.32.13,1.07.58,2.09.88,3.14v17.28ZM2940.45,358.73c.39-1.49.89-2.56.92-3.63.16-5.43.22-10.86.27-16.28,0-.79-.21-1.58-.39-2.36-3.55-14.98-18.39-25.21-33.58-23.01-8.02,1.16-15.51,3.9-22.08,8.71-11.63,8.52-19.21,19.91-23.25,33.69-.25.84-.03,1.81-.03,2.89h78.15Z" />
    <path d="M103.39,186.58c-2.69-.84-4.65-1.48-6.63-2.06-11.81-3.5-23.46-7.43-34.73-12.44-12.03-5.36-23.34-11.92-33.71-20.07-6.34-4.98-11.78-10.78-16.46-17.34-1.81-2.54-2.3-5.17-1.66-8.16,2.95-13.76,5.84-27.52,8.78-41.28.26-1.24.67-2.44,1.07-3.86,6.2-1.66,12.58-2.07,18.85-3.13,6.3-1.07,12.65-1.88,18.97-2.85,6.48-.99,12.95-2.03,19.42-3.07,6.31-1.01,12.63-2.03,18.93-3.09,6.28-1.06,12.55-2.17,18.73-3.24.25-1.04-.2-1.43-.89-1.51-2.54-.3-5.08-.59-7.63-.82-17.32-1.6-34.05-5.51-50.03-12.48-5.45-2.38-10.59-5.27-15.34-8.84-1.5-1.13-2.82-2.5-4.37-3.89,1.44-4.47,2.78-8.71,4.17-12.94,1.39-4.25,2.78-8.51,4.23-12.74,1.43-4.18,2.48-8.5,4.46-12.73,1.21.71,2.07,1.13,2.82,1.68,12.71,9.25,26.91,15.31,41.94,19.56,13.25,3.76,26.77,6.2,40.43,7.87,14.31,1.76,28.67,2.48,43.08,2.28.94-.01,1.88.17,3.02.27.04,3.7-1.77,6.87-2.1,10.33-.34,3.66-.93,7.3-1.15,10.96-.21,3.51-.16,7.03-.1,10.55.06,3.51.27,7.01.42,10.71-1.17.7-2.18,1.46-3.31,1.94-4.56,1.92-9.11,3.92-13.76,5.59-23.65,8.45-47.78,15.32-71.99,21.94-1,.27-1.96.72-3.02,1.12.68,1.24,1.54.83,2.2.78,15.15-1.09,30.3-2.2,45.45-3.35,9.57-.73,19.13-1.53,28.69-2.3,3.67-.29,7.33-.59,11-.9,3.88-.32,6.96-2,9.3-5.2,1.97-2.7,4.2-5.21,6.18-7.64,2.01.02,2.3,1.41,2.87,2.49,4.11,7.87,9.39,14.85,15.79,21,4.28,4.12,9.04,7.6,14.01,10.86,3.06,2.01,6.02,4.25,8.67,6.76,4.77,4.51,7.7,10.2,9.11,16.58,1.13,5.1.71,10.18-1.04,15.12-1.84,5.18-4.48,9.92-8.02,14.11-2.26,2.68-4.77,5.17-7.24,7.67-2.96,3-6.48,5.04-10.43,6.63-28.71,11.57-52.26,30.01-71.39,54.22-15.29,19.36-26.89,40.82-36.01,63.67-7.97,19.95-13.72,40.56-18.2,61.55-3.78,17.69-6.6,35.54-8.37,53.53-2.48,25.18-3.58,50.42-2.56,75.73.1,2.56.18,5.12.25,7.68.11,3.98-1.55,7.09-4.63,9.53-4.31,3.41-9.27,5.04-14.68,5.14-3.02.06-6.09-.19-9.06-.71-8.78-1.55-16.68-5.27-24.28-10.24C15.08,436.98,6.82,366.48,0,295.6c4.64-4.25,9.26-8.4,13.79-12.66,4.54-4.27,9.04-8.6,13.47-12.99,4.43-4.39,8.79-8.86,13.11-13.36,4.32-4.5,8.59-9.05,12.82-13.63,4.24-4.58,8.42-9.21,12.6-13.84,4.18-4.63,8.33-9.29,12.48-13.95,4.15-4.66,8.31-9.31,12.41-14.01,4.08-4.68,8.43-9.13,12.71-14.58ZM56.75,127.04c.62,2.12,2.35,2.48,3.64,3.25,21.18,12.51,44.01,20.92,67.51,27.61.71-.64,1.23-1.01,1.63-1.48,8.48-9.98,16.95-19.97,25.4-29.98.33-.39.43-.97.86-2.01-33.21,4.71-65.93,7.3-99.05,2.62Z" />
    <path d="M689.42,471.36c.1,1.07.27,1.85.22,2.63-.25,3.86-1.59,3.79-4.2,3.78-5.76-.02-11.52,0-17.28,0-20.8,0-41.6.01-62.39-.02-1.72,0-3.53.43-5.43-.79.3-1.6.61-3.29.94-5.07,1.81-1.09,3.75-1.07,5.63-1.12,3.72-.11,7.3-.93,10.79-2.11,6.15-2.08,10.47-6.15,12.43-12.37,1.15-3.65,2.04-7.4,2.71-11.17,4.28-23.93,8.48-47.87,12.68-71.81,1.44-8.19,2.9-16.38,4.22-24.59.56-3.47.83-6.99,1.18-10.49.1-.95.08-1.93-.01-2.88-.69-6.79-4.12-10.75-12.31-10.16-2.84.2-5.63,1.1-8.44,1.71-.77.17-1.53.42-2.57.72-.46-.79-1.16-1.52-1.29-2.34-.21-1.38-.06-2.82-.06-4.41,1.62-.66,3.08-1.28,4.56-1.84,15.24-5.81,30.49-11.57,45.71-17.42,4.12-1.58,8.25-2.38,12.48-1.38,1.15,1.28.63,2.59.42,3.79-1.37,8.04-2.82,16.07-4.21,24.1-.43,2.45-.77,4.92-1.17,7.47,1.87-.16,2.36-1.49,3.17-2.43,4.08-4.71,8-9.58,12.29-14.1,3.18-3.35,6.75-6.36,10.32-9.32,3.96-3.29,8.45-5.79,13.21-7.72,5.94-2.4,12.06-3.07,18.34-1.53,7.74,1.9,12.73,7.48,13.82,15.34.17,1.23.44,2.45.71,4,1.13-.18,2.08-.18,2.9-.49,14.95-5.67,29.89-11.35,44.81-17.08,3.93-1.51,7.91-2.56,12.15-2.34.77.04,1.53.27,2.26.41.89,1.91.21,3.64-.07,5.31-1.35,8.04-2.82,16.06-4.21,24.1-.23,1.35-.68,2.73.01,4.34,1.7-.55,2.66-1.86,3.85-2.86,5.88-4.94,11.64-10.03,17.69-14.73,6.59-5.12,13.82-9.25,21.56-12.42,6.73-2.76,13.69-4.51,21-4.21,3.49.15,7.03.56,10.44,1.34,9.54,2.18,16.22,7.99,20.19,16.88,4.08,9.13,5.27,18.71,4.28,28.61-1.22,12.27-3.42,24.39-5.54,36.52-2.42,13.86-4.95,27.7-7.4,41.56-1.14,6.46-2.31,12.91-3.3,19.39-.51,3.31-.75,6.68-.94,10.03-.1,1.74.09,3.52.31,5.26.68,5.31,3.63,8.79,8.76,10.27,1.98.57,4.06.82,6.11,1.15,2.19.35,4.46.11,6.75.93.82,2-.24,3.7-.61,5.46-1.76,1.12-3.56.71-5.27.71-20.16.03-40.32.02-60.48.02-5.44,0-10.88.02-16.32-.02-1.07,0-2.14-.23-3.49-.38.21-1.96.4-3.66.56-5.07,1.35-1.5,2.86-1.28,4.27-1.37,2.55-.16,5.12-.13,7.66-.45,8.51-1.06,14.67-5.46,17.59-13.59,1.67-4.64,2.87-9.5,3.78-14.35,2.41-12.73,4.58-25.5,6.79-38.26,2.46-14.18,4.89-28.37,7.29-42.56,1.24-7.3,1.63-14.63.43-21.98-.23-1.42-.54-2.83-.96-4.2-2.17-6.96-6.96-10.92-14.1-12.03-6.11-.95-12.12-.28-18.02,1.51-5.39,1.63-10.43,4.04-15.28,6.87-6.38,3.72-12.17,8.25-17.79,13.02-2.19,1.86-3.43,4.07-3.92,6.9-4.18,24.27-8.43,48.53-12.64,72.79-1.4,8.04-2.86,16.06-4.09,24.12-.46,2.98-.58,6.07-.44,9.08.28,6.05,3.62,10.18,9.49,11.79,2.29.63,4.72.75,7.09,1.04,2.35.28,4.77,0,6.96.74.21.46.47.75.46,1.02-.23,5.28-.3,5.37-5.48,5.37-25.44.01-50.88,0-76.31,0-1.41,0-2.82-.14-4.26-.21-.63-2.25.5-3.95.63-5.89,1.89-.99,3.84-.71,5.71-.94,2.69-.33,5.42-.51,8.03-1.17,5.42-1.37,9.33-4.78,11.82-9.77,2.38-4.75,3.98-9.78,4.97-14.98,1.98-10.37,3.87-20.75,5.7-31.14,3.11-17.64,6.21-35.28,9.18-52.94,1.22-7.25,2.1-14.56,3.09-21.85.4-2.92-.15-5.76-1.14-8.49-1.06-2.94-3.16-4.68-6.31-5.22-3.09-.53-6.05.04-9.01.73-2,.46-3.98,1.07-6.05,1.63-.76-1.03-1.38-1.88-1.98-2.69-.43.15-.83.17-.97.37-1.58,2.21-2.93,4.61-4.71,6.63-4.17,4.75-9.47,6.93-15.85,6.2-2.76-.31-5.29-1.27-7.61-2.74-1.62-1.02-3.12-2.23-4.63-3.4-1.77-1.37-3.43-2.89-5.28-4.15-4.24-2.91-7.27-3-11.47.08-3.08,2.26-6.13,4.7-8.66,7.54-4.57,5.13-8.75,10.6-13.06,15.96-1.74,2.16-2.61,4.67-3.09,7.43-2.73,15.92-5.57,31.82-8.36,47.72-2.07,11.81-4.24,23.61-6.09,35.46-.61,3.91-.7,7.99-.44,11.95.54,8.25,5.21,13.62,13.22,15.62,2.31.58,4.72.8,7.09,1.14,1.39.2,2.79.34,4.28.51Z" />
    <path d="M2230.93,312.87c1.08-5.81,2.13-11.11,3.05-16.43,1.82-10.55,3.64-21.11,5.33-31.69.86-5.37,1.58-10.76,2.1-16.17.21-2.19-.03-4.49-.48-6.65-1.06-5.14-4.32-7.76-9.53-7.5-2.85.14-5.67.89-8.49,1.42-1.39.26-2.76.64-4.17.98-1.46-1.71-1.4-3.67-1.89-5.26,1.08-2.02,2.92-2.29,4.53-2.91,9.99-3.86,20-7.67,29.99-11.52,5.52-2.13,11-4.35,16.53-6.45,4.34-1.66,7.55-1.84,12.45-.81-.1,1.34-.08,2.75-.32,4.11-2.67,15.27-5.4,30.54-8.09,45.81-3.02,17.16-6.02,34.33-9.04,51.49-3.03,17.16-6.12,34.31-9.11,51.48-3.95,22.68-7.87,45.36-11.7,68.06-.9,5.35-1.8,10.74-1.44,16.22.09,1.44.12,2.89.41,4.29.84,4.04,3.49,6.4,7.6,6.83,3.39.36,6.69-.28,9.95-1.13,1.52-.4,3.05-.79,4.49-1.16,2.2,1.8,1.75,3.85,1.44,6.17-1.04.54-2.12,1.22-3.28,1.68-15.32,6.01-30.67,11.98-45.99,18-2.71,1.06-5.49,1.69-8.38,1.89-1.75.12-3.49.17-5.14-.65-.68-1.63-.12-3.19.13-4.73.73-4.42,1.55-8.82,2.28-13.23.2-1.21.16-2.47.27-4.3-1.39.79-2.36,1.22-3.2,1.84-3.87,2.83-7.61,5.85-11.57,8.55-8.28,5.65-17.37,9.31-27.22,11.43-33.51,7.22-57.73-14.94-65.41-37.32-2.19-6.39-3.43-12.98-3.95-19.7-1.48-19.24,2.04-37.58,10.05-55.08,7.45-16.3,17.26-30.99,30.16-43.52,6.33-6.15,13.23-11.59,20.83-16.1,15.08-8.95,31.41-12.4,48.8-10.85,9.5.85,17.99,4.24,25.03,10.9.75.71,1.72,1.19,2.97,2.04ZM2129.51,403.61c.3,5.26.39,10.54.93,15.78,1.39,13.61,7.22,25.06,17.42,34.2,5.77,5.17,12.55,8.12,20.32,8.75,7.7.62,14.98-.95,21.75-4.55,3.8-2.02,7.31-4.57,10.98-6.82,5-3.07,7.36-7.58,8.31-13.32,2.88-17.5,6.03-34.95,9.09-52.41,1.6-9.13,3.32-18.23,4.81-27.38,1.44-8.85.63-17.52-2.61-25.93-3.63-9.4-10.26-15.6-19.77-18.84-7.28-2.48-14.46-2.02-21.59.58-5.46,1.98-10.37,4.95-14.95,8.48-8.64,6.67-15.08,15.13-20.05,24.77-9.16,17.78-13.71,36.73-14.63,56.69Z" />
    <path d="M1590.66,471.42c-.37,2.35-.64,4.03-.94,5.93-1.23.19-2.29.48-3.35.49-4.48.05-8.96.03-13.44.03-21.12,0-42.23.01-63.35-.02-1.7,0-3.5.45-5.32-.66-.21-1.92.45-3.67.83-5.74,1.82-.2,3.38-.4,4.95-.52,1.59-.12,3.21-.07,4.79-.26,7.35-.91,12.89-4.48,16.12-11.29,2.62-5.53,4.2-11.4,5.29-17.39,2.92-16.05,5.76-32.1,8.57-48.17,2.18-12.44,4.31-24.89,6.35-37.36.9-5.52,1.59-11.08,2.27-16.64.38-3.04.22-6.07-.84-9-1.15-3.14-3.33-4.97-6.68-5.41-2.91-.38-5.74.08-8.56.72-2.15.48-4.29,1.04-6.37,1.55-1.76-1.89-1.38-4.17-2.63-6.07,1.3-.69,2.22-1.3,3.22-1.68,15.97-6.12,31.95-12.21,47.93-18.3,4.1-1.56,8.28-2.16,12.88-1.32,0,.98.11,1.74-.02,2.47-1.59,9.3-3.22,18.59-4.82,27.89-.18,1.06-.2,2.15-.35,3.82,1.32-.94,2.24-1.48,3.04-2.18,3.87-3.35,7.65-6.81,11.57-10.09,8.14-6.79,16.83-12.74,26.52-17.12,7.53-3.4,15.35-5.58,23.67-5.24,3.49.14,7.02.61,10.43,1.39,9.17,2.12,15.64,7.71,19.65,16.17,3.06,6.45,4.46,13.31,4.82,20.41.3,5.79-.31,11.53-1.23,17.21-2.47,15.15-5.16,30.26-7.77,45.38-2.57,14.97-5.18,29.93-7.69,44.91-.5,2.99-.63,6.04-.9,9.07-.06.63-.03,1.28,0,1.92.36,8.47,4.26,12.93,12.65,14.25,2.99.47,6.03.64,8.83.93,1.23,1.08.91,2.22.66,3.29-.21.92-.6,1.8-.98,2.89-1.11.14-2.19.38-3.27.38-26.07.02-52.15.02-78.22,0-1.1,0-2.2-.17-3.38-.27-.63-2.42-.17-4.5,1.13-6.75,1.52,0,3.1,0,4.68,0,3.52-.03,7.02-.21,10.44-1.24,5.67-1.71,9.82-5.17,12.52-10.44,1.84-3.6,2.87-7.47,3.61-11.39,1.68-8.79,3.23-17.61,4.8-26.43,3.1-17.47,6.21-34.95,9.26-52.43,1.18-6.78,2.31-13.58,2.16-20.49-.07-3.35-.33-6.73-.91-10.02-1.58-8.95-7.09-14-16.14-15.14-5.66-.71-11.19.06-16.57,1.74-3.34,1.04-6.65,2.33-9.79,3.89-8.5,4.21-16.17,9.68-23.33,15.9-2.31,2.01-3.55,4.39-4.06,7.36-4.54,26.31-9.13,52.62-13.68,78.92-1.09,6.3-2.18,12.6-3.12,18.93-.35,2.36-.46,4.79-.36,7.17.28,6.75,3.82,11,10.39,12.6,1.7.41,3.46.59,5.21.76,2.69.26,5.39.42,8.81.68Z" />
    <path d="M214.37,471.42c.33,2.54.11,4.36-.72,5.78-.43.33-.54.45-.68.52-.14.07-.31.13-.46.13-26.55.05-53.11.1-79.66.13-1.12,0-2.24-.04-3.36-.1-.31-.02-.6-.19-1.02-.32-.78-1.92.36-3.65.58-5.31,1.13-1.18,2.41-1.18,3.7-1.23,2.23-.08,4.49-.05,6.7-.34,6.61-.87,11.63-4.18,14.89-10.08,2.03-3.67,3.41-7.6,4.32-11.66,1.43-6.4,2.69-12.83,3.85-19.28,3.12-17.47,6.15-34.96,9.22-52.44,2.21-12.6,4.27-25.23,5.74-37.94.32-2.78-.07-5.44-.87-8.04-1.09-3.55-3.53-5.83-7.31-5.9-2.84-.05-5.71.45-8.53.9-1.87.3-3.68.94-5.68,1.48-1.62-1.84-2.09-3.9-2.01-6.19,1.26-1.46,2.99-1.92,4.61-2.53,15.09-5.73,30.2-11.44,45.3-17.14,3.63-1.37,7.4-2,11.29-1.82.61.03,1.21.24,1.75.36.83,1.73.25,3.3-.01,4.83-1.39,8.04-2.85,16.06-4.24,24.09-.26,1.51-.31,3.06-.51,5.09,2.03-.81,3.02-2.07,4.2-3.07,5.49-4.66,10.87-9.45,16.52-13.89,6.94-5.45,14.52-9.91,22.71-13.29,6.72-2.78,13.69-4.38,21-4.32,3.86.03,7.64.65,11.37,1.62,8.4,2.17,14.5,7.21,18.48,14.86,2.68,5.16,4.2,10.68,4.96,16.45.88,6.73.58,13.45-.49,20.09-2.76,17.05-5.71,34.06-8.63,51.08-2.25,13.08-4.62,26.14-6.83,39.22-.59,3.46-.98,6.98-1.14,10.49-.11,2.37.15,4.79.59,7.13.78,4.08,3.32,6.93,7.15,8.38,2.21.83,4.61,1.23,6.96,1.63,2.33.39,4.71.54,7.13.8.67,2.41.32,4.32-1,6.45-5.48.33-11.05.11-16.62.15-5.76.04-11.52,0-17.28,0h-16.8c-5.76,0-11.52,0-17.28,0-5.55,0-11.11.05-16.76-.05-.23-2.45.2-4.27.59-6.01,1.76-1.12,3.52-.91,5.27-.91,3.53,0,7.01-.34,10.43-1.3,5.9-1.67,10.23-5.24,12.76-10.78,1.25-2.74,2.29-5.66,2.9-8.6,2-9.71,3.81-19.45,5.58-29.21,2.23-12.27,4.42-24.55,6.47-36.85,1.66-9.93,3.11-19.9,4.6-29.86.74-4.96.18-9.91-.43-14.83-.24-1.88-.83-3.75-1.51-5.53-2.26-5.85-6.6-9.24-12.69-10.52-5.13-1.08-10.2-.53-15.23.54-5.51,1.17-10.68,3.31-15.61,6.01-7.33,4.01-14.08,8.83-20.43,14.25-2.56,2.18-4.01,4.72-4.59,8.1-4.6,26.79-9.35,53.56-14.03,80.33-.94,5.36-1.87,10.72-2.61,16.1-.39,2.84-.53,5.74-.44,8.61.19,6.04,3.48,10.27,9.3,11.96,2.28.66,4.7.88,7.07,1.17,2.37.29,4.76.42,7.48.65Z" />
    <path d="M2525.53,471.66c0,1.15.09,1.79-.02,2.4-.2,1.08-.52,2.15-.83,3.39-1.21.15-2.29.4-3.36.4-26.23.02-52.46.02-78.69,0-1.08,0-2.16-.21-3.57-.36.28-1.92.52-3.6.75-5.25,1.79-1.32,3.72-1.25,5.62-1.36,2.07-.12,4.19-.05,6.21-.47,6.69-1.38,11.6-5.13,14.45-11.43,2.45-5.43,4.04-11.13,5.09-16.96,3.31-18.41,6.53-36.83,9.75-55.26,1.76-10.08,3.52-20.16,5.15-30.26.92-5.68,1.61-11.4,2.32-17.11.36-2.89.12-5.75-.85-8.53-1.1-3.15-3.25-4.98-6.61-5.51-2.93-.45-5.74.12-8.56.66-2.18.42-4.32,1.01-6.46,1.53-1.87-1.7-1.54-3.9-2.17-5.39,1.03-2.11,2.72-2.35,4.19-2.91,12.1-4.6,24.21-9.17,36.31-13.77,3.29-1.25,6.55-2.55,9.83-3.81,3.63-1.4,7.4-1.99,11.29-1.72.61.04,1.2.28,2,.47-.31,5.88-1.77,11.44-2.64,17.09-.83,5.43-2.04,10.81-2.73,16.76,2.22-.75,3.24-2.01,4.37-3.07,5.96-5.58,12.19-10.84,18.83-15.61,6.39-4.58,13.13-8.56,20.4-11.56,7.03-2.9,14.32-4.67,21.95-4.19,3.64.23,7.31.81,10.86,1.7,8.04,2.02,13.9,6.99,17.78,14.27,3.76,7.05,5.3,14.69,5.67,22.61.25,5.31-.34,10.57-1.18,15.77-2.47,15.31-5.15,30.58-7.78,45.86-2.57,14.97-5.29,29.91-7.71,44.9-.68,4.23-.86,8.61-.69,12.9.28,6.7,3.69,10.53,10.22,12.14,1.85.46,3.78.61,5.68.84,1.89.23,3.79.37,5.59.55q.56,2.72-.48,5.79c-1.74,1.03-3.7.59-5.57.59-21.59.03-43.18.02-64.78.02-3.68,0-7.36.01-11.04-.01-1.1,0-2.19-.11-3.58-.19-.41-2.06-.19-3.85.54-5.53,1.63-1.26,3.42-1.02,5.16-1.02,3.53,0,7.02-.22,10.44-1.21,5.7-1.65,9.99-5.02,12.54-10.36,1.23-2.58,2.29-5.32,2.88-8.1,1.97-9.38,3.77-18.8,5.49-28.24,2.24-12.27,4.38-24.55,6.47-36.84,1.66-9.77,3.28-19.55,4.73-29.36.89-6.05.77-12.14-.46-18.15-.45-2.17-1.15-4.35-2.13-6.33-2.34-4.75-6.32-7.5-11.45-8.65-5.28-1.19-10.5-.61-15.7.48-5.04,1.06-9.8,2.91-14.35,5.3-7.96,4.19-15.23,9.38-22.06,15.23-2.47,2.11-3.74,4.63-4.28,7.76-4.53,26.31-9.08,52.62-13.7,78.91-1.24,7.09-2.72,14.14-3.18,21.33-.14,2.22-.21,4.5.13,6.68.84,5.42,4.02,8.99,9.35,10.35,2.3.59,4.72.78,7.1,1.01,2.37.23,4.76.24,7.42.83Z" />
    <path d="M2438.15,444.46c.52,4.08-.08,7.94-3.03,11.08-6.37,6.77-13.08,13.16-20.94,18.22-4.32,2.78-8.81,5.18-13.78,6.62-3.91,1.13-7.87,1.37-11.87.92-6.29-.71-10.5-4.39-12.28-10.51-.95-3.28-.96-6.62-.85-9.99.06-1.86.54-3.77-.22-5.54-1.66-.43-2.53.69-3.56,1.35-8.88,5.7-17.73,11.45-26.64,17.1-5.45,3.46-11.41,5.78-17.73,7.06-6.14,1.24-12.3,1.74-18.57.6-14.4-2.61-25.09-13.69-26.53-28.33-1.87-19.02,4.59-34.9,19.01-47.41,7.77-6.74,16.59-11.95,25.77-16.55,13.31-6.67,27.12-12.14,41.06-17.32,6.89-2.56,13.79-5.1,20.75-7.45,2.25-.76,3.38-1.94,3.82-4.28,1.79-9.46,3.09-18.92,2.06-28.59-1.14-10.77-7.48-17.56-18.11-19.27-5.93-.96-11.77-.9-17.55.86-6.17,1.88-11.13,5.52-15.14,10.49-2.14,2.65-3.52,5.71-4.09,9.09-.64,3.78-1.21,7.58-1.89,11.35-.28,1.57-.63,3.15-1.16,4.65-2.71,7.64-8.2,12.52-17.63,13.25-6.65.52-11.79-3.63-13.06-10.18-.98-5.02-.13-9.87,1.58-14.6,1.42-3.95,3.65-7.46,6.29-10.71,10.72-13.19,24.48-21.32,41.11-24.58,9.61-1.88,19.34-2.53,29.12-1.96,7.04.41,13.99,1.52,20.69,3.79,2.86.97,5.7,2.16,8.3,3.67,8.66,5.02,13.22,12.74,14.15,22.63.64,6.76-.41,13.42-1.54,20.03-4.51,26.31-9.11,52.6-13.65,78.9-.76,4.41-1.47,8.84-1.94,13.28-.32,3.01-.49,6.09-.16,9.09.55,5.13,4.55,7.57,9.35,5.7,2.49-.97,4.8-2.55,6.96-4.16,3.33-2.48,6.46-5.24,9.68-7.87.61-.49,1.22-1.06,2.22-.42ZM2389.61,375.68c-1.16.21-1.64.22-2.08.38-11.83,4.37-23.63,8.81-35.07,14.13-6.09,2.83-11.93,6.12-17.29,10.21-3.82,2.92-7.36,6.14-10.38,9.9-6.37,7.92-9.44,16.94-8.96,27.11.71,14.86,12.63,24.38,27.16,21.53,3.26-.64,6.45-1.85,9.54-3.11,7.87-3.22,14.97-7.83,22.1-12.41,2.65-1.7,3.95-3.89,4.48-6.93,3.07-17.77,6.25-35.53,9.38-53.29.41-2.33.7-4.67,1.12-7.52Z" />
    <path d="M1094.34,443.7c.65,3.17-.19,5.77-1.28,8.22-.83,1.87-1.88,3.8-3.31,5.22-7.51,7.44-15.27,14.6-24.66,19.68-4.68,2.53-9.58,4.41-14.98,4.66-.8.04-1.6.08-2.4.08-10.83-.03-15.33-6.16-16.24-15.17-.22-2.21-.01-4.47,0-6.71,0-1.41,0-2.83,0-4.68-1.13.37-2.04.48-2.74.93-8.07,5.19-16.13,10.39-24.13,15.68-8.43,5.57-17.61,8.95-27.65,10.13-5.99.7-11.87.25-17.5-1.8-12.44-4.52-19.69-13.65-21.19-26.64-2.15-18.61,4.26-34.27,18.08-46.84,5.94-5.4,12.68-9.72,19.67-13.65,10.61-5.97,21.75-10.83,33.07-15.24,11.02-4.29,22.15-8.29,33.23-12.41,1.05-.39,2.09-.82,3.16-1.12,1.74-.49,2.61-1.63,2.95-3.37,1.88-9.6,3.38-19.23,2.17-29.05-.19-1.58-.45-3.17-.83-4.71-1.67-6.77-5.91-11.3-12.47-13.4-6.48-2.08-13.14-2.77-19.88-1.18-7.63,1.8-13.7,6.02-18.32,12.29-1.82,2.47-2.91,5.31-3.38,8.37-.57,3.63-1.14,7.27-1.82,10.88-.36,1.88-.81,3.76-1.49,5.54-2.98,7.88-8.97,11.84-17.16,12.5-6.9.56-11.99-3.57-13.28-10.46-.94-5.04.02-9.86,1.75-14.58,1.34-3.63,3.39-6.87,5.76-9.91,8.2-10.49,18.57-18.02,31.21-22.19,19.67-6.49,39.54-6.92,59.49-1.26,2.44.69,4.87,1.61,7.13,2.76,10.01,5.07,15.09,13.44,15.96,24.49.48,6.11-.38,12.15-1.41,18.14-3.89,22.69-7.91,45.35-11.82,68.03-1.41,8.19-2.71,16.4-3.9,24.63-.39,2.68-.36,5.42-.36,8.14,0,1.25.22,2.57.64,3.75,1.04,2.96,3.2,4.4,6.29,3.99,1.7-.23,3.43-.83,4.93-1.65,2.09-1.15,4.04-2.59,5.93-4.05,2.78-2.15,5.44-4.46,8.2-6.64.69-.55,1.56-.86,2.56-1.4ZM1045.72,375.7c-2.27.68-3.79,1.08-5.27,1.6-12.54,4.34-24.73,9.49-36.58,15.46-2.85,1.43-5.63,3.02-8.33,4.71-5.18,3.23-9.83,7.11-13.81,11.76-5.11,5.96-8.44,12.78-9.54,20.58-.82,5.78-.66,11.53,1.87,16.91,3.63,7.72,9.72,12.05,18.32,12.65,3.71.26,7.32-.28,10.85-1.47,10.55-3.57,19.88-9.4,29.01-15.6,1.25-.85,2.02-2.03,2.34-3.49.24-1.09.45-2.19.64-3.29,2.42-13.51,4.85-27.03,7.24-40.55,1.08-6.11,2.07-12.23,3.26-19.27Z" />
    <path d="M1821.86,363.09c2.36-11.04,4.31-21.85,2.54-32.99-1.46-9.21-6.6-15.16-15.62-17.31-6.46-1.54-12.98-1.62-19.44.25-6.37,1.85-11.46,5.57-15.56,10.68-2.34,2.93-3.67,6.33-4.24,10.05-.58,3.79-1.07,7.61-1.94,11.34-.61,2.61-1.5,5.27-2.81,7.59-3.64,6.44-9.58,9.25-16.77,9.3-6.67.05-11.44-4.49-12.18-11.18-.59-5.36.11-10.59,2.51-15.42,1.48-2.99,3.24-5.91,5.3-8.52,10.77-13.62,24.85-21.86,41.85-25.04,8.66-1.62,17.42-2.41,26.25-2.01,7.54.34,14.95,1.46,22.18,3.66,1.37.42,2.75.86,4.08,1.4,12.53,5.07,19.37,15.06,19.41,28.62.01,3.51-.25,7.05-.83,10.51-3.19,19.24-6.53,38.45-9.78,57.68-2.29,13.55-4.53,27.12-6.7,40.69-.4,2.51-.55,5.11-.4,7.64.4,6.69,5,9.39,10.95,6.39,2.54-1.29,4.89-3.02,7.17-4.77,2.66-2.04,5.12-4.34,7.71-6.48.69-.56,1.54-.93,2.67-1.59.58,5.35-.76,9.77-4.11,13.14-7.66,7.73-15.67,15.11-25.38,20.3-4.7,2.51-9.64,4.32-15.03,4.48-1.91.06-3.85.04-5.74-.22-5.56-.76-9.37-3.8-11.27-9.13-1.32-3.68-1.59-7.48-1.29-11.35.13-1.73.21-3.46.29-4.96-1.53-1.22-2.39-.28-3.29.3-8.59,5.56-17.18,11.13-25.75,16.71-5.83,3.79-12.12,6.48-18.92,7.91-6.3,1.33-12.61,1.82-19.04.66-13.37-2.41-22.89-11.21-25.77-24.53-2.83-13.1-.34-25.42,6.22-36.98,3.6-6.34,8.57-11.53,14.26-16.04,6.29-4.98,13.06-9.22,20.14-12.95,11.9-6.27,24.33-11.34,36.87-16.16,8.65-3.32,17.4-6.39,26.1-9.59,1.78-.66,3.54-1.39,5.33-2.1ZM1819.25,375.74c-1.21.34-2.27.56-3.26.94-5.98,2.25-11.98,4.48-17.92,6.83-8.33,3.28-16.54,6.85-24.31,11.35-4.58,2.65-8.96,5.58-12.9,9.13-4.43,4-8.23,8.51-10.88,13.9-3.7,7.54-5.2,15.46-3.47,23.76,1.77,8.51,6.71,14.4,15.16,16.95,4.38,1.32,8.85,1.14,13.26-.06,4.96-1.35,9.73-3.23,14.19-5.76,5.15-2.91,10.12-6.12,15.23-9.1,2.82-1.65,4.29-3.86,4.85-7.19,2.93-17.5,6.15-34.95,9.13-52.45.45-2.62,1.42-5.25.93-8.3Z" />
    <path d="M1394.9,483.65c-3.73.02-10.7-.75-17.52-2.67-13.27-3.73-23.97-11.17-31.84-22.51-7.42-10.68-11.93-22.53-13.86-35.4-2.13-14.21-.29-28.02,3.84-41.66,6.63-21.9,17.74-41,34.91-56.34,11.1-9.91,23.46-17.69,37.88-21.89,15.41-4.49,30.89-4.63,46.41-.69,15.28,3.88,27.14,12.59,35.52,25.89,10.36,16.44,14.5,34.4,11.65,53.66-4.3,29.07-16.59,54.21-37.88,74.71-11.12,10.7-23.86,18.69-38.8,22.97-8.82,2.53-17.81,3.75-30.31,3.91ZM1465.37,374.76c0-3.52.07-7.04-.02-10.55-.16-6.27-1.32-12.39-3.07-18.4-1.94-6.64-4.66-12.97-8.69-18.6-8.53-11.92-20.07-16.86-34.62-14.28-12.37,2.19-22.26,8.42-29.87,18.4-7.2,9.43-11.79,20.08-14.96,31.41-2.82,10.03-4.28,20.3-5.32,30.66-1.34,13.35-.51,26.52,2.53,39.54,1.9,8.15,5.01,15.84,9.85,22.75,5.41,7.73,12.76,12.49,22.11,13.84,7.59,1.1,14.97.16,22.03-3.02,12.88-5.79,21.79-15.43,27.29-28.3,8.67-20.25,12.95-41.42,12.74-63.45Z" />
    <path d="M590.34,411.85c2.59.2,3.68,1.67,5.25,2.7-.16,1.02-.13,2-.47,2.84-1.63,3.99-3.08,8.09-5.09,11.89-7.57,14.3-17.46,26.78-30.01,37.04-9.93,8.12-21.1,13.87-33.77,16.34-16.37,3.19-31.84.52-46.26-7.79-9.87-5.69-16.91-14.06-21.72-24.32-5.97-12.72-8.38-26.18-7.41-40.15,1.11-15.88,4.47-31.32,10.2-46.21,7-18.19,18.17-33.36,33.39-45.49,18.66-14.86,40.08-20.84,63.7-18.84,9.72.82,18.67,4.26,26.7,9.88,9.16,6.4,14.92,15.22,18.04,25.85,3,10.2,3.31,22.95.88,33.71-1.17,1.18-2.68.8-4.07.81-6.4.02-12.8-.03-19.2-.03-30.07,0-60.15-.01-90.22.02-1.88,0-3.84-.4-5.96.68-.56,3.46-1.3,7.05-1.69,10.69-1.43,13.36-.96,26.51,4.3,39.16,2.8,6.72,6.48,12.85,11.64,18.02,8.88,8.9,19.64,13.58,32.2,13.92,15.83.43,29.44-5.08,40.95-15.83,6.25-5.83,11.07-12.81,15.55-20.04,1-1.62,2.04-3.21,3.07-4.84ZM487.04,358.68c1.59.13,2.69.3,3.79.31,23.82.01,47.64.02,71.46,0,1.07,0,2.14-.26,3.48-.43.33-2.2.77-4.22.9-6.26.19-3.03.09-6.08.23-9.11.6-13.7-10.68-26.61-23.75-29.22-7.65-1.53-14.94-.58-22.01,2.51-17.78,7.77-28.52,21.55-33.92,39.86-.17.57-.1,1.22-.18,2.35Z" />
    <path d="M2792.17,410.14c2.32.27,3.93,1.11,5.08,2.64-.04.48,0,.82-.11,1.1-6.47,16.75-15.32,32.01-28.34,44.57-11.23,10.83-24.2,18.81-39.27,23.13-10.86,3.12-21.76,3.29-32.66.18-15.9-4.54-27.76-14.11-35.39-28.81-5.24-10.08-8.24-20.85-8.59-32.18-.65-21.25,2.92-41.82,12.24-61.01,11.66-24,29.61-41.91,54.15-52.76,12.31-5.44,25.33-7.74,38.81-7.18,6.91.29,13.66,1.55,20.17,3.91,10.49,3.81,18.44,10.68,23.98,20.35,3.14,5.47,4.29,11.34,3.09,17.57-1.45,7.53-5.64,12.73-13.16,14.99-5.38,1.62-10.73,1.54-16.01-.34-4.95-1.76-8.07-5.16-8.46-10.54-.25-3.34-.3-6.7-.15-10.04.13-2.9.09-5.74-.51-8.58-1.42-6.72-5.36-11.15-11.98-13.01-5.96-1.68-12.04-1.49-18.07-.45-9.28,1.6-17.08,6.12-23.75,12.66-9.45,9.26-15.88,20.41-20.03,32.87-4.55,13.63-6.73,27.64-5.87,42.03.68,11.3,3.37,22.1,8.77,32.13,2.14,3.97,4.76,7.58,8.04,10.69,5.64,5.35,12.35,8.49,20.05,9.4,13.73,1.62,26.34-1.58,37.88-9.11,5.53-3.6,10.38-7.99,14.71-12.97,4.52-5.2,8.59-10.73,12.26-16.57,1.01-1.6,2.11-3.15,3.14-4.66Z" />
    <path d="M1921.17,236.96c-1.19-2.23-2-4.07-1.83-6.43,1.2-.57,2.29-1.19,3.45-1.63,15.66-6.04,31.34-12.03,47-18.08,4.12-1.59,8.27-2.21,12.86-.97-.37,2.48-.67,4.83-1.08,7.16-4,22.67-8.03,45.34-12.03,68.02-3.67,20.78-7.29,41.58-10.97,62.36-3.98,22.52-8.02,45.02-11.97,67.54-1.94,11.02-3.83,22.06-5.55,33.11-.49,3.13-.58,6.39-.38,9.56.43,6.77,4,10.91,10.65,12.42,2.95.67,6.01.82,9.02,1.19,1.23.15,2.47.26,3.86.41.28,2.22-.21,4.01-.88,6.02-1.13.12-2.2.33-3.27.33-25.59.02-51.19.02-76.78,0-1.25,0-2.51-.18-3.75-.28-.87-2.1-.75-3.9.46-5.81,2.67-.79,5.55-.78,8.37-1.21,2.5-.38,5.04-.91,7.39-1.82,4.21-1.63,7.23-4.8,9.07-8.84,1.58-3.47,3.02-7.1,3.84-10.81,1.85-8.43,3.35-16.93,4.87-25.43,3.41-19.04,6.74-38.1,10.1-57.16,3.03-17.16,6.05-34.33,9.08-51.49,2.42-13.7,4.9-27.39,7.22-41.1,1.23-7.25,2.25-14.54,3.2-21.83.35-2.68.34-5.43.21-8.14-.07-1.56-.51-3.17-1.12-4.62-1.37-3.24-3.93-5.15-7.48-4.97-3.01.16-6,.81-8.98,1.33-1.4.24-2.75.7-4.56,1.17Z" />
    <path d="M375.67,318.75c-3.04-.96-5.92-.42-8.75-.5-3.04-.09-6.08.04-9.11-.04-2.84-.08-5.73.4-8.5-.37-.48-4.41-.2-5.26,2.88-6.77,25.58-12.61,44.15-32.33,57.93-56.94.63-1.12,1.2-2.26,1.85-3.36,1.76-2.97,3.35-3.37,7.53-1.72-2.92,18.33-6.58,36.63-9.5,55.27,4.58.97,8.9.39,13.16.54,4.31.16,8.63-.02,12.95-.03,4.3-.01,8.6-.03,13.08.25,1.15,4.61-.83,8.57-1.34,12.98-4.8.19-9.27.08-13.73.1-4.32.02-8.64,0-12.95,0-4.45.01-8.91-.07-13.56.08-.7,3.46-1.4,6.56-1.95,9.69-4.3,24.4-8.56,48.81-12.86,73.21-1.69,9.6-3.53,19.18-5.1,28.8-.72,4.4-1.1,8.88-1.34,13.34-.11,2.03.27,4.16.81,6.14,1.91,6.97,7.94,10.71,15.08,9.39,6.49-1.2,12.03-4.22,16.52-9.08,1.08-1.17,2.15-2.38,3.06-3.69,1.22-1.76,2.8-2.55,4.9-2.35,1.09.11,2.17.26,3.58.44-.36,1.1-.51,2.03-.94,2.82-5.33,9.87-12.48,18.16-21.57,24.74-6.31,4.57-13.3,7.59-20.97,9.03-5.13.97-10.19.7-15.17-.82-10.84-3.3-17.33-11.8-17.98-23.47-.36-6.43.27-12.79,1.37-19.1,5.18-29.6,10.42-59.19,15.64-88.79,1.53-8.66,3.1-17.31,4.61-25.97.22-1.23.24-2.49.36-3.84Z" />
    <path d="M1196.61,444.03c2.29-.36,4.33-.6,6.55.26-.08.63.02,1.32-.25,1.81-5.22,9.28-11.56,17.65-20.08,24.2-7.11,5.46-15.1,9.02-23.89,10.57-8.82,1.56-16.84-.56-23.82-6.23-4.27-3.47-6.76-8.04-7.78-13.41-.88-4.59-1.12-9.23-.48-13.85,1.16-8.23,2.35-16.46,3.76-24.65,3.34-19.38,6.8-38.73,10.23-58.09,2.37-13.38,4.78-26.75,7.17-40.13.33-1.87.92-3.74-.02-5.99-8.42-.68-17.02.18-25.79-.51-.51-2.76.12-4.89,2.19-6.5.87-.68,1.88-1.22,2.88-1.71,19.9-9.77,35.35-24.53,47.71-42.71,3.14-4.62,5.94-9.49,8.89-14.24.34-.54.65-1.1.99-1.65,2.12-3.4,2.43-3.52,7.41-2.57,0,.84.13,1.76-.02,2.63-2.96,16.85-5.95,33.69-8.92,50.53-.13.76-.11,1.55-.17,2.55,4.4.77,8.71.28,12.98.36,4.32.08,8.64,0,12.95.02,4.29.02,8.58-.11,13,.1,1.27,4.71-.53,8.7-1.22,13.09-1.68.11-3.08.29-4.47.29-10.24.02-20.47,0-30.71.02-1.57,0-3.14.12-4.85.19-1.45,3.78-1.8,7.61-2.46,11.33-4.98,28.01-9.87,56.04-14.76,84.07-1.4,8.03-2.75,16.07-4.08,24.11-.55,3.35-.33,6.7.3,10.03,1.48,7.95,7.91,12.3,15.86,10.76,7.21-1.4,12.99-5.18,17.67-10.75,1.13-1.34,2.21-2.71,3.23-3.95Z" />
    <path d="M1300.79,301.05c-.31,2.16-.58,4.51-.99,6.84-5.38,30.7-10.79,61.39-16.18,92.09-2.74,15.58-5.55,31.16-8.1,46.77-.64,3.91-.61,7.98-.43,11.95.25,5.56,3.43,9.19,8.64,10.88,2.1.68,4.38.85,6.58,1.2,2.03.32,4.15.06,6.19.91.85,1.98.04,3.72-.46,5.39-1.79,1.21-3.6.77-5.31.77-21.59.03-43.18.02-64.76.02-3.36,0-6.72.02-10.07-.01-1.1,0-2.2-.14-3.33-.22-1.3-2.05-.05-3.77.36-5.78,1.2-.25,2.42-.58,3.66-.75,1.74-.23,3.5-.38,5.25-.46,8.74-.39,14.65-4.79,18.19-12.66,2.05-4.56,3.31-9.35,4.2-14.22,2.7-14.78,5.28-29.58,7.88-44.38,2.1-11.96,4.26-23.92,6.19-35.91,1.27-7.89,2.22-15.83,3.26-23.75.4-3.06.01-6.07-1.04-8.98-1.13-3.12-3.27-4.96-6.66-5.44-2.93-.42-5.73.15-8.55.73-1.56.32-3.07.89-4.63,1.25-.73.17-1.52.11-2.2.15q-2.46-6.21,3.4-8.43c14.93-5.69,29.87-11.37,44.78-17.1,3.79-1.46,7.62-2.4,11.7-1.92.47.06.96.12,1.4.28.28.1.5.37,1.01.78Z" />
    <path d="M1711.45,614.72c-.44.9-.55,1.52-.84,1.62-.73.25-1.54.34-2.31.34-10.88.02-21.75.02-32.63,0-.78,0-1.57-.11-2.25-.16-.71-1.06-.33-1.75.52-1.93,1.55-.32,3.16-.4,4.74-.61,4.24-.57,7.11-2.88,8.15-7.04,1.04-4.18,1.83-8.43,2.63-12.67,1.09-5.81,2.1-11.64,3.09-17.47.16-.92.02-1.89.02-2.97-.61-.13-1.21-.38-1.82-.38-12.94-.02-25.88-.02-38.99-.02-.41,1.43-.88,2.6-1.09,3.82-1.51,8.5-2.98,17.01-4.43,25.52-.27,1.57-.47,3.17-.51,4.76-.08,3.11,1.03,4.82,3.9,5.87,1.33.49,2.8.62,4.21.88.62.11,1.3.04,1.89.24.38.13.66.58.98.89-.42.4-.83.82-1.27,1.2-.1.09-.31.07-.47.07-11.83-.02-23.67-.04-35.5-.08-.29,0-.58-.23-1.21-.5.48-.6.83-1.47,1.34-1.58,1.55-.34,3.17-.34,4.75-.56,4.04-.57,6.83-2.78,7.82-6.76,1.08-4.34,1.97-8.73,2.76-13.13,3.13-17.63,6.2-35.27,9.25-52.91.33-1.88.45-3.81.59-5.71.19-2.59-1.14-4.29-3.43-5.18-1.32-.51-2.75-.75-4.15-1.01-1.06-.2-2.14-.25-3.74-.43.7-.96,1.01-1.71,1.56-2.04.48-.29,1.24-.16,1.88-.16,10.72,0,21.43-.01,32.15,0,.79,0,1.61.04,2.36.25.33.09.75.68.73,1.02-.02.39-.42.98-.76,1.08-.75.22-1.58.14-2.37.26-1.57.24-3.16.41-4.69.82-3.19.87-5.21,3-6.07,6.2-.37,1.39-.76,2.78-1.01,4.19-1.54,8.49-3.06,16.99-4.56,25.49-.11.61-.01,1.25-.01,2.06.63.17,1.22.46,1.8.46,12.63.02,25.27,0,37.9-.01.31,0,.62-.13,1.19-.25.29-.73.79-1.55.95-2.44,1.54-8.66,3.05-17.32,4.52-25.99.24-1.41.3-2.86.4-4.29.16-2.36-.99-4.06-3.04-4.97-1.43-.63-3.03-.92-4.58-1.24-1.06-.22-2.17-.24-3.74-.4.62-.94.89-1.78,1.43-2.05.66-.32,1.56-.19,2.36-.19,10.56,0,21.11,0,31.67,0,.79,0,1.61.03,2.35.25.33.09.72.69.71,1.05-.01.39-.39,1.01-.73,1.1-.75.21-1.59.09-2.37.22-1.72.29-3.48.5-5.13,1.01-2.78.87-4.66,2.78-5.39,5.63-.68,2.63-1.32,5.28-1.8,7.95-3.43,19.36-6.82,38.73-10.19,58.1-.33,1.88-.55,3.8-.6,5.71-.08,3.13,1.05,4.83,3.95,5.81,1.5.5,3.13.6,4.7.88.62.11,1.23.2,2.45.4Z" />
    <path d="M2204.61,616.48c-.25-1.35.06-1.86.8-1.97,1.42-.2,2.86-.29,4.28-.46,4.44-.54,7.33-2.92,8.51-7.27.5-1.85,1.04-3.7,1.38-5.58,3.52-19.83,7.03-39.66,10.48-59.5.35-2.04.46-4.14.45-6.21-.02-3.45-1.58-5.32-4.96-6.02-1.24-.26-2.54-.17-3.82-.29-.61-.06-1.22-.24-2.24-.44.55-.82.82-1.74,1.33-1.89,1.04-.3,2.21-.24,3.32-.24,11.51-.01,23.03-.09,34.54.03,6.88.07,13.75.52,20.46,2.17,14.1,3.47,22.99,13.65,24.09,28.13,1.31,17.2-3.95,32.16-16.21,44.47-7.83,7.87-17.49,12.25-28.29,14.1-4.23.73-8.57,1.09-12.87,1.14-12.47.15-24.94.06-37.42.05-1.26,0-2.52-.14-3.83-.21ZM2231.17,609.86c6.26,2.19,14.89,2.77,21.1,1.47,12.1-2.53,21.27-9.36,27.72-19.69,6.74-10.79,9.2-22.75,7.86-35.37-1.26-11.78-9.3-20.72-20.83-23.49-6.98-1.67-13.96-1.03-20.9.47-1.23.26-1.97.99-2.18,2.23-.11.63-.18,1.27-.29,1.89-4.04,22.8-8.1,45.6-12.12,68.4-.24,1.37-.25,2.79-.36,4.09Z" />
    <path d="M151.28,574.01c-.53,2.9-1.08,5.71-1.57,8.54-1.29,7.4-2.55,14.81-3.82,22.21-.05.32-.12.63-.16.95-.67,5.35,1.07,7.71,6.4,8.69.31.06.67,0,.95.13,1.13.5,3.43-.89,3.27,1.41-.1,1.48-2.12.94-3.28.94-10.56.05-21.11.04-31.67.01-.93,0-1.86-.22-3.17-.39.44-.76.62-1.54,1-1.65.9-.27,1.89-.22,2.84-.31,6.46-.61,9.14-2.77,10.59-9.12,1.17-5.14,2.02-10.35,2.94-15.55,2.76-15.59,5.49-31.18,8.19-46.77.41-2.36.71-4.75.8-7.14.12-3.18-.93-4.74-4-5.72-1.95-.62-4.06-.71-6.1-1.09-.24-.04-.6-.48-.57-.66.08-.41.31-.84.6-1.16.18-.2.58-.25.89-.27.8-.06,1.6-.09,2.39-.09,10.08,0,20.15,0,30.23,0,.64,0,1.28-.02,1.92.04.75.07,1.59-.04,1.95.93.26.7-.57,1.25-2,1.44-2.05.28-4.14.46-6.1,1.04-2.77.81-4.66,2.73-5.5,5.55-.45,1.53-.93,3.07-1.21,4.64-1.57,8.81-3.09,17.64-4.62,26.46-.05.3.05.63.1,1.15,3.37.94,6.88.3,10.33.42,3.36.11,6.72.02,10.08.02s7.04.03,10.56,0c3.33-.03,6.67.18,10.2-.21.38-1.73.77-3.25,1.05-4.79,1.36-7.55,2.71-15.11,3.99-22.67.29-1.73.3-3.5.43-5.26.19-2.59-1.09-4.32-3.38-5.22-1.46-.57-3.07-.78-4.62-1.12-.76-.17-1.55-.22-2.3-.42-.17-.05-.33-.51-.32-.78.02-.27.21-.69.41-.75.75-.22,1.53-.45,2.3-.45,10.88-.03,21.75-.03,32.63,0,1.92,0,2.83.53,2.56,1.3-.41,1.18-1.47.94-2.37,1.1-2.04.34-4.12.56-6.08,1.17-2.59.8-4.35,2.65-5.13,5.29-.5,1.68-.98,3.39-1.28,5.11-3.69,20.94-7.36,41.89-11.01,62.83-.25,1.41-.39,2.85-.48,4.28-.17,2.55,1.06,4.37,3.35,5.27,1.61.63,3.38.84,5.09,1.23.87.2,1.75.4,2.87.65-.47.66-.67,1.27-.99,1.34-1.08.22-2.2.34-3.3.34-10.24.02-20.47.01-30.71.01-.64,0-1.31.09-1.91-.06-.53-.14-1.12-.46-1.44-.88-.4-.52.41-1.26,1.48-1.34.96-.07,1.92-.04,2.87-.15,4.95-.55,8.41-2.9,9.5-8.01.67-3.12,1.33-6.25,1.91-9.39,1.14-6.13,2.24-12.27,3.31-18.41.24-1.39.29-2.82.46-4.5-.91-.22-1.63-.53-2.35-.54-12.16-.03-24.31-.03-36.47-.01-.77,0-1.54.24-2.52.4Z" />
    <path d="M400.76,615.06c-.31.8-.34,1.21-.54,1.34-.39.24-.88.43-1.34.43-8.95,0-17.91-.03-26.86-.08-.28,0-.55-.27-1.11-.55.33-.49.55-1.22.95-1.34,1.05-.33,2.2-.35,3.29-.56,3.68-.7,6.03-2.83,6.76-6.55.75-3.76,1.46-7.53,2.13-11.31,1.22-6.93,2.45-13.85,3.56-20.8.35-2.19.54-4.47.37-6.67-.27-3.65-2.47-5.77-6.06-6.38-2.43-.41-4.8-.09-7.09.67-4.17,1.38-7.69,3.9-10.98,6.71-.76.65-1.25,1.86-1.43,2.9-1.93,10.7-3.78,21.41-5.62,32.12-.24,1.41-.36,2.86-.37,4.3-.02,2.51.95,3.83,3.34,4.61,1.05.34,2.19.43,3.27.7.57.14,1.11.43,1.83.73-.42.58-.62,1.18-.95,1.26-.91.22-1.88.31-2.83.31-8,.02-15.99.02-23.99,0-.92,0-1.84-.22-3.19-.39.53-.8.75-1.55,1.16-1.67,1.21-.36,2.51-.43,3.76-.67,3.32-.64,5.42-2.63,6.2-5.9.56-2.33,1.02-4.69,1.43-7.05,1.55-8.98,3.11-17.96,4.56-26.95.27-1.71.23-3.51.04-5.24-.53-4.77-4.23-7.04-8.34-6.85-1.88.09-3.79.63-5.57,1.28-1.79.65-3.49,1.6-5.13,2.57-5.68,3.36-6.02,3.96-7.13,10.41-1.46,8.51-3,17-4.46,25.51-.38,2.2-.73,4.43-.85,6.66-.19,3.46,1.06,4.99,4.43,5.74.93.21,1.93.16,2.83.46.39.13.58.85,1.06,1.61-1.35.2-2.26.46-3.18.46-8,.03-15.99.02-23.99.01-.48,0-.96-.04-1.43-.09-.7-.07-1.27-.41-1.15-1.16.06-.35.53-.8.9-.9,1.08-.28,2.2-.37,3.29-.61,2.54-.57,4.3-2.13,5.18-4.54.65-1.79,1.2-3.66,1.52-5.53,1.95-11.18,3.83-22.37,5.7-33.57.18-1.1.3-2.23.25-3.34-.12-2.86-1.5-4.08-4.27-3.87-.95.07-1.89.37-2.83.4-.36.01-.93-.36-1.05-.69-.13-.35.03-.94.28-1.26.27-.35.76-.57,1.2-.73,5.53-2.11,11.05-4.23,16.6-6.25.97-.35,2.1-.25,3.32-.38.72,2.22-.27,4.02-.47,5.86-.2,1.88-.54,3.75-.9,6.14,1.21-.78,2.04-1.21,2.75-1.78,1.88-1.49,3.67-3.09,5.56-4.57,3.46-2.69,7.3-4.59,11.62-5.44,2.72-.53,5.4-.4,8.04.5,3.57,1.22,5.97,3.62,7.25,7.14.47,1.31.83,2.66,1.32,4.28,2.76-2.29,5.18-4.36,7.68-6.34,3.3-2.61,6.97-4.47,11.12-5.38,10.37-2.26,17.61,3.4,17.21,13.98-.19,5.08-1.28,10.14-2.11,15.18-1.18,7.26-2.5,14.49-3.72,21.74-.21,1.26-.36,2.54-.34,3.81.03,2.13,1.09,3.66,3.13,4.36,1.32.45,2.7.74,4.4,1.19Z" />
    <path d="M1061.86,595.02c-3.32,6.4-6.55,12.64-9.79,18.87-.44.84-.96,1.63-1.53,2.59-5.77.48-11.5.15-17.23.21-5.76.06-11.51.01-17.27.01s-11.51.01-17.27,0c-5.7-.02-11.4.09-17.79-.11.78-1.11,1-1.73,1.43-1.96.53-.28,1.23-.23,1.86-.31,1.27-.18,2.55-.28,3.8-.54,3.95-.84,6.62-3.1,7.5-7.15.74-3.44,1.45-6.88,2.06-10.34,3.13-17.63,6.23-35.26,9.31-52.89.41-2.36.77-4.74.92-7.13.29-4.53-1.4-6.44-5.98-6.96-1.56-.18-3.14-.22-5.2-.36.53-.95.73-1.86,1.21-2.04.85-.33,1.87-.29,2.82-.29,20.63-.01,41.26-.01,61.89,0,1.07,0,2.14.25,3.29.39.07.86.23,1.49.16,2.1-.58,4.92-1.19,9.84-1.82,14.75-.08.62-.2,1.29-.5,1.82-.19.33-.78.61-1.17.58-.38-.03-.94-.41-1.05-.76-.24-.74-.24-1.56-.35-2.35-.22-1.58-.33-3.18-.69-4.73-.86-3.68-3.32-5.74-6.98-6.31-1.73-.27-3.5-.43-5.25-.44-7.84-.05-15.67-.03-23.51-.01-.78,0-1.56.16-2.59.28-1.75,5.7-2.3,11.58-3.37,17.34-1.05,5.64-2,11.31-3.02,17.09.84.31,1.41.71,1.98.71,6.55.03,13.11,0,19.67-.03.48,0,.96-.1,1.43-.11,6.07-.11,9.77-3.34,11.72-8.89.37-1.05.65-2.16,1.17-3.14.43-.8,1.23-.88,1.98-.24-.2,5.06-4.09,26.92-5.43,30.47-.87.3-1.7.18-1.83-.82-.22-1.74-.15-3.51-.36-5.25-.44-3.72-2.28-5.7-5.97-6.49-1.09-.23-2.22-.34-3.33-.35-6.72-.04-13.43-.03-20.15-.02-.46,0-.93.18-1.44.29-.24.4-.63.77-.71,1.19-1.82,10.23-3.6,20.46-5.38,30.69-.08.47-.11.96-.21,1.42-.97,4.27,1.4,5.94,4.7,5.94,7.51-.01,15.03.05,22.54-.14,5.68-.14,10.59-2.42,14.46-6.59,2.82-3.04,5.39-6.32,8.06-9.5.76-.9,1.52-1.7,3.23-.51Z" />
    <path d="M1480.47,616.18c.28-.57.4-1.34.77-1.49,1.02-.41,2.14-.61,3.23-.81,3.18-.56,5.16-2.42,5.96-5.5.61-2.32,1.17-4.65,1.59-7.01,3.14-17.62,6.26-35.25,9.34-52.89.63-3.62,1.09-7.27,1.62-10.91.86-5.96-1.5-7.37-6.27-6.05-.42.11-.89.02-1.59.02,0-.66-.21-1.37.05-1.75.33-.47,1.02-.73,1.61-.96,5.07-1.96,10.15-3.87,15.22-5.84,1.53-.59,3.02-.86,4.85-.13-2.19,14.25-5.08,28.24-7.35,43.09,1.6-1.2,2.6-1.94,3.58-2.68,2.55-1.93,4.98-4.03,7.66-5.76,3.69-2.4,7.79-3.65,12.28-3.35,5.16.35,8.59,3.02,10.26,7.95.84,2.48,1.07,5.05.77,7.58-.7,5.87-1.53,11.72-2.46,17.56-.93,5.84-2.09,11.64-3.06,17.48-.26,1.57-.35,3.19-.29,4.78.1,2.52,1.15,3.71,3.6,4.4,1.07.3,2.16.52,3.22.86.19.06.37.53.36.79-.02.27-.23.67-.46.75-.59.21-1.22.37-1.84.37-8.48.02-16.95.01-25.43,0-.32,0-.72.06-.94-.1-.33-.25-.76-.69-.73-1.01.03-.36.48-.89.83-.98,1.08-.27,2.2-.38,3.31-.52,3.63-.48,5.77-2.66,6.52-6.1.92-4.21,1.68-8.47,2.39-12.72,1.24-7.41,2.44-14.82,3.55-22.25.23-1.56.2-3.2,0-4.77-.43-3.28-2.23-5.19-5.49-5.78-1.38-.25-2.87-.22-4.26.02-5.44.91-9.65,4.11-13.49,7.79-.81.78-1.11,2.25-1.34,3.46-1.19,6.28-2.3,12.58-3.39,18.88-.79,4.57-1.53,9.14-2.29,13.72-.13.79-.29,1.58-.32,2.37-.11,2.6,1.06,4.32,3.5,5.04,1.22.36,2.52.45,3.75.79.36.1.63.6.9.95.06.07-.07.29-.17.64-.27.13-.64.47-1.05.5-5.51.43-25.14.15-28.5-.41Z" />
    <path d="M782.81,616.21c.55-.76.79-1.46,1.22-1.6,1.2-.4,2.48-.57,3.73-.85,2.56-.56,4.31-2.1,5.17-4.53.58-1.65,1.02-3.37,1.33-5.09,3.74-21.1,7.46-42.2,11.13-63.31.35-2.04.47-4.14.42-6.21-.06-2.67-1.3-3.65-4.05-3.47-1.11.07-2.2.39-3.3.42-.29,0-.68-.57-.87-.96-.1-.2.03-.7.23-.84.51-.37,1.08-.68,1.66-.91,5.07-1.96,10.16-3.87,15.22-5.84,1.38-.54,2.74-.84,4.25-.45,1.05,1.32.33,2.78.11,4.1-1.36,8.04-2.84,16.06-4.25,24.09-.83,4.71-1.62,9.42-2.54,14.76,1.16-.6,1.84-.83,2.37-1.24,2.8-2.13,5.46-4.45,8.35-6.44,3.78-2.59,8-3.96,12.66-3.68,5.37.32,8.9,3.14,10.5,8.29,1.12,3.62,1.01,7.28.45,10.93-.92,6-1.95,11.99-2.97,17.98-.7,4.1-1.53,8.17-2.15,12.28-.31,2.04-.43,4.15-.36,6.21.08,2.3,1.12,3.36,3.41,4.03,1.07.31,2.16.52,3.22.86.2.06.38.52.37.79,0,.27-.19.66-.42.77-.4.21-.89.36-1.34.36-8.8,0-17.6,0-26.39-.05-.42,0-.84-.28-1.64-.56.5-.6.77-1.27,1.21-1.4,1.06-.33,2.18-.44,3.29-.58,3.87-.48,5.96-2.88,6.77-6.48.73-3.27,1.29-6.59,1.87-9.9,1.21-6.93,2.42-13.86,3.53-20.81.37-2.36.54-4.77.58-7.16.09-5.29-3.63-7.92-8.4-7.51-2.03.17-4.07.86-5.98,1.63-1.61.65-3.11,1.65-4.54,2.65-5.23,3.66-5.22,3.69-6.33,9.94-1.68,9.45-3.35,18.89-5,28.34-.25,1.41-.46,2.85-.47,4.28-.03,2.4,1.11,3.94,3.39,4.62,1.37.41,2.81.58,4.19.98.26.07.44.72.48,1.12.02.2-.33.57-.57.63-.61.16-1.25.26-1.88.26-8.48.01-16.96.01-25.44-.02-.58,0-1.16-.23-2.2-.46Z" />
    <path d="M1329.07,522.87c-.93,7.13-2.41,13.97-3.54,20.87-1.13,6.84-2.54,13.64-3.49,20.59,1.84,0,2.33-1.18,3.19-1.81,2.56-1.9,5.04-3.92,7.7-5.66,2.29-1.49,4.9-2.33,7.64-2.63,7.85-.84,14.43,2.67,18.24,9.72,1.62,3,2.52,6.24,2.66,9.62.69,16.23-6.18,32.78-24.28,41.77-10.88,5.4-24.01,4.25-34.13-4.5-.38-2.96.67-5.88,1.18-8.83,3.26-18.88,6.67-37.74,10.01-56.61.39-2.2.77-4.41,1.01-6.63.17-1.58.25-3.2.11-4.78-.16-1.83-1.39-2.88-3.23-2.86-1.42.02-2.84.32-4.27.43-.22.02-.63-.33-.67-.55-.06-.42-.07-1.04.18-1.28.44-.42,1.07-.68,1.65-.9,5.07-1.95,10.14-3.87,15.21-5.81,1.36-.52,2.72-.9,4.83-.15ZM1349.17,583.13c.1-6.41-.52-9.48-2.12-12.39-3.35-6.08-9.23-8.45-15.86-6.41-3.11.96-5.73,2.75-8.32,4.66-1.51,1.11-2.29,2.47-2.6,4.35-1.13,6.94-2.43,13.85-3.66,20.77-.64,3.62-1.27,7.24-1.9,10.86-.2,1.13-.15,2.16.67,3.14,4.83,5.83,13.09,7.26,19.47,3.22,4.58-2.9,7.96-6.91,10.19-11.82,2.6-5.74,3.99-11.78,4.14-16.38Z" />
    <path d="M1925.2,614.69c-.39.9-.48,1.56-.73,1.63-.91.23-1.87.36-2.82.37-8.16.02-16.32.02-24.47,0-.79,0-1.57-.12-2.26-.17-.63-.98-.47-1.7.47-1.95,1.23-.33,2.5-.51,3.77-.69,3-.44,4.98-2.11,5.86-4.97.65-2.13,1.25-4.3,1.64-6.5,3.49-19.68,6.95-39.36,10.39-59.05.39-2.2.68-4.43.92-6.65.1-.94.07-1.92-.09-2.85-.33-1.88-1.45-2.81-3.34-2.74-1.27.04-2.52.38-3.79.44-.29.01-.69-.54-.88-.92-.11-.21-.01-.69.17-.86.33-.32.77-.56,1.21-.73,5.36-2.09,10.71-4.21,16.11-6.2,1.13-.42,2.44-.33,3.96-.5,0,1.25.13,2.17-.02,3.03-3.12,17.96-6.28,35.91-9.42,53.86-.13.72-.15,1.47-.27,2.74,1.12-.68,1.82-1.01,2.42-1.48,6.17-4.84,12.33-9.68,18.47-14.56,1.12-.89,2.21-1.86,3.15-2.94,1.38-1.59,1.05-3.17-.79-4.39-.63-.42-1.35-.71-1.9-1,0-1.39.77-1.58,1.59-1.6,2.24-.04,4.48-.04,6.72-.04,4.8,0,9.6-.02,14.4.02,1.06,0,2.12.22,3.18.33-.07.55,0,.97-.18,1.11-.34.29-.8.6-1.22.62-6.71.35-12.19,3.47-17.27,7.57-4.98,4.02-10.02,7.96-15.02,11.95-.74.59-1.42,1.26-2.26,2.01.57,1.07,1.02,2.06,1.59,2.98,4.44,7.22,8.88,14.44,13.39,21.62,1.27,2.03,2.69,3.98,4.19,5.84,1.85,2.3,4.11,4.02,7.25,4.2.62.03,1.29.17,1.83.46.29.16.43.75.47,1.15.02.21-.32.57-.57.66-.44.15-.93.2-1.4.2-8.32.01-16.64.01-24.95,0-.59,0-1.19-.19-1.9-.32.07-.62-.05-1.24.19-1.46.45-.41,1.1-.59,1.67-.86,2.83-1.32,3.25-2.39,2-5.23-.32-.73-.7-1.44-1.11-2.12-4.14-6.84-8.28-13.68-12.45-20.51-.4-.65-.94-1.22-1.5-1.94-.38.62-.78,1-.85,1.43-1.22,7.09-2.43,14.18-3.58,21.28-.18,1.09-.14,2.24-.01,3.34.23,1.95,1.33,3.21,3.32,3.57,1.41.26,2.82.5,4.75.84Z" />
    <path d="M1876.3,556.47c3.78-.64,12.91-.74,18.4-.24.92.99.52,1.89-.51,2.22-4.99,1.6-7.64,5.48-10.04,9.76-8.51,15.2-17.09,30.37-25.65,45.55-.71,1.25-1.41,2.51-2.18,3.72-.7,1.11-1.72,1.3-3.23.62-1.79-5.88-2.72-12.19-4.16-18.38-1.43-6.14-2.5-12.38-4.38-19.36-1.45,2.12-2.36,3.38-3.2,4.69-6.25,9.85-12.49,19.72-18.74,29.58-.68,1.08-1.31,2.22-2.17,3.15-.46.49-1.34.59-2.35.99-.49-1.41-1.03-2.53-1.27-3.72-2.98-14.4-5.9-28.81-8.87-43.21-.52-2.5-1.14-4.98-1.78-7.45-.64-2.47-2.11-4.26-4.53-5.21-.59-.23-1.23-.42-1.7-.81-.3-.25-.52-.86-.45-1.25.07-.37.51-.85.87-.94.76-.19,1.58-.21,2.37-.21,6.4-.01,12.79-.01,19.19,0,.64,0,1.31-.03,1.89.17.35.12.64.63.77,1.02.07.2-.19.68-.42.78-.86.39-1.75.74-2.65.99-2.15.6-3.23,2.1-3.28,4.2-.04,1.9.11,3.84.46,5.71,1.36,7.22,2.84,14.43,4.27,21.64.68,3.43,1.36,6.86,2.16,10.89.94-.9,1.56-1.29,1.92-1.85,5-7.81,9.94-15.66,14.95-23.46.92-1.43,1.29-2.79.81-4.5-.6-2.15-.86-4.39-1.38-6.57-.79-3.33-2.36-5.96-6.19-6.38-.46-.05-.9-.31-1.33-.49-.14-.06-.24-.19-.37-.29-.35-.95.03-1.54.96-1.73.62-.13,1.27-.12,1.91-.12,7.84,0,15.67,0,23.51.01.62,0,1.23.16,1.74.24.58,1.07.22,1.77-.62,2.04-1.21.39-2.51.49-3.73.85-3.11.92-4.41,2.76-4.27,6.05.04.95.21,1.91.42,2.84,2.14,9.84,4.29,19.67,6.47,29.5.16.72.55,1.39,1.03,2.55.8-1.21,1.36-1.95,1.81-2.75,5.46-9.77,10.92-19.54,16.32-29.34.92-1.67,1.71-3.44,2.36-5.23.66-1.83,0-3-1.88-3.74-.89-.35-1.88-.47-2.69-.94-.35-.2-.36-1-.53-1.57Z" />
    <path d="M2410.64,616.3c1.11-1.04,1.45-1.63,1.93-1.76,1.07-.3,2.2-.37,3.31-.53,3.44-.48,5.35-2.67,6.31-5.8.47-1.52.73-3.11,1.01-4.69,1.52-8.5,3.1-16.99,4.46-25.51.48-2.98.64-6.06.5-9.07-.21-4.47-2.71-6.7-7.16-6.58-1.88.05-3.83.46-5.61,1.09-1.94.69-3.76,1.75-5.56,2.77-4.1,2.32-6.5,5.45-7.12,10.54-1.17,9.51-3.2,18.91-4.85,28.36-.22,1.26-.41,2.54-.4,3.81.01,2.88,1.29,4.37,4.12,5.02,1.24.28,2.5.5,3.73.83.18.05.35.53.33.8-.02.27-.22.64-.44.75-.42.2-.91.34-1.37.34-8.96,0-17.91-.02-26.87-.05-.28,0-.56-.25-1.12-.52.31-.5.5-1.24.91-1.39,1.04-.38,2.16-.52,3.26-.7,2.61-.43,4.36-1.96,5.28-4.36.63-1.63,1.21-3.32,1.52-5.03,1.92-10.54,3.79-21.09,5.58-31.65.37-2.19.47-4.46.39-6.69-.08-2.36-1.4-3.39-3.81-3.25-1.23.07-2.45.35-4.06.59,0-.81-.07-1.39.03-1.94.05-.24.42-.5.69-.6,5.97-2.28,11.94-4.57,17.95-6.75.79-.29,1.8.03,3.03.08-.57,3.78-1.09,7.2-1.69,11.19,1.06-.57,1.75-.8,2.25-1.24,3.13-2.75,6.35-5.38,10.04-7.36,2.99-1.59,6.09-2.77,9.55-2.87,7.19-.21,11.96,3.53,12.8,11.35.34,3.14.13,6.42-.37,9.55-1.48,9.32-3.24,18.59-4.84,27.88-.32,1.88-.56,3.81-.58,5.71-.04,3.45.9,4.56,4.19,5.38.77.19,1.59.24,2.34.51.37.14.86.61.88.95.05.71-.52,1.09-1.22,1.15-.48.04-.96.08-1.44.08-8.32,0-16.64,0-24.95-.01-.62,0-1.24-.15-2.92-.38Z" />
    <path d="M2014.53,616.19c.13-.52.13-1.27.35-1.34,1.21-.38,2.47-.63,3.72-.86,2.6-.47,4.38-1.98,5.25-4.4.75-2.1,1.45-4.25,1.84-6.44,1.88-10.54,3.65-21.1,5.44-31.66.21-1.26.39-2.54.4-3.81.05-3.69-1.39-5.01-4.95-4.59-.93.11-1.84.35-2.62.5-1.13-1-1.06-1.87.01-2.42,1.28-.65,2.66-1.08,4-1.6,4.03-1.53,8.06-3.07,12.1-4.58,1.93-.72,1.94-.69,4.88-.4.26,3.59-1.53,7.05-1.15,11.12,1.21-.94,2.21-1.64,3.13-2.43,3.04-2.62,6.22-5.03,9.82-6.83,3.19-1.6,6.53-2.54,10.16-2.31,5.4.35,8.96,3.04,10.59,8.21.98,3.1,1.19,6.27.66,9.48-.97,5.83-1.93,11.67-2.91,17.5-.9,5.36-1.83,10.71-2.73,16.07-.13.79-.28,1.58-.32,2.37-.21,3.96.9,5.39,4.87,6.33.77.18,1.53.38,2.2.54.5,1.02.3,1.69-.68,1.92-.61.14-1.27.12-1.91.12-8.15,0-16.31,0-24.46-.01-.63,0-1.25-.14-1.8-.21-.61-.99-.36-1.64.58-1.88,1.08-.27,2.2-.4,3.3-.55,3.41-.47,5.44-2.52,6.36-5.71.49-1.68.8-3.42,1.1-5.15,1.64-9.29,3.25-18.58,4.86-27.87.44-2.54.61-5.08,0-7.62-.83-3.41-2.47-4.89-5.94-5.28-2.43-.27-4.76.27-7.04,1.1-3.82,1.4-7.01,3.78-10.09,6.36-1.08.91-1.33,2.1-1.55,3.38-1.54,8.82-3.13,17.62-4.67,26.44-.44,2.52-.79,5.05-1.16,7.58-.52,3.6.52,6.62,5.19,6.9.78.05,1.56.3,2.31.57.2.07.38.52.37.8,0,.27-.18.68-.4.79-.41.21-.91.34-1.37.34-8.79,0-17.59,0-26.38-.03-.42,0-.84-.26-1.37-.44Z" />
    <path d="M2352.09,576.43c1.34-3.99,1.45-7.64,1.14-11.32-.29-3.4-2.22-5.53-5.5-6.46-3.6-1.02-6.98-.51-10.05,1.6-2.04,1.4-3.46,3.26-3.81,5.84-.21,1.58-.46,3.18-.9,4.7-.78,2.65-2.49,4.42-5.32,4.9-3.32.56-5.75-1.39-5.68-4.73.05-2.44.86-4.69,2.3-6.7,2.48-3.47,5.71-6.06,9.61-7.69,7.34-3.06,14.91-3.25,22.54-1.23,2.66.71,5.03,2.05,6.6,4.48,1.15,1.79,1.88,3.75,1.67,5.89-.36,3.65-.72,7.31-1.32,10.92-1.31,7.87-2.82,15.72-4.15,23.59-.37,2.2-.57,4.44-.58,6.67,0,2.17,1.72,3.21,3.64,2.18,1.95-1.05,3.71-2.43,5.57-3.68,1.18.75.72,1.83.24,2.43-3.41,4.33-7.5,7.83-12.81,9.67-.3.1-.62.14-.94.19-5.1.86-7.43-.99-7.85-6.25-.06-.73-.15-1.46-.28-2.66-1.31.76-2.25,1.28-3.17,1.85-2.57,1.61-5.09,3.31-7.7,4.85-3.71,2.18-7.76,2.87-12.01,2.32-5.08-.66-8.84-4.31-9.48-9.35-.76-6.05.78-11.4,5.18-15.79,3.21-3.2,6.98-5.64,11.08-7.46,5.54-2.46,11.21-4.63,16.83-6.89,1.62-.65,3.29-1.19,5.14-1.86ZM2351.19,581.32c-.7,0-1.2-.13-1.58.02-3.99,1.59-8.04,3.04-11.9,4.92-2.55,1.24-4.92,2.94-7.14,4.71-2.7,2.15-4.28,5.11-4.91,8.51-1.4,7.53,4.32,12.5,11.52,9.9,2.52-.91,4.81-2.44,7.24-3.62,2.35-1.15,3.45-3.01,3.85-5.58.82-5.34,1.86-10.66,2.77-15.99.15-.9.11-1.84.16-2.87Z" />
    <path d="M1782.07,605.26c1.18,1.3.48,2.4-.17,3.15-3.18,3.64-6.73,6.9-11.33,8.63-1.59.6-3.44.75-5.15.69-2.5-.08-4.11-1.69-4.51-4.17-.22-1.4-.23-2.83-.36-4.6-.89.36-1.63.55-2.26.94-2.85,1.77-5.64,3.64-8.5,5.39-3.68,2.25-7.72,3-11.97,2.52-5.4-.61-9.08-4.15-9.78-9.57-.74-5.68.65-10.79,4.64-15.05,2.88-3.07,6.29-5.49,10.08-7.22,5.37-2.46,10.86-4.66,16.32-6.91,2.35-.97,4.77-1.78,7.15-2.66,1.22-3.54,1.59-7.01,1.31-10.53-.34-4.29-2.58-6.76-6.75-7.52-2.93-.54-5.74-.09-8.31,1.47-2.28,1.38-3.92,3.26-4.38,5.99-.24,1.42-.4,2.85-.75,4.25-.65,2.63-2.02,4.68-4.81,5.46-3.88,1.08-6.81-1.27-6.42-5.25.26-2.61,1.36-4.91,3-6.95,2.03-2.53,4.5-4.59,7.39-6.01,7.99-3.92,16.35-4.25,24.74-1.73,5.74,1.73,8.34,6.07,7.55,12.26-.79,6.18-1.94,12.31-2.96,18.46-.94,5.67-1.95,11.34-2.87,17.02-.2,1.25-.34,2.55-.25,3.8.13,1.82,1.8,2.8,3.47,2.06,1.01-.44,1.94-1.09,2.86-1.71,1.04-.7,2.02-1.47,3.03-2.21ZM1765.03,581.29c-5.01,1.01-13.71,4.68-17.82,7.67-1.53,1.12-2.97,2.42-4.23,3.83-1.84,2.06-2.93,4.53-3.21,7.32-.75,7.65,4.53,11.83,11.75,9.24,3.76-1.35,7.14-3.41,10.03-5.76,2.48-10.89,3.77-19.27,3.48-22.29Z" />
    <path d="M1286.04,605.22c.85,1.33.37,2.42-.36,3.25-3.11,3.48-6.55,6.56-10.89,8.47-1.81.8-3.69,1.04-5.62.83-2.47-.26-4.09-1.77-4.49-4.26-.22-1.39-.22-2.81-.35-4.61-1.09.51-1.95.83-2.71,1.3-2.71,1.69-5.36,3.49-8.1,5.14-3.84,2.32-8.05,3.04-12.46,2.4-5.06-.73-8.68-4.46-9.24-9.58-.69-6.26,1.03-11.69,5.74-16.06,3.2-2.97,6.83-5.32,10.79-7.05,5.56-2.43,11.23-4.6,16.86-6.86,1.62-.65,3.27-1.22,4.76-1.78,1.37-3.63,1.57-7.13,1.32-10.66-.3-4.12-2.38-6.47-6.36-7.32-3.64-.77-7-.07-9.93,2.28-1.67,1.34-2.81,3.03-3.13,5.21-.23,1.58-.43,3.19-.88,4.71-.77,2.62-2.39,4.48-5.24,5.01-3.52.65-6.07-1.47-5.85-5.03.17-2.79,1.33-5.25,3.1-7.4,2.49-3.02,5.53-5.36,9.15-6.8,7.22-2.87,14.67-3.16,22.11-1.11,6.18,1.7,8.98,5.78,8.36,12.18-.47,4.76-1.41,9.48-2.19,14.21-1.2,7.25-2.44,14.5-3.65,21.75-.16.94-.34,1.9-.34,2.85-.01,2.66,1.82,3.85,4.12,2.67.98-.51,1.85-1.24,2.77-1.87.9-.62,1.8-1.24,2.71-1.88ZM1265.2,604.04c2.11-8.36,3.88-19.4,3.7-22.66-.3-.05-.64-.23-.89-.14-5.1,1.8-10.26,3.52-14.86,6.42-2.26,1.43-4.44,3.13-6.27,5.07-2.49,2.64-3.61,5.96-3.36,9.65.36,5.29,4.21,8.44,9.4,7.59,1.39-.23,2.82-.65,4.07-1.29,2.82-1.46,5.53-3.11,8.21-4.63Z" />
    <path d="M566.82,618.9c-2.06-.2-4.17-.21-6.19-.62-6.13-1.27-10.77-4.71-13.86-10.15-4.26-7.49-4.92-15.45-2.73-23.66,2.2-8.22,6.4-15.33,12.61-21.14,6.59-6.16,14.47-9.3,23.55-8.99,11.12.38,19.33,7.19,22.03,17.97,1.4,5.59,1.04,11.11-.5,16.58-2.03,7.2-5.63,13.55-10.65,19.08-5.69,6.28-14.77,11.02-24.25,10.93ZM590.23,581.24c-.16-2.38-.21-4.78-.51-7.15-.44-3.52-1.58-6.82-3.52-9.82-2.35-3.64-5.68-5.47-10.01-5.47-4.94,0-8.96,2.01-12.16,5.68-2.33,2.67-3.95,5.78-5.11,9.13-2.59,7.5-3.44,15.22-2.67,23.1.37,3.83,1.41,7.52,3.33,10.9,2.62,4.62,6.56,6.75,11.9,6.36,3.5-.25,6.42-1.72,9.02-3.96,3-2.57,4.85-5.91,6.14-9.55,2.19-6.21,3.35-12.62,3.6-19.22Z" />
    <path d="M252.89,618.81c-1.16-.11-3.26-.11-5.28-.54-6.12-1.28-10.76-4.71-13.85-10.16-4.35-7.66-4.9-15.78-2.59-24.12,2.18-7.87,6.25-14.71,12.14-20.35,6.51-6.24,14.35-9.49,23.42-9.32,11.72.22,20.18,7.43,22.7,18.94,1.12,5.15.75,10.19-.59,15.18-2.03,7.54-5.74,14.23-11.13,19.88-6.47,6.78-14.43,10.41-24.81,10.5ZM277.18,580.95c-.12-2.08-.14-4.16-.37-6.22-.41-3.7-1.53-7.19-3.54-10.35-2.32-3.66-5.64-5.55-10-5.58-4.96-.03-9,1.97-12.22,5.64-2.68,3.05-4.42,6.66-5.61,10.51-2.2,7.12-2.94,14.41-2.18,21.82.41,4.01,1.48,7.86,3.61,11.34,2.45,4.02,6.03,6.01,10.79,5.9,3.7-.08,6.82-1.47,9.61-3.8,3.18-2.65,5.11-6.14,6.43-9.96,2.16-6.24,3.35-12.67,3.48-19.3Z" />
    <path d="M2001.7,465.75c.11-15.44,15.51-27.45,30.41-23.73,6.78,1.7,11.48,7.43,12.12,14.42,1.28,13.99-10.51,26.57-23.47,27.08-2.51.1-5.16-.17-7.56-.88-7.5-2.22-11.76-8.96-11.5-16.89Z" />
    <path d="M635.01,561.08c-3.91-.11-7.37-.21-11.21-.31.28-1.69.49-3.02.75-4.55,3.9-.06,7.54-.12,11.41-.19.34-1.43.67-2.63.91-3.85.92-4.73,2.2-9.34,4.58-13.57,4.95-8.76,12.38-14.06,22.3-15.74,4.71-.8,9.26-.16,13.36,2.49,1.19.77,2.35,1.7,3.29,2.76,3.49,3.94,1.76,9.55-3.31,11.04-1.9.56-3.51-.03-4.81-1.34-.88-.9-1.56-2.01-2.25-3.08-.6-.94-1.05-1.98-1.65-2.92-3.43-5.34-10.01-5.89-14.14-1.06-1.12,1.3-2.06,2.91-2.58,4.54-2.07,6.55-3.18,13.32-4.22,20.31,5.02,1.17,10-.04,14.98.82.04.72.2,1.35.09,1.92-.14.76-.49,1.48-.79,2.31-5,.67-9.96-.14-15.06.51-.37,1.42-.82,2.76-1.07,4.14-2.14,12.12-4.28,24.23-6.34,36.36-.37,2.19-.57,4.45-.55,6.67.03,3.59,1.85,5.6,5.43,6.12,1.73.25,3.51.13,5.26.29.34.03.65.53.97.81-.38.42-.69,1.06-1.15,1.19-.74.22-1.58.14-2.38.14-9.59,0-19.18,0-28.78,0-.64,0-1.3.09-1.91-.06-.54-.13-1.13-.43-1.48-.84-.42-.48.37-1.23,1.46-1.35.79-.08,1.61-.03,2.39-.17,4.31-.78,7.31-3.14,8.45-7.47.65-2.47,1.12-4.99,1.57-7.5,2.07-11.48,4.11-22.96,6.14-34.45.19-1.09.2-2.21.35-3.98Z" />
    <path d="M2574.74,592.97c.58,1.31,1.04,1.86,1,2.37-.07.77-.43,1.53-.76,2.25-3,6.73-7.54,12.23-13.53,16.49-5.47,3.89-11.64,5.19-18.23,4.29-8.46-1.16-15.24-7.8-17.25-16.54-1.1-4.77-.9-9.5-.08-14.29,1.03-6.05,2.79-11.84,6.05-17.07,5.04-8.07,12.02-13.59,21.43-15.77,3.63-.84,7.33-.88,10.97-.33,7.75,1.17,13.21,6.65,14.71,14.43.61,3.18.74,6.33-.24,9.35-1.38,1.15-2.88.76-4.26.77-10.72.03-21.43,0-32.15.04-1.72,0-3.51-.35-5.13.44-1.73,5.77-1.36,12.88.9,17.82,4.15,9.07,13.47,12.81,22.84,9.2,4.02-1.55,7.12-4.22,9.64-7.63,1.22-1.66,2.37-3.37,4.08-5.82ZM2565.4,574.47c.21-1.11.58-2.32.63-3.54.39-8.89-6.91-14.26-15.32-11.28-1.19.42-2.37.97-3.45,1.63-4.1,2.5-6.88,6.12-8.62,10.55-.32.81-.35,1.74-.52,2.62,4.16.68,22.9.69,27.28.02Z" />
    <path d="M918.68,578.88c-7.06.12-13.93.04-20.79.06-6.84.02-13.69-.01-20.58.02-1.5,5.5-1.51,10.57,0,15.53,3.89,12.85,16.6,16.65,27.24,10.24,2.93-1.76,5.14-4.3,7.08-7.08.9-1.3,1.79-2.6,2.61-3.79,1.63-.03,1.84.86,1.58,1.88-.23.92-.65,1.8-1.06,2.67-2.96,6.18-7.21,11.32-12.73,15.36-5.4,3.96-11.52,5.41-18.15,4.67-8.28-.93-15.25-7.19-17.55-15.64-.93-3.43-1.23-6.94-.93-10.47.55-6.42,1.92-12.67,4.81-18.46,4.89-9.82,12.4-16.55,23.25-19.16,3.63-.87,7.33-.88,10.97-.34,7.92,1.18,13.53,6.93,14.81,14.88.49,3.03.55,6.03-.55,9.63ZM905.3,574.46c.98-3.47,1.08-4.97.52-7.46-1.04-4.58-4.77-7.77-9.47-8.1-2.96-.21-5.69.49-8.26,1.95-4.64,2.65-7.75,6.56-9.5,11.57-.23.66-.18,1.42-.26,2.13,5,.63,23.42.54,26.98-.09Z" />
    <path d="M1425.39,593.27c.54.96,1.14,1.55,1.14,2.15,0,.75-.43,1.52-.76,2.25-2.97,6.56-7.39,11.96-13.19,16.19-5.42,3.95-11.55,5.36-18.17,4.57-8.28-.98-15.2-7.29-17.45-15.75-.92-3.44-1.19-6.94-.88-10.47.56-6.42,1.96-12.66,4.86-18.45,4.92-9.81,12.47-16.5,23.32-19.07,3.62-.86,7.33-.86,10.97-.29,7.93,1.26,13.44,7,14.7,14.99.48,3.04.52,6.03-.53,9.3-1.38.08-2.78.24-4.17.24-10.88.02-21.76,0-32.63.03-1.56,0-3.2-.38-4.8.63-1.26,4.66-1.2,9.42-.07,14.12,2.12,8.83,9.71,14.66,18.13,14.03,4.95-.37,9.35-2.19,12.82-5.81,1.65-1.72,3.02-3.71,4.49-5.6.67-.86,1.28-1.78,2.2-3.06ZM1416.41,574.59c.15-1.96.47-3.69.38-5.4-.33-6.41-4.97-10.54-11.39-10.3-4.05.15-7.33,2.02-10.28,4.59-3.43,3-5.39,6.67-5.97,10.9,3.28.72,20.51.91,27.25.21Z" />
    <path d="M471.2,579.07c-5.1.02-9.72.05-14.34.06-4.48,0-8.95,0-13.43,0-4.62,0-9.24-.03-13.71.03-2.26,6.67-1.49,14.93,1.78,20.28,6.66,10.9,18.69,10.04,25.9,5.08,2.54-1.74,4.54-4.02,6.31-6.51.74-1.04,1.35-2.19,2.17-3.16.31-.38,1.04-.41,1.57-.6.16.58.42,1.15.45,1.74.02.45-.21.93-.4,1.37-3.26,7.35-8.16,13.34-14.92,17.71-5.66,3.66-11.95,4.48-18.44,3.25-8.37-1.58-15.14-9.1-16.19-18.11-1.34-11.55,1.11-22.38,7.9-31.85,6.63-9.26,15.73-14.38,27.39-14.06,2.21.06,4.48.44,6.58,1.14,5.32,1.77,8.96,5.43,10.82,10.75,1.41,4.02,1.31,8.11.55,12.88ZM458.1,574.68c.06-2.1.27-4,.14-5.88-.29-4.2-2.5-7.15-6.33-8.86-3.46-1.55-6.91-1.09-10.21.44-5.68,2.64-9.31,7.13-11.18,13.06-.13.4.1.92.15,1.36,4.22.56,22.83.54,27.42-.12Z" />
    <path d="M1160.3,616.36c.26-.95.28-1.8.7-2.36.95-1.28,2.07-2.44,3.15-3.61,13.92-15.02,27.84-30.03,41.75-45.06,1.15-1.24,2.51-2.35,3.46-4.24-.99-.2-1.56-.42-2.14-.42-6.72,0-13.43.03-20.15.06-.8,0-1.6.11-2.39.15-2.95.15-5.25,1.53-6.7,4.02-1.19,2.06-2.02,4.32-3.05,6.48-.46.96-1.14,1.53-2.25.86-.16-3.25,1.35-11.51,2.89-15.82,3.86-.64,46.2-.65,50.46.03-.18.75-.16,1.61-.56,2.18-.82,1.17-1.85,2.2-2.83,3.25-14.18,15.21-28.36,30.42-42.54,45.63-1.08,1.16-2.12,2.36-3.45,3.84.76.34,1.26.77,1.77.77,7.84.01,15.67-.03,23.51-.07.64,0,1.28-.1,1.91-.15,4.42-.37,7.43-2.72,9.19-6.69.84-1.89,1.36-3.93,2.2-5.82.24-.54,1.09-.81,1.83-1.31.21,3.5-1.6,12.7-3.54,18.28-4.3.73-8.75.24-13.18.33-4.48.09-8.96.02-13.44.02s-8.64.06-12.96-.02c-4.43-.08-8.89.35-13.66-.32Z" />
    <path d="M2508.01,593.75c.01.32.13.66.03.93-3.26,8.65-8.55,15.66-16.66,20.35-3.08,1.78-6.36,3.02-9.9,3.42-10.65,1.2-19.54-4.79-22.6-15.14-1.15-3.9-1.32-7.89-1-11.88,1.03-12.95,6.2-23.69,17.01-31.34,6.37-4.51,13.45-6.55,21.26-5.86,4.97.44,9.27,2.27,12.52,6.22,1.24,1.51,2.16,3.2,2.52,5.11.55,2.88-.12,5.46-2.49,7.31-2.34,1.82-5.02,1.96-7.72.93-1.79-.68-2.84-2.05-2.92-4.02-.06-1.44.04-2.88-.03-4.31-.2-4.27-2.24-6.37-6.54-6.73-4.54-.38-8.52.98-11.91,4.02-2.78,2.49-4.93,5.46-6.42,8.87-3.01,6.89-4.26,14.04-2.91,21.52.25,1.41.61,2.81,1.05,4.17,3.72,11.38,12.94,12.34,20.59,9.62,4.17-1.48,7.56-4.13,10.25-7.63,1.36-1.77,2.57-3.66,3.92-5.45.53-.7,1.26-.96,1.96-.11Z" />
    <path d="M1301.28,209.16c10.47-.12,17.75,8.33,15.86,19.21-1.61,9.29-8.95,16.81-18.17,18.95-3.89.9-7.63.49-11.27-.92-6.07-2.36-9.52-7.85-9.43-14.74.17-11.94,11.02-22.55,23-22.5Z" />
    <path d="M2141.57,554.23c-.54,3.36-.97,6.17-1.46,8.97-.61,3.46-1.24,6.92-1.97,10.36-.09.43-.83.86-1.35,1-.25.07-.85-.5-.98-.88-.26-.74-.28-1.57-.44-2.35-.37-1.72-.66-3.46-1.17-5.13-1.39-4.6-4.59-7.25-9.28-7.94-5.06-.75-9.6.39-12.88,4.61-2.59,3.31-2.27,7.89.82,10.93,1.46,1.44,3.24,2.61,5.02,3.65,3.17,1.85,6.5,3.45,9.69,5.28,1.93,1.11,3.85,2.31,5.55,3.74,4.93,4.14,6.24,9.49,4.65,15.59-1.04,3.97-3.16,7.32-6.3,9.99-6.48,5.52-13.95,7.57-22.34,6.18-2.2-.37-4.38-.91-6.54-1.5-2.38-.65-4.66-1.09-6.8.67-.27.22-.89.03-1.55.03,0-.9-.11-1.69.02-2.44.91-5.36,1.86-10.71,2.82-16.06.22-1.21.33-2.55,2.24-2.93.25,1.01.47,1.88.69,2.75.59,2.32.92,4.74,1.83,6.93,2.46,5.94,8.25,9.4,14.51,8.97,4.86-.33,9.1-3.43,10.6-7.76,1.27-3.68.59-6.95-2.16-9.71-1.01-1.01-2.15-1.92-3.35-2.7-2.41-1.57-4.9-3.01-7.36-4.51-2.04-1.25-4.16-2.41-6.11-3.79-6.44-4.58-8.04-9.57-5.64-17.14,3.35-10.57,14.31-16.79,25.49-14.43,1.56.33,3.09.82,4.62,1.27,2.57.76,5.02,1.06,7.01-1.34.21-.26.88-.14,2.12-.28Z" />
    <path d="M2689.1,554.15c0,1.26.11,2.05-.02,2.8-.92,5.36-1.88,10.7-2.84,16.05-.06.31-.07.71-.27.9-.32.31-.78.68-1.17.67-.39-.01-.98-.38-1.1-.73-.26-.74-.2-1.58-.39-2.35-.59-2.32-1.07-4.69-1.92-6.91-1.16-3-3.47-4.92-6.58-5.82-4.74-1.37-9.15-.85-13.15,2.23-4.56,3.52-4.33,10.24-.38,13.38,1.62,1.29,3.36,2.45,5.16,3.48,3.05,1.74,6.19,3.34,9.29,4.99,2.56,1.37,4.9,3.01,6.85,5.18,3.23,3.58,4.35,7.76,3.42,12.46-.93,4.71-3.21,8.66-6.91,11.76-6.54,5.48-14.04,7.38-22.4,5.93-2.2-.38-4.38-.91-6.53-1.52-2.24-.64-4.35-.94-6.35.69-.28.23-.91.03-1.54.03,0-1.13-.15-2.24.03-3.3.9-5.36,1.87-10.71,2.84-16.06.08-.45.21-.98.5-1.29.27-.29.79-.43,1.21-.47.23-.02.65.28.71.51.2.76.3,1.55.39,2.34.31,2.73.98,5.36,2.28,7.78,3.52,6.57,11.48,9.57,18.05,6.77,3.23-1.38,5.6-3.65,6.63-7.12,1.11-3.72.38-7.03-2.54-9.61-1.79-1.58-3.77-2.96-5.79-4.25-2.29-1.46-4.74-2.66-7.04-4.1-2.03-1.27-4.02-2.63-5.88-4.13-3.68-2.97-4.96-6.92-4.32-11.55,1.77-12.7,13.52-20.94,26.2-18.35,1.72.35,3.39.92,5.08,1.39,2.42.68,4.72.87,6.59-1.33.24-.28.87-.23,1.9-.46Z" />
    <path d="M1109.95,522.96c-1.77,10.07-3.49,19.82-5.21,29.58-2.98,16.84-5.97,33.68-8.92,50.52-.3,1.73-.49,3.49-.54,5.25-.09,3.5,1.07,4.9,4.49,5.69.93.22,1.92.28,2.78.65.37.16.49.91.76,1.48-3.97.74-25.21.79-29.66.07.31-.58.46-1.32.86-1.49.86-.38,1.83-.54,2.78-.65,3.05-.37,4.95-2.18,5.89-4.95.72-2.11,1.28-4.29,1.67-6.49,3.55-19.98,7.06-39.98,10.55-59.97.33-1.89.55-3.8.74-5.71.1-.95.14-1.92,0-2.86-.3-2.1-1.47-3.04-3.65-2.94-1.11.05-2.2.42-3.31.45-1.08.03-1.19-.8-1.02-1.89.74-.36,1.56-.82,2.44-1.16,4.62-1.78,9.25-3.54,13.89-5.28,2.26-.85,2.27-.82,5.46-.29Z" />
    <path d="M1454.26,560.91c-3.18-.18-5.98-.35-9.16-.53.28-.92.31-1.59.65-1.98.39-.46,1.05-.7,1.62-.99,7.39-3.92,13.1-9.6,17.48-16.67.84-1.36,1.62-2.77,2.58-4.03.27-.36,1.1-.42,1.66-.38.17.01.48.81.42,1.19-.61,3.79-1.24,7.57-1.94,11.34-.41,2.18-.57,4.36-1.11,6.62,4.84,1.14,9.37-.17,13.94.97-.31,1.36-.58,2.57-.89,3.89-4.57.76-9.05-.07-13.57.54-1.07,1.74-1.12,3.7-1.45,5.52-1.95,10.69-3.84,21.38-5.65,32.09-.4,2.35-.6,4.77-.49,7.15.14,3,2.21,4.58,5.18,4.27,2.68-.28,4.74-1.7,6.52-3.66,1.28-1.41,2.34-1.75,2.7-1.11.61,1.08-.25,1.79-.74,2.54-2.48,3.85-5.74,6.84-9.93,8.75-2.23,1.01-4.55,1.45-7,1.23-4.78-.42-8.08-3.56-8.24-8.35-.1-3.01.21-6.07.71-9.05,2.06-12.29,4.25-24.55,6.39-36.83.11-.62.16-1.26.32-2.51Z" />
    <path d="M775.79,604.97c-2.41,6.26-8.5,11.55-14.34,12.51-1.4.23-2.88.25-4.29.07-3.94-.5-6.82-3.1-7.47-7.02-.33-2.01-.32-4.16.01-6.17,1.81-11.03,3.77-22.03,5.67-33.05.57-3.29,1.11-6.59,1.67-9.94-2.88-1.43-5.89-.15-8.47-1.01-.64-.95-.48-1.65.25-2.21.38-.29.82-.49,1.25-.71,7.54-4,13.33-9.8,17.75-17.05.75-1.23,1.48-2.47,2.35-3.61.31-.4,1-.51,1.96-.96.05,6.97-2.46,13.16-2.59,19.75,4.41.9,8.76-.1,13.27.7-.1,1.33-.19,2.52-.28,3.8-4.71,1.29-9.41-.1-14.18.99-.49,2.51-1,4.99-1.44,7.48-1.91,10.85-3.83,21.7-5.68,32.56-.26,1.55-.41,3.2-.2,4.75.39,2.92,2.52,4.38,5.48,4.03,1.98-.23,3.64-1.15,5.1-2.45.83-.74,1.52-1.65,2.4-2.31.38-.28,1.09-.11,1.8-.15Z" />
    <path d="M2615.89,614.77c-.5.9-.64,1.5-.93,1.59-.73.23-1.54.32-2.32.32-8.3.02-16.61.02-24.91,0-.93,0-1.86-.17-3.18-.3.4-.76.54-1.53.93-1.68,1.02-.4,2.14-.59,3.24-.78,3.75-.62,5.98-2.81,6.71-6.52.8-4.07,1.6-8.14,2.33-12.23,1.29-7.23,2.55-14.46,3.77-21.7.32-1.89.55-3.8.62-5.71.14-3.67-1.32-5.04-4.87-4.72-.79.07-1.55.41-2.34.44-.38.02-1.12-.38-1.11-.58,0-.55.21-1.19.55-1.63.26-.33.84-.41,1.29-.58,5.22-1.98,10.45-3.95,15.66-5.95,1.36-.52,2.69-.91,4.39-.05-.51,3.44-1.01,6.86-1.62,10.95,1.06-.7,1.73-.97,2.14-1.45,2.41-2.78,4.91-5.48,8-7.53,2.44-1.62,5.04-2.73,8.07-2.53,3.59.24,6.29,2.59,6.55,5.8.28,3.39-2.62,7.06-6.02,7.61-1.67.27-3.17-.19-4.52-1.15-1.17-.83-2.27-1.76-3.44-2.58-1.16-.81-2.46-.89-3.57,0-4.37,3.53-8.46,7.22-9.41,13.28-1.42,8.99-3.09,17.93-4.61,26.9-.24,1.4-.35,2.87-.23,4.28.22,2.83,1.75,4.74,4.55,5.48,1.22.32,2.46.58,4.27,1Z" />
    <path d="M2003.86,554.69c-.76,4.54-1.45,8.79-2.2,13.02-2.06,11.63-4.18,23.25-6.2,34.89-.38,2.19-.59,4.45-.57,6.67.02,2.76,1.14,3.93,3.89,4.66.46.12.95.16,1.41.28.86.22,2.11.11,1.91,1.51-.15,1.02-1.15.95-1.92.95-8.62,0-17.25-.03-25.87-.06-.3,0-.61-.18-.9-.27-.48-.87-.29-1.56.67-1.82.92-.25,1.87-.4,2.82-.51,2.84-.35,4.67-2.03,5.66-4.56.7-1.77,1.23-3.64,1.56-5.51,1.98-11.32,3.89-22.66,5.79-33.99.18-1.09.25-2.23.18-3.34-.18-2.56-1.56-3.77-4.08-3.6-1.1.07-2.19.42-3.29.48-.29.02-.69-.53-.88-.9-.12-.22-.04-.73.13-.88.48-.39,1.03-.75,1.6-.97,5.21-2,10.45-3.96,15.66-5.97,1.37-.53,2.7-.86,4.63-.07Z" />
    <path d="M1127.57,563.54c-.85-.78-1.03-1.53-.23-2.13.62-.46,1.39-.75,2.13-1.03,4.77-1.81,9.55-3.59,14.32-5.41,1.49-.57,2.95-1.25,4.88-.34.24,1.6-.2,3.3-.49,4.97-2.58,14.77-5.21,29.53-7.79,44.31-.3,1.72-.53,3.48-.5,5.22.04,2.72,1.22,4.06,3.81,4.77,1.07.29,2.17.5,3.23.82.19.06.36.53.35.8,0,.27-.18.67-.4.78-.41.21-.91.34-1.37.34-8.78,0-17.55-.02-26.33-.05-.3,0-.6-.18-.89-.27-.41-.95,0-1.59.86-1.84.91-.27,1.88-.37,2.83-.48,2.85-.33,4.66-2.03,5.67-4.55.7-1.76,1.22-3.63,1.56-5.51,1.86-10.36,3.69-20.73,5.43-31.12.37-2.19.44-4.45.39-6.67-.04-2.08-1.36-3.24-3.4-3.17-1.4.05-2.79.36-4.06.54Z" />
    <path d="M1147.07,535.8c-3.84.14-6.63-3.21-5.79-6.96.92-4.16,4.66-6.88,8.8-6.41,2.82.32,4.9,2.76,4.78,5.62-.16,3.94-3.85,7.61-7.79,7.76Z" />
    <path d="M2001.94,535.8c-3.49.1-6.06-2.56-5.87-6.06.25-4.58,4.85-8.13,9.4-7.25,2.27.44,3.91,2.26,4.16,4.63.44,4.29-3.34,8.56-7.68,8.68Z" />
  </g>
</svg>